<?xml version="1.0" encoding="utf-8"?>
<!-- Generator: Adobe Illustrator 23.0.1, SVG Export Plug-In . SVG Version: 6.00 Build 0)  -->
<svg version="1.1" id="Layer_1" xmlns="http://www.w3.org/2000/svg" xmlns:xlink="http://www.w3.org/1999/xlink" x="0px" y="0px"
	 viewBox="0 0 300 330" style="enable-background:new 0 0 300 330;" xml:space="preserve">
<style type="text/css">
	.st0{fill:#A2D9DA;}
	.st1{fill:#6F2C90;}
</style>
<g>
	<g>
		<path class="st0" d="M150.12,330c-15.27,0-30.61-2.37-45.58-7.14c-38.18-12.18-69.35-38.56-87.77-74.27
			C-21.25,174.85,7.56,83.8,80.99,45.61c73.43-38.18,164.11-9.26,202.14,64.48c18.42,35.72,21.89,76.5,9.76,114.84
			c-12.13,38.34-38.4,69.63-73.97,88.13l-1.95-3.79l1.95,3.79C197.29,324.3,173.8,330,150.12,330z M149.72,37.29
			c-21.89,0-44.08,5.11-64.82,15.89C15.62,89.21-11.55,175.1,24.32,244.66c17.38,33.7,46.78,58.58,82.8,70.07
			c36.02,11.49,74.33,8.21,107.89-9.24c33.56-17.45,58.34-46.97,69.78-83.14c11.44-36.16,8.17-74.64-9.2-108.33
			C250.46,65.28,200.93,37.29,149.72,37.29z"/>
	</g>
	<g>
		<path class="st1" d="M297.9,96.48c-11.75-19.27-26.41-36.43-43.7-50.24c-17.23-13.86-36.92-24.42-57.86-31.1
			c-20.94-6.67-43.09-9.45-65.13-8.12c-22.06,1.27-43.89,6.78-64.57,15.7c9.59-5.94,19.96-10.66,30.72-14.34
			c10.78-3.6,21.97-6.13,33.34-7.38c22.73-2.53,46.07-0.18,67.96,6.81c21.89,6.98,42.3,18.58,59.41,33.82
			c8.57,7.61,16.25,16.16,22.98,25.34C287.72,76.21,293.47,86.08,297.9,96.48z"/>
	</g>
</g>
</svg>
