<?xml version="1.0" encoding="utf-8"?>
<!-- Generator: Adobe Illustrator 23.0.1, SVG Export Plug-In . SVG Version: 6.00 Build 0)  -->
<svg version="1.1" id="Layer_1" xmlns="http://www.w3.org/2000/svg" xmlns:xlink="http://www.w3.org/1999/xlink" x="0px" y="0px"
	 viewBox="0 0 340 340" style="enable-background:new 0 0 340 340;" xml:space="preserve">
<style type="text/css">
	.st0{fill:#224099;}
	.st1{fill:#6F2C90;}
</style>
<g>
	<g>
		<path class="st0" d="M186.31,340c-84.75,0-153.69-69.85-153.69-155.72S101.56,28.56,186.31,28.56S340,98.42,340,184.28
			S271.05,340,186.31,340z M186.31,56.7c-69.44,0-125.93,57.23-125.93,127.59s56.49,127.59,125.93,127.59
			s125.93-57.23,125.93-127.59S255.75,56.7,186.31,56.7z"/>
	</g>
	<g>
		<path class="st1" d="M166.01,1.41c-10.77,1.74-21.24,3.95-31.38,7.01c-10.13,3.04-19.92,6.83-29.28,11.42
			c-18.72,9.11-35.69,21.32-50.21,36.02c-14.5,14.72-26.54,31.92-35.54,50.88c-4.52,9.47-8.26,19.39-11.27,29.66
			c-3.03,10.27-5.21,20.87-6.94,31.79c-3.31-21.86-0.67-44.86,6.78-66.24c7.47-21.4,19.86-41.19,35.84-57.35
			C60,28.42,79.53,15.87,100.64,8.3C121.74,0.76,144.44-1.92,166.01,1.41z"/>
	</g>
</g>
</svg>
