<?xml version="1.0" encoding="utf-8"?>
<!-- Generator: Adobe Illustrator 23.0.1, SVG Export Plug-In . SVG Version: 6.00 Build 0)  -->
<svg version="1.1" id="Layer_1" xmlns="http://www.w3.org/2000/svg" xmlns:xlink="http://www.w3.org/1999/xlink" x="0px" y="0px"
	 viewBox="0 0 340 340" style="enable-background:new 0 0 340 340;" xml:space="preserve">
<style type="text/css">
	.st0{fill:#A2D9DA;}
	.st1{fill:#F1F1F2;}
</style>
<g>
	<path class="st0" d="M263.5,307.4c-12.9,8.7-27.1,15.5-42.5,20c-39.1,11.6-80.4,7.2-116.2-12.3C30.9,275,3.4,182.1,43.6,108.2
		C83.8,34.2,176.7,6.8,250.6,47c35.8,19.5,61.9,51.7,73.5,90.8c11.6,39.1,7.2,80.4-12.3,116.2l-3.8-2.1l3.8,2.1
		C300,275.8,283.4,293.9,263.5,307.4z M96.8,62c-18.5,12.5-34.3,29.4-45.6,50.3c-37.9,69.7-12,157.3,57.7,195.3
		c33.8,18.4,72.7,22.5,109.6,11.6c36.9-10.9,67.3-35.5,85.7-69.3c18.4-33.8,22.5-72.7,11.6-109.6c-10.9-36.9-35.5-67.3-69.3-85.7
		C197.6,28,140,32.8,96.8,62z"/>
</g>
<g>
	<g>
		<path class="st1" d="M255.4,27.1c-20.9-9.5-43-15.5-65.4-17.2c-22.4-1.8-45,0.6-66.4,6.9C102.1,23.1,81.9,33.4,64,47.1
			c-17.9,13.6-33.1,30.7-45.5,50c4.7-10.5,10.8-20.3,17.7-29.6c7-9.2,15-17.7,23.9-25.2c17.7-15.1,38.7-26.4,61.1-33
			c22.4-6.6,46.2-8.5,69.3-5.5c11.5,1.5,22.9,4.3,33.8,8.2C235.3,15.9,245.7,20.9,255.4,27.1z"/>
	</g>
</g>
</svg>
