<?xml version="1.0" encoding="utf-8"?>
<!-- Generator: Adobe Illustrator 23.0.1, SVG Export Plug-In . SVG Version: 6.00 Build 0)  -->
<svg version="1.1" id="Layer_1" xmlns="http://www.w3.org/2000/svg" xmlns:xlink="http://www.w3.org/1999/xlink" x="0px" y="0px"
	 viewBox="0 0 340 340" style="enable-background:new 0 0 340 340;" xml:space="preserve">
<style type="text/css">
	.st0{fill:#9F66A9;}
	.st1{fill:#A2D9DA;}
</style>
<g>
	<path class="st0" d="M166.3,336.9c-15.7,0-31.5-2.4-46.9-7.3C80.1,317.1,48,290,29,253.4c-39.1-75.6-9.5-168.9,66.1-208
		c75.6-39.1,168.9-9.5,208,66.1c19,36.6,22.5,78.4,10,117.7c-12.5,39.3-39.5,71.4-76.1,90.3l-2-3.9l2,3.9
		C214.8,331,190.6,336.9,166.3,336.9z M165.8,36.9c-22.5,0-45.4,5.2-66.7,16.3C27.9,90.1-0.1,178.1,36.8,249.4
		c17.9,34.5,48.1,60,85.2,71.8c37.1,11.8,76.5,8.4,111-9.5c34.5-17.9,60-48.1,71.8-85.2c11.8-37.1,8.4-76.5-9.5-111
		C269.5,65.6,218.5,36.9,165.8,36.9z"/>
</g>
<g>
	<g>
		<path class="st1" d="M328.2,102.6c-12.1-19.8-27.2-37.3-45-51.5c-17.7-14.2-38-25-59.5-31.9c-21.5-6.8-44.3-9.7-67-8.3
			C134,12.2,111.5,17.9,90.3,27c9.9-6.1,20.5-10.9,31.6-14.7C133,8.6,144.5,6,156.2,4.7c23.4-2.6,47.4-0.2,69.9,7
			c22.5,7.2,43.5,19,61.1,34.7c8.8,7.8,16.7,16.6,23.7,26C317.7,81.8,323.7,91.9,328.2,102.6z"/>
	</g>
</g>
</svg>
