<?xml version="1.0" encoding="utf-8"?>
<!-- Generator: Adobe Illustrator 23.0.1, SVG Export Plug-In . SVG Version: 6.00 Build 0)  -->
<svg version="1.1" id="Layer_1" xmlns="http://www.w3.org/2000/svg" xmlns:xlink="http://www.w3.org/1999/xlink" x="0px" y="0px"
	 viewBox="0 0 87 65" style="enable-background:new 0 0 87 65;" xml:space="preserve">
<style type="text/css">
	.st0{fill:#224099;}
</style>
<g>
	<g>
		<ellipse class="st0" cx="7" cy="32.5" rx="7" ry="6.9"/>
		<path class="st0" d="M30.7,24c0.2-0.2,0.3-0.4,0.4-0.6c0.7-1.2,1.1-2.6,1-4.1c-0.2-3.4-3-6.2-6.5-6.5c-4.1-0.3-7.5,2.9-7.5,6.9
			c0,1.3,0.4,2.5,1,3.6c0.2,0.2,0.3,0.5,0.5,0.7c0.1,0.2,0.2,0.3,0.3,0.5c1.5,2.4,2.4,5,2.4,7.8c0,0.1,0,0.1,0,0.2
			c0,0.1,0,0.1,0,0.2c0,2.8-0.9,5.5-2.4,7.8c-0.1,0.2-0.2,0.3-0.3,0.5c-0.2,0.2-0.3,0.5-0.5,0.7c-0.6,1-1,2.3-1,3.6
			c0,4,3.4,7.2,7.5,6.9c3.5-0.2,6.2-3,6.5-6.5c0.1-1.5-0.3-2.9-1-4.1c-0.1-0.2-0.3-0.4-0.4-0.6c-0.1-0.1-0.2-0.3-0.3-0.4
			c-1.6-2.4-2.5-5.1-2.5-8c0-0.1,0-0.1,0-0.2c0-0.1,0-0.1,0-0.2c0-2.9,0.9-5.6,2.5-8C30.5,24.2,30.6,24.1,30.7,24z"/>
		<ellipse class="st0" cx="80" cy="32.5" rx="7" ry="6.9"/>
		<path class="st0" d="M67.5,23.8c0.1-0.2,0.2-0.3,0.3-0.5c0.6-1,1-2.3,1-3.6c0-4-3.4-7.2-7.5-6.9c-3.5,0.2-6.2,3-6.5,6.5
			c-0.1,1.5,0.3,2.9,1,4.1c0.1,0.1,0.2,0.3,0.3,0.4c0.3,0.5,0.7,0.9,1,1.4c1.2,2.2,1.9,4.6,1.9,7.1c0,0.1,0,0.1,0,0.2
			c0,0.1,0,0.1,0,0.2c0,2.5-0.7,4.9-1.9,7.1c-0.3,0.5-0.6,1-1,1.4c-0.1,0.1-0.2,0.3-0.3,0.4c-0.7,1.2-1.1,2.6-1,4.1
			c0.2,3.4,3,6.2,6.5,6.5c4.1,0.3,7.5-2.9,7.5-6.9c0-1.3-0.4-2.5-1-3.6c-0.1-0.2-0.2-0.3-0.3-0.5c-0.4-0.6-0.9-1.2-1.2-1.9
			c-1.1-2.1-1.7-4.3-1.7-6.6c0-0.1,0-0.1,0-0.2c0-0.1,0-0.1,0-0.2c0-2.3,0.6-4.6,1.7-6.6C66.6,25,67,24.4,67.5,23.8z"/>
		<path class="st0" d="M49.1,11c0.1-0.1,0.2-0.3,0.3-0.4c0.7-1.2,1.1-2.6,1-4.1C50.2,3,47.4,0.3,44,0c-4.1-0.3-7.5,2.9-7.5,6.9
			c0,1.3,0.4,2.5,1,3.6c0.1,0.2,0.2,0.3,0.3,0.5c0.4,0.6,0.9,1.2,1.2,1.9c1.1,2.1,1.7,4.3,1.7,6.6c0,0.1,0,0.1,0,0.2
			c0,0.1,0,0.1,0,0.2c0,2.3-0.6,4.6-1.7,6.6c-0.4,0.7-0.8,1.3-1.2,1.9c-0.1,0.2-0.2,0.3-0.3,0.5c-0.6,0.9-0.9,2-1,3.2
			c0,0.1,0,0.1,0,0.2c0,0.1,0,0.1,0,0.2c0,0,0,0,0,0c0,0,0,0,0,0c0,0.1,0,0.1,0,0.2c0,0.1,0,0.1,0,0.2c0.1,1.2,0.4,2.3,1,3.2
			c0.1,0.2,0.2,0.3,0.3,0.5c0.4,0.6,0.9,1.2,1.2,1.9c1.1,2.1,1.7,4.3,1.7,6.6c0,0.1,0,0.1,0,0.2c0,0.1,0,0.1,0,0.2
			c0,2.3-0.6,4.6-1.7,6.6c-0.4,0.7-0.8,1.3-1.2,1.9c-0.1,0.2-0.2,0.3-0.3,0.5c-0.6,1-1,2.3-1,3.6c0,4,3.4,7.2,7.5,6.9
			c3.5-0.2,6.2-3,6.5-6.5c0.1-1.5-0.3-2.9-1-4.1c-0.1-0.1-0.2-0.3-0.3-0.4c-0.3-0.5-0.7-0.9-1-1.4c-1.2-2.2-1.9-4.6-1.9-7.1
			c0-0.1,0-0.1,0-0.2c0-0.1,0-0.1,0-0.2c0-2.5,0.7-4.9,1.9-7.1c0.3-0.5,0.6-1,1-1.4c0.1-0.1,0.2-0.3,0.3-0.4c0.7-1.1,1-2.3,1-3.7
			c0-1.3-0.4-2.6-1-3.7c-0.1-0.1-0.2-0.3-0.3-0.4c-0.3-0.5-0.7-0.9-1-1.4c-1.2-2.2-1.9-4.6-1.9-7.1c0-0.1,0-0.1,0-0.2
			c0-0.1,0-0.1,0-0.2c0-2.5,0.7-4.9,1.9-7.1C48.5,11.9,48.8,11.4,49.1,11z"/>
	</g>
</g>
</svg>
