<?xml version="1.0" encoding="utf-8"?>
<!-- Generator: Adobe Illustrator 23.0.1, SVG Export Plug-In . SVG Version: 6.00 Build 0)  -->
<svg version="1.1" id="Layer_1" xmlns="http://www.w3.org/2000/svg" xmlns:xlink="http://www.w3.org/1999/xlink" x="0px" y="0px"
	 viewBox="0 0 1920 1160" style="enable-background:new 0 0 1920 1160;" xml:space="preserve">
<style type="text/css">
	.st0{fill:#6F2C90;}
	.st1{fill:#A2D9DA;}
</style>
<g>
	<path class="st0" d="M1570,700H350C164,700,10.8,553,0.5,369.5C0.2,376,0,382.5,0,389v421c0,192.5,157.5,350,350,350h1220
		c192.5,0,350-157.5,350-350V389c0-6.5-0.2-13-0.5-19.5C1909.2,553,1756,700,1570,700z"/>
	<path class="st1" d="M1570,0H350C157.5,0,0,157.5,0,350v0c0,6.5,0.2,13,0.5,19.5C10.8,553,164,700,350,700h1220
		c186,0,339.2-147,349.5-330.5c0.4-6.5,0.5-13,0.5-19.5v0C1920,157.5,1762.5,0,1570,0z"/>
</g>
</svg>
