<?xml version="1.0" encoding="UTF-8"?>
<svg width="478px" height="520px" viewBox="0 0 478 520" version="1.1" xmlns="http://www.w3.org/2000/svg" xmlns:xlink="http://www.w3.org/1999/xlink">
    <!-- Generator: Sketch 52.6 (67491) - http://www.bohemiancoding.com/sketch -->
    <title>discord</title>
    <desc>Created with Sketch.</desc>
    <defs>
        <filter x="-2.6%" y="-2.3%" width="105.1%" height="104.7%" filterUnits="objectBoundingBox" id="filter-1">
            <feOffset dx="0" dy="2" in="SourceAlpha" result="shadowOffsetOuter1"></feOffset>
            <feGaussianBlur stdDeviation="2" in="shadowOffsetOuter1" result="shadowBlurOuter1"></feGaussianBlur>
            <feColorMatrix values="0 0 0 0 0   0 0 0 0 0   0 0 0 0 0  0 0 0 0.5 0" type="matrix" in="shadowBlurOuter1" result="shadowMatrixOuter1"></feColorMatrix>
            <feMerge>
                <feMergeNode in="shadowMatrixOuter1"></feMergeNode>
                <feMergeNode in="SourceGraphic"></feMergeNode>
            </feMerge>
        </filter>
    </defs>
    <g id="Page-1" stroke="none" stroke-width="1" fill="none" fill-rule="evenodd">
        <g id="discord" filter="url(#filter-1)" transform="translate(4.000000, 2.000000)" fill="#FFFFFF">
            <path d="M55.04,452.181333 L359.232,452.181333 L344.704,405.141333 L379.456,434.965333 L411.306667,463.509333 L469.333333,512 L469.333333,52.8 C467.882667,24.256 443.306667,0 412.842667,0 L55.1466667,0.064 C24.704,0.064 0,24.3626667 0,52.9066667 L0,399.36 C0,429.461333 24.6613333,452.181333 55.04,452.181333 Z M117.269333,148.309333 C156.373333,119.850667 192.618667,121.216 192.618667,121.216 L195.541333,124.096 C147.690667,135.509333 125.994667,156.885333 125.994667,156.885333 C125.994667,156.885333 131.797333,154.048 141.930667,149.717333 C206.378667,124.373333 276.757333,126.208 341.909333,158.293333 C341.909333,158.293333 320.170667,138.304 275.264,125.504 L279.232,121.6 C285.44,121.621333 318.293333,122.773333 353.450667,148.48 C353.450667,148.48 392.789333,215.68 392.789333,298.24 C391.488,296.661333 368.384,333.781333 308.928,335.061333 C308.928,335.061333 298.858667,323.669333 291.690667,313.728 C326.464,303.744 339.477333,283.776 339.477333,283.776 C328.064,290.965333 317.653333,295.232 309.205333,299.498667 C296.213333,305.216 283.2,308.032 270.208,310.912 C208.682667,320.896 174.144,304.192 141.504,290.944 L130.346667,285.269333 C130.346667,285.269333 143.338667,305.237333 176.725333,315.221333 C167.957333,325.226667 159.274667,336.597333 159.274667,336.597333 C99.84,335.189333 78.1653333,298.069333 78.1653333,298.069333 C78.1653333,215.381333 117.269333,148.309333 117.269333,148.309333 Z" id="Shape" fill-rule="nonzero"></path>
            <path d="M283.904,272.448 C299.072,272.448 311.424,259.648 311.424,243.861333 C311.424,228.181333 299.136,215.381333 283.904,215.381333 L283.904,215.445333 C268.8,215.445333 256.426667,228.202667 256.384,243.989333 C256.384,259.648 268.736,272.448 283.904,272.448 Z" id="Path"></path>
            <path d="M185.386667,272.448 C200.554667,272.448 212.906667,259.648 212.906667,243.861333 C212.906667,228.181333 200.64,215.381333 185.472,215.381333 L185.386667,215.445333 C170.218667,215.445333 157.866667,228.202667 157.866667,243.989333 C157.866667,259.648 170.218667,272.448 185.386667,272.448 Z" id="Path"></path>
        </g>
    </g>
</svg>