<?xml version="1.0" encoding="utf-8"?>
<!-- Generator: Adobe Illustrator 23.0.1, SVG Export Plug-In . SVG Version: 6.00 Build 0)  -->
<svg version="1.1" id="Layer_1" xmlns="http://www.w3.org/2000/svg" xmlns:xlink="http://www.w3.org/1999/xlink" x="0px" y="0px"
	 viewBox="0 0 455 360" style="enable-background:new 0 0 455 360;" xml:space="preserve">
<style type="text/css">
	.st0{fill:#FFFFFF;}
	.st1{fill:#6F2C90;}
	.st2{fill:#F1F1F1;}
	.st3{fill:#CBCBCB;}
	.st4{fill:#284294;}
	.st5{fill:#A1D8D9;}
	.st6{fill:#6E308B;}
</style>
<g>
	<g>
		<path class="st0" d="M274.7,315.2L64.3,359.7c-13.7,2.9-25-12.9-25-35.1V37.4c0-22.2,11.2-39,25-37.3l210.4,26.8
			c13.7,1.8,25,17,25,33.9v218.3C299.7,296,288.4,312.3,274.7,315.2z"/>
		<g>
			<g>
				<path class="st1" d="M114.3,176l-97,3.9C7.8,180.3,0,167.6,0,151.7v0c0-15.9,7.8-28.9,17.3-28.8l97,1.1
					c9.5,0.1,17.3,11.7,17.3,25.8v0C131.6,163.8,123.8,175.7,114.3,176z"/>
			</g>
			<g>
				<path class="st0" d="M38,160.7l-2.4,0.1v-8.7l-3.1,0v8.8l-2.4,0.1v-20.1l2.4,0v7.9l3.1,0v-7.9l2.4,0V160.7z"/>
				<path class="st0" d="M42.8,145.2c1.1,0,1.9,0.6,2.4,1.8c0.6,1.2,0.9,2.9,0.9,5v2l-4.5,0.1c0,1.3,0.2,2.3,0.5,2.9
					c0.3,0.6,0.7,0.9,1.3,0.9c0.4,0,0.8-0.1,1.1-0.3c0.4-0.2,0.7-0.5,1.1-0.9v3c-0.7,0.7-1.6,1.1-2.6,1.1c-1.3,0-2.2-0.6-2.8-2
					c-0.6-1.4-0.9-3.3-0.9-5.7c0-2.6,0.3-4.5,0.9-5.9C40.8,145.9,41.6,145.2,42.8,145.2z M42.8,148c-0.4,0-0.7,0.3-0.9,0.8
					c-0.2,0.5-0.3,1.4-0.4,2.6l2.4,0c0-1.1-0.1-1.9-0.3-2.5C43.5,148.3,43.2,148,42.8,148z"/>
				<path class="st0" d="M49.6,160.7c-0.9,0-1.6-0.7-2.1-2c-0.5-1.4-0.7-3.3-0.7-5.8c0-2.5,0.2-4.4,0.7-5.8c0.5-1.4,1.1-2.1,2-2.1
					c0.9,0,1.6,0.7,2.1,2.2l0.1,0c0-0.6,0-1.1-0.1-1.5c0-0.4,0-0.8,0-1.1v-5.2l2.2,0v20.9l-1.8,0l-0.3-1.6l-0.1,0
					c-0.3,0.7-0.6,1.2-0.9,1.5C50.4,160.6,50,160.7,49.6,160.7z M50.3,157.7c0.4,0,0.8-0.4,1-1.1c0.2-0.7,0.3-1.8,0.3-3.3v-0.9
					c0-1.5-0.1-2.6-0.3-3.3c-0.2-0.7-0.5-1-1-1c-0.8,0-1.2,1.6-1.2,4.7C49.1,156.1,49.5,157.7,50.3,157.7z"/>
				<path class="st0" d="M57.8,145c0.4,0,0.8,0.2,1.1,0.5c0.3,0.3,0.6,0.9,0.8,1.7l0.1,0l0.2-1.9l1.9,0v14.2c0,2.3-0.3,4.2-1,5.4
					c-0.6,1.3-1.7,1.9-3.1,2c-1,0-1.8-0.3-2.6-1v-3.2c0.5,0.4,0.9,0.7,1.3,0.8c0.4,0.2,0.8,0.2,1.2,0.2c0.6,0,1-0.3,1.4-0.7
					c0.3-0.5,0.5-1.3,0.5-2.4v-0.3c0-0.3,0-0.7,0-1.1c0-0.4,0-0.8,0.1-1.1l-0.1,0c-0.3,0.8-0.5,1.4-0.9,1.7
					c-0.3,0.4-0.7,0.6-1.2,0.6c-0.9,0-1.5-0.6-2-2c-0.5-1.3-0.7-3.2-0.7-5.7c0-2.5,0.2-4.4,0.7-5.8C56.2,145.7,56.9,145,57.8,145z
					 M58.4,148.1c-0.8,0-1.2,1.6-1.2,4.8c0,1.6,0.1,2.7,0.3,3.4c0.2,0.7,0.5,1.1,0.9,1.1c0.4,0,0.8-0.3,1-1c0.2-0.7,0.3-1.7,0.3-3.1
					v-0.7c0-1.6-0.1-2.7-0.3-3.4C59.2,148.4,58.9,148.1,58.4,148.1z"/>
				<path class="st0" d="M66.6,144.9c1.1,0,1.9,0.6,2.4,1.8c0.6,1.2,0.9,2.8,0.9,4.9v2l-4.5,0.1c0,1.3,0.2,2.3,0.5,2.9
					c0.3,0.6,0.7,0.9,1.3,0.9c0.4,0,0.8-0.1,1.1-0.3c0.4-0.2,0.7-0.5,1.1-0.9v2.9c-0.7,0.7-1.6,1.1-2.6,1.1c-1.3,0-2.2-0.6-2.8-2
					c-0.6-1.4-0.9-3.2-0.9-5.6c0-2.5,0.3-4.4,0.9-5.8C64.6,145.6,65.5,145,66.6,144.9z M66.6,147.7c-0.4,0-0.7,0.3-0.9,0.8
					c-0.2,0.5-0.3,1.4-0.4,2.6l2.4,0c0-1.1-0.1-1.9-0.3-2.5C67.3,148,67,147.7,66.6,147.7z"/>
				<path class="st0" d="M82.3,159.7l-2.8,0.1l-3.6-13.3l-0.1,0c0,0.9,0.1,1.8,0.1,2.5c0,0.8,0,1.4,0,2v8.9l-2.2,0.1v-19.3l2.8,0
					l3.6,13.1l0.1,0c0-0.9-0.1-1.7-0.1-2.4c0-0.7,0-1.4,0-1.9v-8.7l2.2,0V159.7z"/>
				<path class="st0" d="M90.8,152.2c0,1.3-0.1,2.6-0.4,3.8c-0.2,1.2-0.6,2.1-1.1,2.8c-0.5,0.7-1.2,1.1-2.1,1.1c-0.8,0-1.5-0.3-2-1
					c-0.5-0.7-0.9-1.6-1.2-2.8c-0.3-1.2-0.4-2.4-0.4-3.8c0-1.5,0.1-2.8,0.4-3.9c0.2-1.1,0.6-2,1.2-2.7c0.5-0.6,1.2-1,2.1-1
					c1.1,0,2,0.6,2.6,1.9C90.4,147.9,90.8,149.8,90.8,152.2z M85.9,152.3c0,1.5,0.1,2.7,0.3,3.4c0.2,0.8,0.5,1.2,1,1.2
					c0.5,0,0.8-0.4,1-1.2c0.2-0.8,0.3-1.9,0.3-3.5c0-1.5-0.1-2.7-0.3-3.4c-0.2-0.8-0.5-1.1-1-1.1c-0.5,0-0.8,0.4-1,1.1
					C86,149.6,85.9,150.7,85.9,152.3z"/>
				<path class="st0" d="M97.8,159.3l-0.8-7.2c-0.1-0.6-0.1-1.2-0.2-1.9c-0.1-0.7-0.1-1.3-0.2-1.9l-0.1,0c-0.1,0.6-0.1,1.3-0.2,2
					c-0.1,0.7-0.1,1.3-0.2,1.8l-0.9,7.3l-2.6,0.1l-2-14.5l2.2,0l0.7,5.6c0.1,0.7,0.2,1.5,0.2,2.4c0.1,0.9,0.1,1.7,0.2,2.5l0.1,0
					c0-0.7,0.1-1.4,0.2-2.1c0.1-0.8,0.2-1.6,0.3-2.5l0.7-5.8l2.6,0l0.7,5.8c0.1,0.8,0.2,1.5,0.2,2.3c0.1,0.8,0.1,1.5,0.2,2.2l0.1,0
					c0-0.6,0.1-1.3,0.1-2.1c0.1-0.7,0.1-1.5,0.2-2.2l0.8-6.1l2.2,0l-2,14.4L97.8,159.3z"/>
			</g>
		</g>
		<g>
			<g>
				<path class="st2" d="M277.4,113.9l-215.8-5.4c-6.6-0.2-12-9-12-19.5v0c0-10.6,5.4-18.9,12-18.5l215.8,13.1
					c6.6,0.4,12,7.5,12,15.7v0C289.4,107.5,284,114.1,277.4,113.9z"/>
			</g>
			<g>
				<path class="st3" d="M117.2,96.7l-54-2.1c-1.8-0.1-3.2-2.4-3.2-5.2v0c0-2.8,1.4-5,3.2-4.9l54,2.6c1.8,0.1,3.2,2.3,3.2,4.9v0
					C120.4,94.7,118.9,96.8,117.2,96.7z"/>
			</g>
			<g>
				<path class="st3" d="M117.2,57.6l-54-4.2c-1.8-0.1-3.2-2.5-3.2-5.3v0c0-2.8,1.4-5,3.2-4.8l54,4.7c1.8,0.2,3.2,2.4,3.2,5.1v0
					C120.4,55.7,118.9,57.8,117.2,57.6z"/>
			</g>
			<g>
				<path class="st3" d="M187.1,63l-54-4.2c-1.8-0.1-3.2-2.4-3.2-5v0c0-2.6,1.4-4.6,3.2-4.5l54,4.7c1.8,0.2,3.2,2.3,3.2,4.7v0
					C190.3,61.3,188.9,63.2,187.1,63z"/>
			</g>
			<g>
				<path class="st4" d="M279,102.9l-145.8-5.6c-1.8-0.1-3.2-2.3-3.2-4.9v0c0-2.6,1.4-4.7,3.2-4.6l145.8,7c1.8,0.1,3.2,2,3.2,4.2v0
					C282.2,101.2,280.7,102.9,279,102.9z"/>
			</g>
			<g>
				<path class="st5" d="M270.7,98.2c0,4.1-2.6,7.3-5.8,7.2c-3.2-0.1-5.8-3.6-5.8-7.7s2.6-7.3,5.8-7.2
					C268.1,90.7,270.7,94.2,270.7,98.2z"/>
			</g>
		</g>
		<g>
			<g>
				<path class="st1" d="M125.2,316.5l-97,17.6c-9.5,1.7-17.3-9.8-17.3-25.5v0c0-15.8,7.8-29.7,17.3-30.9l97-12.6
					c9.5-1.2,17.3,9.1,17.3,23v0C142.5,302,134.7,314.8,125.2,316.5z"/>
			</g>
			<g>
				<path class="st0" d="M33.1,314.7v-20l2.4-0.3V311l3.3-0.5v3.3L33.1,314.7z"/>
				<path class="st0" d="M42.6,297.7c1.1-0.2,1.9,0.3,2.4,1.5c0.6,1.2,0.9,2.8,0.9,4.9v2l-4.5,0.7c0,1.3,0.2,2.3,0.5,2.9
					c0.3,0.6,0.7,0.8,1.3,0.7c0.4-0.1,0.8-0.2,1.1-0.4c0.4-0.2,0.7-0.6,1.1-1v3c-0.7,0.8-1.6,1.3-2.6,1.5c-1.3,0.2-2.2-0.3-2.8-1.6
					c-0.6-1.3-0.9-3.2-0.9-5.6c0-2.6,0.3-4.6,0.9-6C40.6,298.7,41.5,297.9,42.6,297.7z M42.7,300.5c-0.4,0.1-0.7,0.4-0.9,0.9
					c-0.2,0.6-0.3,1.5-0.4,2.7l2.4-0.4c0-1.1-0.1-1.9-0.3-2.5C43.3,300.7,43,300.5,42.7,300.5z"/>
				<path class="st0" d="M48.4,312.2l-2.6-14.7l2.3-0.3l1.1,7.8c0.1,1,0.3,2.1,0.3,3.2l0.1,0c0-0.4,0-0.9,0.1-1.4
					c0.1-0.5,0.1-1.1,0.2-1.7l1.1-8.4l2.3-0.3l-2.6,15.5L48.4,312.2z"/>
				<path class="st0" d="M57.1,295.5c1.1-0.2,1.9,0.3,2.4,1.5c0.6,1.1,0.9,2.7,0.9,4.8v2l-4.5,0.7c0,1.3,0.2,2.3,0.5,2.8
					c0.3,0.6,0.7,0.8,1.3,0.7c0.4-0.1,0.8-0.2,1.1-0.4c0.4-0.2,0.7-0.6,1.1-1v3c-0.7,0.8-1.6,1.3-2.6,1.5c-1.3,0.2-2.2-0.3-2.8-1.6
					c-0.6-1.3-0.9-3.1-0.9-5.5c0-2.5,0.3-4.5,0.9-6C55.1,296.5,56,295.7,57.1,295.5z M57.1,298.3c-0.4,0.1-0.7,0.4-0.9,0.9
					c-0.2,0.6-0.3,1.5-0.4,2.7l2.4-0.4c0-1.1-0.1-1.9-0.3-2.4C57.8,298.5,57.5,298.3,57.1,298.3z"/>
				<path class="st0" d="M65.6,294.2c0.2,0,0.5,0,0.8,0.1l-0.2,3.8c-0.2-0.1-0.5-0.1-0.8-0.1c-0.5,0.1-0.9,0.5-1.2,1.2
					c-0.3,0.7-0.4,1.7-0.4,2.8v7.6l-2.2,0.4v-14.9l1.7-0.3l0.3,2.4l0.1,0c0.2-0.7,0.4-1.4,0.8-2C64.7,294.6,65.1,294.3,65.6,294.2z"
					/>
				<path class="st0" d="M70.1,293.6c0.9-0.1,1.6,0.2,2.1,1c0.5,0.8,0.7,2.1,0.7,3.8v9.8l-1.6,0.3l-0.4-1.9l-0.1,0
					c-0.3,0.8-0.6,1.4-1,1.9c-0.4,0.4-0.8,0.7-1.4,0.8c-0.5,0.1-1-0.1-1.3-0.5c-0.3-0.4-0.5-0.9-0.7-1.6c-0.1-0.7-0.2-1.4-0.2-2.2
					c0-1.5,0.3-2.8,0.8-3.6c0.5-0.9,1.3-1.4,2.3-1.7l1.2-0.3v-0.6c0-1.6-0.3-2.4-1-2.3c-0.6,0.1-1.2,0.5-1.9,1.3l-0.6-2.5
					C67.9,294.3,68.9,293.7,70.1,293.6z M70.7,301.7l-0.6,0.2c-0.9,0.2-1.4,1.1-1.4,2.5c0,1.3,0.3,1.9,0.8,1.8
					c0.4-0.1,0.6-0.4,0.9-1c0.2-0.6,0.3-1.3,0.3-2.2V301.7z"/>
				<path class="st0" d="M76.8,292.5c0.4-0.1,0.8,0,1.1,0.3c0.3,0.3,0.6,0.8,0.8,1.5l0.1,0l0.2-1.9l1.9-0.3v13.9
					c0,2.3-0.3,4.1-1,5.5c-0.6,1.4-1.7,2.2-3.1,2.4c-1,0.2-1.8,0-2.6-0.6v-3.1c0.5,0.3,0.9,0.5,1.3,0.6c0.4,0.1,0.8,0.1,1.2,0.1
					c0.6-0.1,1-0.4,1.4-0.9c0.3-0.5,0.5-1.3,0.5-2.4v-0.3c0-0.3,0-0.7,0-1.1c0-0.4,0-0.8,0.1-1.1l-0.1,0c-0.3,0.8-0.5,1.4-0.9,1.8
					c-0.3,0.4-0.7,0.7-1.2,0.7c-0.9,0.1-1.5-0.4-2-1.7c-0.5-1.2-0.7-3.1-0.7-5.5c0-2.4,0.2-4.4,0.7-5.8
					C75.3,293.5,76,292.7,76.8,292.5z M77.5,295.5c-0.8,0.1-1.2,1.8-1.2,4.9c0,1.5,0.1,2.6,0.3,3.3c0.2,0.7,0.5,1,0.9,0.9
					c0.4-0.1,0.8-0.5,1-1.1c0.2-0.7,0.3-1.7,0.3-3.1v-0.7c0-1.6-0.1-2.7-0.3-3.3C78.3,295.7,78,295.4,77.5,295.5z"/>
				<path class="st0" d="M85.6,291.3c1.1-0.2,1.9,0.3,2.4,1.4c0.6,1.1,0.9,2.7,0.9,4.7v1.9l-4.5,0.7c0,1.3,0.2,2.2,0.5,2.8
					c0.3,0.6,0.7,0.8,1.3,0.7c0.4-0.1,0.8-0.2,1.1-0.4c0.4-0.2,0.7-0.6,1.1-1v2.9c-0.7,0.8-1.6,1.3-2.6,1.4
					c-1.3,0.2-2.2-0.3-2.8-1.5c-0.6-1.2-0.9-3-0.9-5.4c0-2.5,0.3-4.4,0.9-5.8C83.7,292.2,84.5,291.4,85.6,291.3z M85.7,294
					c-0.4,0.1-0.7,0.4-0.9,0.9c-0.2,0.6-0.3,1.4-0.4,2.6l2.4-0.4c0-1-0.1-1.8-0.3-2.4C86.3,294.2,86.1,293.9,85.7,294z"/>
				<path class="st0" d="M101.3,303.5l-2.8,0.5L95,291.4l-0.1,0c0,0.9,0.1,1.7,0.1,2.5s0,1.4,0,1.9v8.8l-2.2,0.4V286l2.8-0.4
					l3.6,12.3l0.1,0c0-0.9-0.1-1.7-0.1-2.4c0-0.7,0-1.3,0-1.9v-8.6l2.2-0.3V303.5z"/>
				<path class="st0" d="M109.8,295c0,1.3-0.1,2.6-0.4,3.7c-0.2,1.2-0.6,2.1-1.1,2.9c-0.5,0.8-1.2,1.2-2.1,1.4
					c-0.8,0.1-1.5-0.1-2-0.7c-0.5-0.6-0.9-1.4-1.2-2.5c-0.3-1.1-0.4-2.3-0.4-3.7c0-1.5,0.1-2.8,0.4-3.9c0.2-1.1,0.6-2.1,1.2-2.8
					c0.5-0.7,1.2-1.1,2.1-1.3c1.1-0.2,2,0.3,2.6,1.5C109.5,290.8,109.8,292.6,109.8,295z M104.9,295.8c0,1.5,0.1,2.6,0.3,3.3
					c0.2,0.7,0.5,1.1,1,1s0.8-0.5,1-1.3c0.2-0.8,0.3-2,0.3-3.5c0-1.5-0.1-2.6-0.3-3.3c-0.2-0.7-0.5-1-1-1c-0.5,0.1-0.8,0.5-1,1.3
					C105,293.1,104.9,294.2,104.9,295.8z"/>
				<path class="st0" d="M116.9,301l-0.8-7c-0.1-0.6-0.1-1.2-0.2-1.9c-0.1-0.7-0.1-1.3-0.2-1.8l-0.1,0c-0.1,0.6-0.1,1.3-0.2,2
					c-0.1,0.7-0.1,1.3-0.2,1.8l-0.9,7.3l-2.6,0.4l-2-13.9l2.2-0.3l0.7,5.4c0.1,0.7,0.2,1.5,0.2,2.3c0.1,0.8,0.1,1.6,0.2,2.4l0.1,0
					c0-0.6,0.1-1.4,0.2-2.1c0.1-0.8,0.2-1.6,0.3-2.5l0.7-5.8l2.6-0.4l0.7,5.6c0.1,0.7,0.2,1.5,0.2,2.3c0.1,0.8,0.1,1.5,0.2,2.2
					l0.1,0c0-0.6,0.1-1.3,0.1-2c0.1-0.7,0.1-1.5,0.2-2.2l0.8-6.1l2.2-0.3l-2,14.4L116.9,301z"/>
			</g>
		</g>
		<g>
			<g>
				<path class="st2" d="M277.4,233.4l-215.8,25c-6.6,0.8-12-7.3-12-17.8v0c0-10.6,5.4-19.7,12-20.2l215.8-17.3
					c6.6-0.5,12,5.8,12,14v0C289.4,225.3,284,232.6,277.4,233.4z"/>
			</g>
			<g>
				<path class="st3" d="M117.2,238.7l-54,5.5c-1.8,0.2-3.2-2-3.2-4.7v0c0-2.8,1.4-5.2,3.2-5.4l54-5c1.8-0.2,3.2,1.9,3.2,4.5v0
					C120.4,236.2,118.9,238.5,117.2,238.7z"/>
			</g>
			<g>
				<path class="st3" d="M117.2,199.7l-54,3.5c-1.8,0.1-3.2-2.1-3.2-4.9v0c0-2.8,1.4-5.2,3.2-5.3l54-2.9c1.8-0.1,3.2,2,3.2,4.6l0,0
					C120.4,197.3,118.9,199.6,117.2,199.7z"/>
			</g>
			<g>
				<path class="st3" d="M187.1,195.2l-54,3.5c-1.8,0.1-3.2-1.9-3.2-4.5l0,0c0-2.6,1.4-4.8,3.2-4.9l54-2.9c1.8-0.1,3.2,1.8,3.2,4.3
					v0C190.3,193,188.9,195.1,187.1,195.2z"/>
			</g>
			<g>
				<path class="st4" d="M279,222.1l-145.8,15c-1.8,0.2-3.2-1.8-3.2-4.4v0c0-2.6,1.4-4.9,3.2-5L279,214.1c1.8-0.2,3.2,1.5,3.2,3.7v0
					C282.2,220,280.7,221.9,279,222.1z"/>
			</g>
			<g>
				<path class="st5" d="M165.1,228.9c0,4.6-2.6,8.6-5.8,8.9s-5.8-3.1-5.8-7.8s2.6-8.6,5.8-8.9C162.5,220.9,165.1,224.4,165.1,228.9
					z"/>
			</g>
		</g>
	</g>
	<g>
		<path class="st2" d="M430,283.3l-89.2,19c-13.7,2.9-25-8.2-25-24.8V67.5c0-16.6,11.2-28.8,25-27.1L430,51.2
			c13.7,1.7,25,14.3,25,28V253C455,266.7,443.8,280.4,430,283.3z"/>
	</g>
	<g>
		<path class="st3" d="M378.3,141.1l-46.6,0.4c-1.5,0-2.8-1.5-2.8-3.3v0c0-1.8,1.2-3.3,2.8-3.3l46.6,0c1.5,0,2.8,1.4,2.8,3.1l0,0
			C381.1,139.7,379.9,141,378.3,141.1z"/>
	</g>
	<path class="st3" d="M430,167.1l-33.1,1.5c-4.8,0.2-8.8-3.9-8.8-9.3v0c0-5.3,4-9.7,8.8-9.8l33.1-0.7c4.8-0.1,8.8,3.9,8.8,8.8v0
		C438.8,162.7,434.8,166.9,430,167.1z"/>
	<g>
		<path class="st4" d="M371.6,169.8l-33.1,1.5c-4.8,0.2-8.8-4.3-8.8-10v0c0-5.7,4-10.5,8.8-10.6l33.1-0.7c4.8-0.1,8.8,4.2,8.8,9.6v0
			C380.4,165,376.5,169.6,371.6,169.8z"/>
	</g>
	<g>
		<path class="st3" d="M378.3,181.8l-46.6,2.9c-1.5,0.1-2.8-1.3-2.8-3.1v0c0-1.8,1.2-3.3,2.8-3.4l46.6-2.5c1.5-0.1,2.8,1.2,2.8,2.9
			l0,0C381.1,180.2,379.9,181.7,378.3,181.8z"/>
	</g>
	<path class="st3" d="M430,205l-33.1,3.3c-4.8,0.5-8.8-3.5-8.8-8.8v0c0-5.3,4-10,8.8-10.3l33.1-2.5c4.8-0.4,8.8,3.4,8.8,8.4v0
		C438.8,200.1,434.8,204.5,430,205z"/>
	<g>
		<path class="st4" d="M371.6,210.9l-33.1,3.3c-4.8,0.5-8.8-3.8-8.8-9.6v0c0-5.7,4-10.7,8.8-11.1l33.1-2.5c4.8-0.4,8.8,3.7,8.8,9.1
			v0C380.4,205.6,376.5,210.4,371.6,210.9z"/>
	</g>
	<g>
		<g>
			<path class="st4" d="M379.2,287l-134.3,27.3c-13.2,2.7-23.9-9.6-23.9-27.3v0c0-17.7,10.8-33.6,23.9-35.4l134.3-17.7
				c13.2-1.7,23.9,8.4,23.9,22.6v0C403.1,270.5,392.4,284.3,379.2,287z"/>
		</g>
		<g>
			<path class="st0" d="M275.1,288.2l-7.7,1.4v-21.8l7.7-1.2v3.5l-4.4,0.7v5.1l4.1-0.7v3.5l-4.1,0.7v5.9l4.4-0.8V288.2z"/>
			<path class="st0" d="M284.6,286.5l-0.9-5l-3.8,0.7l-0.9,5.3l-3.5,0.6l4.1-22.2l4.2-0.7l4.2,20.6L284.6,286.5z M283.2,278.1
				l-0.9-5.5c-0.2-1.4-0.4-2.6-0.5-3.8c-0.1,1.1-0.2,2.4-0.5,3.9l-0.9,5.9L283.2,278.1z"/>
			<path class="st0" d="M293,263.9c3.7-0.6,5.6,1.2,5.6,5.2c0,1.3-0.2,2.4-0.6,3.4c-0.4,1-1,1.9-1.8,2.7l3.5,8.6l-3.6,0.6l-2.8-7.8
				l-1,0.2v8.3l-3.3,0.6v-21.2L293,263.9z M292.9,267.3l-0.7,0.1v6.2l0.7-0.1c1.5-0.2,2.2-1.5,2.2-3.7
				C295.2,267.9,294.5,267.1,292.9,267.3z"/>
			<path class="st0" d="M312.4,281.5l-3.8,0.7l-5-13.7l-0.1,0c0.1,1,0.1,1.9,0.1,2.7c0,0.8,0,1.5,0,2.1v9.7l-3.1,0.5v-20.9l3.8-0.6
				l5,13.4l0.1,0c0-1-0.1-1.8-0.1-2.6c0-0.8,0-1.5,0-2.1v-9.4l3.1-0.5V281.5z"/>
			<path class="st0" d="M330.4,278.3l-3.8,0.7l-5-13.3l-0.1,0c0.1,1,0.1,1.9,0.1,2.7c0,0.8,0,1.5,0,2.1v9.5l-3.1,0.5v-20.5l3.8-0.6
				l5,13.1l0.1,0c0-0.9-0.1-1.8-0.1-2.5c0-0.8,0-1.4,0-2v-9.2l3.1-0.5V278.3z"/>
			<path class="st0" d="M342.1,268.5c0,1.4-0.2,2.7-0.5,4c-0.3,1.3-0.9,2.3-1.6,3.2c-0.7,0.9-1.7,1.4-2.9,1.6
				c-1.1,0.2-2.1,0-2.8-0.6c-0.7-0.6-1.3-1.5-1.6-2.6c-0.4-1.2-0.5-2.5-0.5-3.9c0-1.6,0.2-3,0.5-4.2c0.3-1.2,0.9-2.3,1.6-3.1
				c0.7-0.8,1.7-1.3,2.9-1.5c1.5-0.2,2.7,0.2,3.6,1.4C341.6,264.1,342.1,266,342.1,268.5z M335.3,269.7c0,1.6,0.1,2.8,0.4,3.5
				c0.3,0.8,0.7,1.1,1.4,1s1.1-0.6,1.4-1.5c0.3-0.9,0.4-2.1,0.4-3.8c0-1.6-0.1-2.8-0.4-3.5c-0.3-0.8-0.7-1.1-1.4-1
				c-0.6,0.1-1.1,0.6-1.4,1.4C335.4,266.8,335.3,268.1,335.3,269.7z"/>
			<path class="st0" d="M351.9,274.4l-1.2-7.4c-0.1-0.6-0.2-1.3-0.2-2c-0.1-0.7-0.2-1.3-0.2-1.9l-0.1,0c-0.1,0.7-0.2,1.4-0.2,2.1
				c-0.1,0.7-0.2,1.4-0.2,1.9l-1.2,7.8l-3.5,0.6l-2.7-14.7l3.1-0.5l0.9,5.7c0.1,0.7,0.2,1.5,0.3,2.4c0.1,0.9,0.2,1.7,0.2,2.6l0.1,0
				c0.1-0.7,0.1-1.4,0.2-2.3c0.1-0.8,0.2-1.7,0.4-2.7l1-6.2l3.6-0.6l1,5.9c0.1,0.8,0.2,1.6,0.3,2.4c0.1,0.8,0.2,1.6,0.2,2.3l0.1,0
				c0-0.7,0.1-1.4,0.2-2.2c0.1-0.8,0.2-1.6,0.3-2.4l1.1-6.5l3.1-0.5l-2.8,15.4L351.9,274.4z"/>
		</g>
	</g>
	<g>
		<g>
			<path class="st2" d="M415.8,118.3l-66-1.6c-12.7-0.3-23-12.9-23-27.9v0c0-15.1,10.4-26.4,23-25.2l66,6.1
				c12.7,1.2,23,12.7,23,25.7v0C438.8,108.2,428.4,118.6,415.8,118.3z"/>
		</g>
		<path class="st0" d="M376.7,107.5l-32.5-1.2c-4.7-0.2-8.6-4.9-8.6-10.5v0c0-5.6,3.9-9.9,8.6-9.6l32.5,2c4.7,0.3,8.6,4.8,8.6,10.1
			v0C385.3,103.6,381.4,107.7,376.7,107.5z"/>
		<path class="st3" d="M383.3,82.3l-45.7-3.3c-1.5-0.1-2.7-1.6-2.7-3.4v0c0-1.8,1.2-3.1,2.7-3l45.7,3.6c1.5,0.1,2.7,1.6,2.7,3.2v0
			C386,81.2,384.8,82.4,383.3,82.3z"/>
		<g>
			<path class="st4" d="M402.9,108.5l-0.7,0c-4.7-0.2-8.5-4.5-8.5-9.5v0c0-5.1,3.8-9,8.5-8.7l0.7,0c4.7,0.3,8.5,4.6,8.5,9.5v0
				C411.4,104.7,407.6,108.7,402.9,108.5z"/>
		</g>
		<g>
			<path class="st6" d="M423.9,109.3l-0.7,0c-4.7-0.2-8.5-4.3-8.5-9.3v0c0-4.9,3.8-8.7,8.5-8.4l0.7,0c4.7,0.3,8.5,4.5,8.5,9.3v0
				C432.3,105.6,428.5,109.4,423.9,109.3z"/>
		</g>
	</g>
</g>
</svg>
