<?xml version="1.0" encoding="utf-8"?>
<!-- Generator: Adobe Illustrator 23.0.1, SVG Export Plug-In . SVG Version: 6.00 Build 0)  -->
<svg version="1.1" id="Layer_1" xmlns="http://www.w3.org/2000/svg" xmlns:xlink="http://www.w3.org/1999/xlink" x="0px" y="0px"
	 viewBox="0 0 600 425" style="enable-background:new 0 0 600 425;" xml:space="preserve">
<style type="text/css">
	.st0{fill:#FFFFFF;}
	.st1{fill:#6F2C90;}
	.st2{fill:#F1F1F1;}
	.st3{fill:#CBCBCB;}
	.st4{fill:#284294;}
	.st5{fill:#A1D8D9;}
	.st6{fill:#6E308B;}
</style>
<g>
	<g>
		<path class="st0" d="M370,408L76.9,386.3c-13.8-1-25.2-14.7-25.2-30.4V73c0-15.7,11.3-29.6,25.2-31L370,12.4
			c13.8-1.4,25.2,12.6,25.2,31v332.9C395.2,394.8,383.8,409,370,408z"/>
		<g>
			<g>
				<path class="st1" d="M150.7,211.3l-127.9,1.8C10.3,213.3,0,202.1,0,188.3v0c0-13.8,10.3-25.5,22.8-26l127.9-5.2
					c12.5-0.5,22.8,11.4,22.8,26.5v0C173.5,198.6,163.3,211.1,150.7,211.3z"/>
			</g>
			<g>
				<path class="st0" d="M50.2,195.8l-3.1,0.1v-8l-4,0.1v8l-3.1,0.1v-18.3l3.1-0.1v7.3l4-0.1v-7.3l3.1-0.1V195.8z"/>
				<path class="st0" d="M56.4,181.3c1.4,0,2.5,0.5,3.2,1.6c0.8,1.1,1.1,2.7,1.1,4.6v1.9l-5.9,0.2c0,1.2,0.2,2.1,0.6,2.7
					c0.4,0.6,1,0.9,1.8,0.8c0.5,0,1-0.1,1.5-0.3c0.5-0.2,1-0.4,1.5-0.8v2.8c-1,0.7-2.1,1-3.4,1.1c-1.7,0-3-0.6-3.7-1.8
					c-0.8-1.3-1.1-3-1.1-5.3c0-2.4,0.4-4.2,1.1-5.5C53.8,182,54.9,181.3,56.4,181.3z M56.5,183.9c-0.5,0-0.9,0.3-1.2,0.8
					c-0.3,0.5-0.5,1.3-0.5,2.5l3.2-0.1c0-1-0.1-1.8-0.4-2.3C57.3,184.2,56.9,183.9,56.5,183.9z"/>
				<path class="st0" d="M65.4,195.7c-1.2,0-2.1-0.6-2.7-1.9c-0.6-1.3-0.9-3.1-0.9-5.4c0-2.3,0.3-4.1,0.9-5.4c0.6-1.3,1.5-2,2.6-2
					c1.2,0,2.1,0.6,2.7,2l0.1,0c0-0.5-0.1-1-0.1-1.4c0-0.4,0-0.7,0-1v-4.9l3-0.1v19.8l-2.4,0.1l-0.4-1.5l-0.2,0
					c-0.4,0.6-0.7,1.1-1.1,1.4C66.5,195.5,66,195.7,65.4,195.7z M66.3,192.9c0.6,0,1-0.4,1.3-1c0.3-0.7,0.4-1.7,0.4-3.1v-0.8
					c0-1.4-0.1-2.4-0.4-3.1c-0.3-0.6-0.7-1-1.3-0.9c-1,0-1.6,1.5-1.6,4.4C64.7,191.4,65.2,192.9,66.3,192.9z"/>
				<path class="st0" d="M76.2,180.7c0.6,0,1.1,0.1,1.5,0.4c0.4,0.3,0.8,0.8,1.1,1.6l0.2,0l0.3-1.8l2.5-0.1v13.6
					c0,2.3-0.4,4-1.3,5.2c-0.8,1.2-2.2,1.9-4.1,1.9c-1.3,0-2.4-0.3-3.4-0.9v-3c0.6,0.4,1.2,0.6,1.7,0.8c0.5,0.2,1.1,0.2,1.6,0.2
					c0.8,0,1.4-0.2,1.8-0.7c0.4-0.4,0.6-1.2,0.6-2.3v-0.3c0-0.3,0-0.6,0-1c0-0.4,0-0.7,0.1-1.1l-0.1,0c-0.3,0.8-0.7,1.3-1.1,1.7
					c-0.4,0.4-1,0.5-1.6,0.6c-1.1,0-2-0.6-2.6-1.9c-0.6-1.3-1-3-1-5.4c0-2.4,0.3-4.2,1-5.5C74.1,181.4,75,180.7,76.2,180.7z
					 M77.1,183.6c-1,0-1.5,1.6-1.5,4.6c0,1.5,0.1,2.6,0.4,3.3c0.3,0.7,0.7,1,1.2,1c0.6,0,1-0.3,1.3-1c0.3-0.6,0.4-1.6,0.4-2.9v-0.7
					c0-1.5-0.1-2.6-0.4-3.3C78.1,183.9,77.7,183.6,77.1,183.6z"/>
				<path class="st0" d="M87.8,180.3c1.4,0,2.5,0.5,3.2,1.7c0.8,1.2,1.1,2.7,1.1,4.7v1.9l-5.9,0.2c0,1.3,0.2,2.2,0.6,2.8
					c0.4,0.6,1,0.9,1.8,0.8c0.5,0,1-0.1,1.5-0.3c0.5-0.2,1-0.5,1.5-0.9v2.8c-1,0.7-2.1,1-3.4,1.1c-1.7,0-3-0.6-3.7-1.9
					c-0.8-1.3-1.1-3.1-1.1-5.3c0-2.4,0.4-4.3,1.1-5.6C85.2,181.1,86.3,180.4,87.8,180.3z M87.9,183c-0.5,0-0.9,0.3-1.2,0.8
					c-0.3,0.5-0.5,1.4-0.5,2.5l3.2-0.1c0-1-0.1-1.8-0.4-2.4C88.7,183.3,88.4,183,87.9,183z"/>
				<path class="st0" d="M108.5,194.5l-3.7,0.1l-4.8-13l-0.1,0c0.1,0.9,0.1,1.7,0.1,2.5c0,0.7,0,1.4,0,1.9v8.7l-2.9,0.1v-18.8
					l3.6-0.1l4.7,12.7l0.1,0c0-0.9-0.1-1.7-0.1-2.4c0-0.7,0-1.3,0-1.9v-8.6l2.9-0.1V194.5z"/>
				<path class="st0" d="M119.7,186.9c0,1.4-0.2,2.6-0.5,3.8c-0.3,1.2-0.8,2.1-1.5,2.8c-0.7,0.7-1.6,1.1-2.8,1.1c-1.1,0-2-0.3-2.7-1
					c-0.7-0.7-1.2-1.6-1.5-2.7c-0.3-1.1-0.5-2.4-0.5-3.8c0-1.5,0.2-2.8,0.5-3.9c0.3-1.1,0.8-2,1.5-2.7c0.7-0.7,1.6-1,2.7-1
					c1.4,0,2.6,0.6,3.4,1.8C119.3,182.6,119.7,184.4,119.7,186.9z M113.2,187.1c0,1.5,0.1,2.6,0.4,3.4c0.3,0.8,0.7,1.2,1.3,1.1
					s1-0.4,1.3-1.2c0.3-0.8,0.4-1.9,0.4-3.5c0-1.5-0.1-2.7-0.4-3.4c-0.3-0.8-0.7-1.1-1.3-1.1c-0.6,0-1,0.4-1.3,1.2
					C113.4,184.3,113.2,185.5,113.2,187.1z"/>
				<path class="st0" d="M129,194l-1.1-7.3c-0.1-0.6-0.2-1.3-0.2-1.9c-0.1-0.7-0.1-1.3-0.2-1.9l-0.1,0c-0.1,0.6-0.2,1.3-0.2,2
					c-0.1,0.7-0.2,1.3-0.2,1.8l-1.2,7.4l-3.4,0.1l-2.6-14.5l3-0.1l0.9,5.6c0.1,0.7,0.2,1.5,0.3,2.4c0.1,0.9,0.2,1.7,0.2,2.5l0.1,0
					c0.1-0.7,0.1-1.4,0.2-2.2c0.1-0.8,0.2-1.6,0.4-2.6l1-5.9l3.4-0.1l0.9,5.9c0.1,0.8,0.2,1.6,0.3,2.4c0.1,0.8,0.2,1.5,0.2,2.3
					l0.1,0c0-0.6,0.1-1.3,0.2-2.1c0.1-0.8,0.2-1.5,0.3-2.3l1-6.3l2.9-0.1l-2.7,14.8L129,194z"/>
			</g>
		</g>
		<g>
			<g>
				<path class="st2" d="M366.5,131.9l-286,13.7c-8.3,0.4-15.1-7-15.1-16.5v-1.6c0-9.5,6.8-17.7,15.1-18.2l286-19
					c8.3-0.6,15.1,8,15.1,19v1.9C381.6,122.2,374.8,131.5,366.5,131.9z"/>
			</g>
			<g>
				<path class="st3" d="M154.7,128.2l-71.6,3.9c-2.2,0.1-4-1.9-4-4.4v-0.4c0-2.5,1.8-4.7,4-4.9l71.6-4.3c2.2-0.1,4,1.9,4,4.6v0.5
					C158.7,125.9,156.9,128.1,154.7,128.2z"/>
			</g>
			<g>
				<path class="st3" d="M154.7,87.3l-71.6,5.3c-2.2,0.2-4-1.8-4-4.3v-0.4c0-2.5,1.8-4.8,4-5l71.6-5.7c2.2-0.2,4,1.8,4,4.5v0.5
					C158.7,84.9,156.9,87.2,154.7,87.3z"/>
			</g>
			<g>
				<path class="st3" d="M247,80.4l-71.6,5.3c-2.2,0.2-4-1.9-4-4.5v-0.5c0-2.7,1.8-5,4-5.2l71.6-5.7c2.2-0.2,4,1.9,4,4.7v0.5
					C251,77.9,249.2,80.3,247,80.4z"/>
			</g>
			<g>
				<path class="st4" d="M368.1,116.6l-192.7,10.5c-2.2,0.1-4-2-4-4.6V122c0-2.7,1.8-5,4-5.1l192.7-11.5c2.2-0.1,4,2.2,4,5.1v0.5
					C372.1,113.9,370.3,116.4,368.1,116.6z"/>
			</g>
			<g>
				<path class="st5" d="M357,111.3c0,5.5-3.4,10.2-7.6,10.4c-4.2,0.2-7.6-4.1-7.6-9.6s3.4-10.2,7.6-10.4
					C353.6,101.5,357,105.8,357,111.3z"/>
			</g>
		</g>
		<g>
			<g>
				<path class="st1" d="M165.2,360.7l-127.9-7.5c-12.5-0.7-22.8-12.7-22.8-26.6v0c0-13.9,10.3-25,22.8-24.6l127.9,4.1
					c12.5,0.4,22.8,13.2,22.8,28.3v0C187.9,349.6,177.7,361.4,165.2,360.7z"/>
			</g>
			<g>
				<path class="st0" d="M43.7,336.7v-18.3l3.1,0.1v15.3l4.3,0.2v3.1L43.7,336.7z"/>
				<path class="st0" d="M56.2,323c1.4,0.1,2.5,0.7,3.2,1.9c0.8,1.2,1.1,2.8,1.1,4.7v1.9l-5.9-0.3c0,1.2,0.2,2.2,0.6,2.8
					c0.4,0.6,1,0.9,1.8,1c0.5,0,1,0,1.5-0.2c0.5-0.1,1-0.4,1.5-0.7v2.8c-1,0.6-2.1,0.9-3.4,0.8c-1.7-0.1-3-0.8-3.7-2.1
					c-0.8-1.3-1.1-3.1-1.1-5.3c0-2.4,0.4-4.2,1.1-5.4C53.6,323.5,54.7,322.9,56.2,323z M56.3,325.6c-0.5,0-0.9,0.2-1.2,0.7
					c-0.3,0.5-0.5,1.3-0.5,2.4l3.2,0.1c0-1-0.1-1.8-0.4-2.4C57.1,325.9,56.7,325.6,56.3,325.6z"/>
				<path class="st0" d="M63.9,337.7l-3.4-14.3l3.1,0.1l1.4,7.6c0.2,1,0.3,2,0.4,3.1l0.1,0c0-0.4,0.1-0.8,0.1-1.3
					c0.1-0.5,0.2-1,0.3-1.5l1.5-7.6l3.1,0.1l-3.4,14.1L63.9,337.7z"/>
				<path class="st0" d="M75.3,323.8c1.4,0.1,2.5,0.7,3.2,1.9c0.8,1.2,1.1,2.8,1.1,4.8v1.9l-5.9-0.3c0,1.3,0.2,2.2,0.6,2.8
					c0.4,0.6,1,0.9,1.8,1c0.5,0,1,0,1.5-0.2c0.5-0.1,1-0.4,1.5-0.7v2.8c-1,0.6-2.1,0.9-3.4,0.8c-1.7-0.1-3-0.8-3.7-2.1
					c-0.8-1.3-1.1-3.1-1.1-5.4c0-2.4,0.4-4.2,1.1-5.5C72.7,324.3,73.8,323.7,75.3,323.8z M75.3,326.4c-0.5,0-0.9,0.2-1.2,0.7
					c-0.3,0.5-0.5,1.3-0.5,2.5l3.2,0.1c0-1-0.1-1.8-0.4-2.4C76.2,326.8,75.8,326.5,75.3,326.4z"/>
				<path class="st0" d="M86.5,324.2c0.3,0,0.6,0.1,1,0.2l-0.3,3.6c-0.3-0.1-0.6-0.2-1-0.2c-0.7,0-1.2,0.3-1.6,0.9
					c-0.4,0.6-0.5,1.5-0.5,2.6v7.3l-3-0.1v-14.3l2.3,0.1l0.4,2.4l0.1,0c0.2-0.7,0.6-1.3,1-1.8C85.4,324.4,85.9,324.2,86.5,324.2z"/>
				<path class="st0" d="M92.4,324.5c1.2,0.1,2.1,0.5,2.8,1.4c0.6,0.9,0.9,2.2,0.9,3.9v9.5l-2.2-0.1l-0.5-1.9l-0.1,0
					c-0.4,0.7-0.8,1.2-1.3,1.6c-0.5,0.3-1.1,0.5-1.8,0.4c-0.7,0-1.3-0.3-1.7-0.7c-0.4-0.4-0.7-1-0.9-1.7c-0.2-0.7-0.3-1.4-0.3-2.2
					c0-1.5,0.4-2.6,1.1-3.3c0.7-0.7,1.7-1.1,3.1-1.1l1.5,0v-0.6c0-1.6-0.5-2.4-1.4-2.4c-0.7,0-1.6,0.3-2.5,0.9l-0.8-2.6
					C89.6,324.7,90.9,324.4,92.4,324.5z M93.2,332.5l-0.8,0c-1.2,0-1.9,0.7-1.9,2.1c0,1.3,0.4,1.9,1.1,2c0.5,0,0.9-0.2,1.1-0.7
					c0.3-0.5,0.4-1.2,0.4-2.1V332.5z"/>
				<path class="st0" d="M101.3,324.8c0.6,0,1.1,0.2,1.5,0.5c0.4,0.3,0.8,0.9,1.1,1.7l0.2,0l0.2-1.8l2.5,0.1v13.8
					c0,2.3-0.4,4-1.3,5.2c-0.8,1.2-2.2,1.7-4.1,1.6c-1.3-0.1-2.4-0.5-3.4-1.2v-3c0.6,0.4,1.2,0.7,1.7,0.9c0.5,0.2,1.1,0.3,1.6,0.3
					c0.8,0,1.4-0.2,1.8-0.6c0.4-0.4,0.6-1.2,0.6-2.2v-0.3c0-0.3,0-0.6,0-1c0-0.4,0-0.7,0.1-1.1l-0.1,0c-0.3,0.7-0.7,1.3-1.1,1.6
					c-0.4,0.3-1,0.5-1.6,0.4c-1.1-0.1-2-0.7-2.6-2.1c-0.6-1.3-1-3.2-1-5.5c0-2.4,0.3-4.2,1-5.5C99.3,325.4,100.2,324.8,101.3,324.8z
					 M102.2,327.9c-1,0-1.5,1.5-1.5,4.6c0,1.5,0.1,2.6,0.4,3.3c0.3,0.7,0.7,1.1,1.2,1.1c0.6,0,1-0.3,1.3-0.9c0.3-0.6,0.4-1.6,0.4-3
					v-0.7c0-1.5-0.1-2.7-0.4-3.4C103.3,328.3,102.8,327.9,102.2,327.9z"/>
				<path class="st0" d="M112.9,325.4c1.4,0.1,2.5,0.7,3.2,1.9c0.8,1.2,1.1,2.8,1.1,4.8v1.9l-5.9-0.3c0,1.3,0.2,2.2,0.6,2.8
					c0.4,0.6,1,1,1.8,1c0.5,0,1,0,1.5-0.2c0.5-0.1,1-0.4,1.5-0.8v2.9c-1,0.6-2.1,0.9-3.4,0.8c-1.7-0.1-3-0.8-3.7-2.2
					c-0.8-1.4-1.1-3.2-1.1-5.5c0-2.4,0.4-4.3,1.1-5.6C110.3,325.9,111.5,325.3,112.9,325.4z M113,328.1c-0.5,0-0.9,0.2-1.2,0.7
					c-0.3,0.5-0.5,1.3-0.5,2.5l3.2,0.1c0-1-0.1-1.8-0.4-2.4C113.9,328.4,113.5,328.1,113,328.1z"/>
				<path class="st0" d="M133.6,341.2L130,341l-4.8-13.6l-0.1,0c0.1,0.9,0.1,1.8,0.1,2.5c0,0.8,0,1.4,0,2v8.9l-2.9-0.1v-19.1
					l3.6,0.1l4.7,13.3l0.1,0c0-0.9-0.1-1.7-0.1-2.4c0-0.7,0-1.4,0-1.9v-8.7l2.9,0.1V341.2z"/>
				<path class="st0" d="M144.8,334.3c0,1.4-0.2,2.6-0.5,3.8c-0.3,1.2-0.8,2.1-1.5,2.7c-0.7,0.7-1.6,1-2.8,0.9
					c-1.1-0.1-2-0.4-2.7-1.2c-0.7-0.7-1.2-1.7-1.5-2.9c-0.3-1.2-0.5-2.5-0.5-3.8c0-1.5,0.2-2.8,0.5-3.9c0.3-1.1,0.8-2,1.5-2.6
					c0.7-0.6,1.6-0.9,2.7-0.9c1.4,0.1,2.6,0.8,3.4,2.1C144.4,329.9,144.8,331.8,144.8,334.3z M138.3,334.1c0,1.5,0.1,2.7,0.4,3.5
					c0.3,0.8,0.7,1.2,1.3,1.2c0.6,0,1-0.3,1.3-1.1c0.3-0.8,0.4-1.9,0.4-3.5c0-1.5-0.1-2.7-0.4-3.5c-0.3-0.8-0.7-1.2-1.3-1.2
					s-1,0.3-1.3,1.1C138.5,331.3,138.3,332.5,138.3,334.1z"/>
				<path class="st0" d="M154.1,342.2l-1.1-7.5c-0.1-0.6-0.2-1.3-0.2-2c-0.1-0.7-0.1-1.3-0.2-1.9l-0.1,0c-0.1,0.6-0.2,1.3-0.2,2
					c-0.1,0.7-0.2,1.3-0.2,1.8l-1.2,7.4l-3.4-0.2l-2.6-14.9l3,0.1l0.9,5.7c0.1,0.7,0.2,1.6,0.3,2.4c0.1,0.9,0.2,1.7,0.2,2.6l0.1,0
					c0.1-0.7,0.1-1.4,0.2-2.2c0.1-0.8,0.2-1.6,0.4-2.6l1-5.9l3.4,0.1l0.9,6c0.1,0.8,0.2,1.6,0.3,2.4c0.1,0.8,0.2,1.6,0.2,2.3l0.1,0
					c0-0.7,0.1-1.4,0.2-2.1c0.1-0.8,0.2-1.5,0.3-2.3l1-6.3l2.9,0.1l-2.7,14.8L154.1,342.2z"/>
			</g>
		</g>
		<g>
			<g>
				<path class="st2" d="M366.5,296.1l-286-7.1c-8.3-0.2-15.1-8.1-15.1-17.6v-1.6c0-9.5,6.8-17.2,15.1-17.1l286,1.8
					c8.3,0.1,15.1,9.1,15.1,20.1v1.9C381.6,287.5,374.8,296.3,366.5,296.1z"/>
			</g>
			<g>
				<path class="st3" d="M154.7,277.1l-71.6-1.3c-2.2,0-4-2.2-4-4.7v-0.4c0-2.5,1.8-4.6,4-4.6l71.6,0.9c2.2,0,4,2.2,4,4.9v0.5
					C158.7,275,156.9,277.1,154.7,277.1z"/>
			</g>
			<g>
				<path class="st3" d="M154.7,236.1l-71.6,0.1c-2.2,0-4-2.1-4-4.6v-0.4c0-2.5,1.8-4.6,4-4.7l71.6-0.5c2.2,0,4,2.1,4,4.8v0.5
					C158.7,234,156.9,236.1,154.7,236.1z"/>
			</g>
			<g>
				<path class="st3" d="M247,236l-71.6,0.1c-2.2,0-4-2.2-4-4.8v-0.5c0-2.7,1.8-4.9,4-4.9l71.6-0.5c2.2,0,4,2.2,4,5v0.5
					C251,233.7,249.2,235.9,247,236z"/>
			</g>
			<g>
				<path class="st4" d="M368.1,280.9l-192.7-3.5c-2.2,0-4-2.3-4-4.9v-0.5c0-2.7,1.8-4.8,4-4.8l192.7,2.5c2.2,0,4,2.4,4,5.4v0.5
					C372.1,278.6,370.3,280.9,368.1,280.9z"/>
			</g>
			<g>
				<path class="st5" d="M217.7,272.7c0,5.2-3.4,9.3-7.6,9.3c-4.2-0.1-7.6-4.3-7.6-9.5s3.4-9.3,7.6-9.3
					C214.3,263.2,217.7,267.5,217.7,272.7z"/>
			</g>
		</g>
	</g>
	<g>
		<path class="st2" d="M574.8,425l-133.2-10c-13.8-1-25.2-17.1-25.2-35.7V49.3c0-18.6,11.3-35,25.2-36.3l133.2-13
			c13.8-1.3,25.2,14,25.2,34.1v356.1C600,410.4,588.7,426,574.8,425z"/>
	</g>
	<g>
		<path class="st3" d="M498.9,166.2l-61.5,1.9c-2,0.1-3.6-2.1-3.6-4.8l0,0c0-2.7,1.6-5,3.6-5.1l61.5-2.2c2-0.1,3.6,2.2,3.6,5v0
			C502.6,163.8,500.9,166.1,498.9,166.2z"/>
	</g>
	<path class="st3" d="M567,212.4l-43.7,0.5c-6.4,0.1-11.6-7.2-11.6-16.1v0c0-8.9,5.2-16.4,11.6-16.6l43.7-1.1
		c6.4-0.2,11.6,7.2,11.6,16.4v0C578.6,204.7,573.4,212.3,567,212.4z"/>
	<g>
		<path class="st4" d="M490,213.2l-43.7,0.5c-6.4,0.1-11.6-7-11.6-15.6v0c0-8.7,5.2-15.9,11.6-16L490,181c6.4-0.2,11.6,7,11.6,15.9
			v0C501.6,205.8,496.4,213.2,490,213.2z"/>
	</g>
	<g>
		<path class="st3" d="M498.9,233.4l-61.5,0.2c-2,0-3.6-2.2-3.6-4.9l0,0c0-2.7,1.6-4.9,3.6-5l61.5-0.4c2,0,3.6,2.3,3.6,5.1v0
			C502.6,231.2,500.9,233.4,498.9,233.4z"/>
	</g>
	<path class="st3" d="M567,281.5l-43.7-0.7c-6.4-0.1-11.6-7.5-11.6-16.5v0c0-8.9,5.2-16.2,11.6-16.2l43.7,0.1
		c6.4,0,11.6,7.6,11.6,16.8v0C578.6,274.2,573.4,281.7,567,281.5z"/>
	<g>
		<path class="st4" d="M490,280.3l-43.7-0.7c-6.4-0.1-11.6-7.3-11.6-15.9v0c0-8.7,5.2-15.7,11.6-15.7L490,248
			c6.4,0,11.6,7.3,11.6,16.2v0C501.6,273.2,496.4,280.4,490,280.3z"/>
	</g>
	<g>
		<g>
			<path class="st4" d="M506.4,408l-189.9-13.3c-13.8-1-25.2-16.2-25.2-33.8v-16.2c0-17.6,11.3-31.6,25.2-31.2l189.9,6.3
				c13.8,0.5,25.2,16.8,25.2,36.4v18C531.6,393.8,520.3,409,506.4,408z"/>
		</g>
		<g>
			<path class="st0" d="M362.8,370.7l-10.1-0.6v-29.4l10.1,0.5v4.8l-5.8-0.3v6.9l5.4,0.3v4.8l-5.4-0.3v8l5.8,0.3V370.7z"/>
			<path class="st0" d="M375.3,371.5l-1.2-7.2l-5-0.3l-1.2,7.1l-4.6-0.3l5.4-29.3l5.6,0.2l5.5,30L375.3,371.5z M373.4,359.3
				l-1.2-7.9c-0.3-2-0.5-3.8-0.6-5.3c-0.1,1.5-0.3,3.3-0.6,5.2l-1.2,7.9L373.4,359.3z"/>
			<path class="st0" d="M386.3,342.3c4.9,0.2,7.4,3.2,7.4,9c0,1.8-0.3,3.4-0.8,4.7c-0.5,1.3-1.3,2.4-2.4,3.2l4.6,13.4l-4.8-0.3
				l-3.7-11.9l-1.3-0.1v11.7l-4.3-0.2V342L386.3,342.3z M386.3,347.1l-0.9,0v8.8l1,0c2,0.1,2.9-1.4,2.9-4.5
				C389.3,348.6,388.3,347.2,386.3,347.1z"/>
			<path class="st0" d="M412,373.6l-5.1-0.3l-6.6-21.3l-0.1,0c0.1,1.5,0.1,2.8,0.2,4c0,1.2,0.1,2.2,0.1,3.1v13.9l-4-0.2v-30l5,0.2
				l6.5,20.8l0.1,0c-0.1-1.4-0.1-2.7-0.2-3.8c0-1.1-0.1-2.1-0.1-3v-13.7l4.1,0.2V373.6z"/>
			<path class="st0" d="M435.6,375l-5.1-0.3l-6.6-21.5l-0.1,0c0.1,1.5,0.1,2.8,0.2,4c0,1.2,0.1,2.2,0.1,3.1v14.1l-4-0.2v-30.3l5,0.2
				l6.5,21.1l0.1,0c-0.1-1.4-0.1-2.7-0.2-3.9c0-1.2-0.1-2.2-0.1-3.1v-13.9l4.1,0.2V375z"/>
			<path class="st0" d="M451.1,364c0,2.2-0.2,4.2-0.6,6c-0.4,1.8-1.1,3.3-2.1,4.4c-1,1.1-2.2,1.6-3.8,1.5c-1.5-0.1-2.7-0.7-3.7-1.9
				c-1-1.2-1.7-2.7-2.1-4.6c-0.5-1.9-0.7-3.9-0.7-6.1c0-2.4,0.2-4.4,0.7-6.2c0.5-1.8,1.2-3.2,2.1-4.2c1-1,2.2-1.4,3.8-1.4
				c2,0.1,3.6,1.2,4.8,3.3C450.5,357.1,451.1,360.1,451.1,364z M442.2,363.6c0,2.4,0.2,4.3,0.6,5.6c0.4,1.3,1,1.9,1.8,2
				c0.8,0,1.4-0.5,1.8-1.8c0.4-1.2,0.6-3.1,0.6-5.6c0-2.5-0.2-4.3-0.6-5.6c-0.4-1.2-1-1.9-1.8-1.9c-0.8,0-1.4,0.5-1.8,1.7
				C442.3,359.2,442.2,361.1,442.2,363.6z"/>
			<path class="st0" d="M464,376.6l-1.5-12c-0.1-1-0.2-2-0.3-3.1c-0.1-1.1-0.2-2.1-0.3-3.1l-0.1,0c-0.1,1-0.2,2.1-0.3,3.2
				c-0.1,1.1-0.2,2.1-0.3,2.9l-1.6,11.8l-4.7-0.3l-3.6-23.7l4.1,0.2l1.2,9.1c0.1,1.2,0.3,2.5,0.4,3.9c0.1,1.4,0.2,2.8,0.3,4.1l0.1,0
				c0.1-1.1,0.2-2.2,0.3-3.5c0.1-1.2,0.3-2.6,0.5-4.1l1.3-9.3l4.7,0.2l1.3,9.6c0.1,1.3,0.3,2.6,0.4,3.9c0.1,1.3,0.2,2.5,0.3,3.7
				l0.1,0c0-1,0.1-2.2,0.2-3.4c0.1-1.2,0.2-2.4,0.4-3.6l1.4-10l4,0.2l-3.7,23.5L464,376.6z"/>
		</g>
	</g>
	<g>
		<g>
			<path class="st2" d="M553.4,124.5l-97.4,4.6c-13.8,0.7-25.2-14.1-25.2-32.9V82.2c0-18.7,11.3-35,25.2-36.1l97.4-8.1
				c13.8-1.1,25.2,14.2,25.2,34.1v15C578.6,107,567.3,123.8,553.4,124.5z"/>
		</g>
		<path class="st0" d="M497.7,111l-44.9,2.4c-5.7,0.3-10.4-5.8-10.4-13.6v-2.7c0-7.8,4.7-14.4,10.4-14.8l44.9-3
			c5.7-0.4,10.4,5.8,10.4,13.8v2.8C508.1,103.9,503.4,110.6,497.7,111z"/>
		<path class="st3" d="M505.7,68.1l-60.9,4.4c-1.8,0.1-3.3-1.8-3.3-4.2v-0.9c0-2.4,1.5-4.5,3.3-4.7l60.9-4.6
			c1.8-0.1,3.3,1.8,3.3,4.3v0.9C509,65.8,507.5,68,505.7,68.1z"/>
		<g>
			<path class="st4" d="M532.3,109.1l-2.9,0.2c-5.6,0.3-10.2-5.9-10.2-13.7v-2.8c0-7.9,4.6-14.6,10.2-15l2.9-0.2
				c5.6-0.4,10.2,5.8,10.2,13.7v2.8C542.5,102,537.9,108.8,532.3,109.1z"/>
		</g>
		<g>
			<path class="st6" d="M560,107.6l-2.9,0.2c-5.6,0.3-10.2-6-10.2-13.9V91c0-8,4.6-14.8,10.2-15.1l2.9-0.2
				c5.6-0.4,10.2,5.9,10.2,13.9v2.8C570.1,100.5,565.5,107.3,560,107.6z"/>
		</g>
	</g>
</g>
</svg>
