<?xml version="1.0" encoding="UTF-8"?>
<svg width="512px" height="352px" viewBox="0 0 512 352" version="1.1" xmlns="http://www.w3.org/2000/svg" xmlns:xlink="http://www.w3.org/1999/xlink">
    <!-- Generator: Sketch 52.6 (67491) - http://www.bohemiancoding.com/sketch -->
    <title>email</title>
    <desc>Created with Sketch.</desc>
    <g id="Page-1" stroke="none" stroke-width="1" fill="none" fill-rule="evenodd">
        <g id="email" fill="#FFFFFF">
            <polygon id="Path" points="339.392 178.624 512 287.744 512 64.896"></polygon>
            <polygon id="Path" points="0 64.896 0 287.744 172.608 178.624"></polygon>
            <path d="M480,0 L32,0 C16.032,0 3.36,11.904 0.96,27.232 L256,195.264 L511.04,27.232 C508.64,11.904 495.968,0 480,0 Z" id="Path"></path>
            <path d="M310.08,197.952 L264.8,227.776 C262.112,229.536 259.072,230.4 256,230.4 C252.928,230.4 249.888,229.536 247.2,227.776 L201.92,197.92 L1.024,324.992 C3.488,340.192 16.096,352 32,352 L480,352 C495.904,352 508.512,340.192 510.976,324.992 L310.08,197.952 Z" id="Path"></path>
        </g>
    </g>
</svg>