<?xml version="1.0" encoding="utf-8"?>
<!-- Generator: Adobe Illustrator 23.0.1, SVG Export Plug-In . SVG Version: 6.00 Build 0)  -->
<svg version="1.1" id="Layer_1" xmlns="http://www.w3.org/2000/svg" xmlns:xlink="http://www.w3.org/1999/xlink" x="0px" y="0px"
	 viewBox="0 0 567 383" style="enable-background:new 0 0 567 383;" xml:space="preserve">
<style type="text/css">
	.st0{fill:#FFFFFF;}
	.st1{fill:#6F2C90;}
	.st2{fill:#F1F1F2;}
	.st3{fill:#A2D9DA;}
	.st4{fill:#224099;}
	.st5{font-family:'WorkSans-Regular';}
	.st6{font-size:12.9813px;}
	.st7{fill:none;stroke:#F1F1F2;stroke-width:0.7151;stroke-miterlimit:10;}
	.st8{fill:#284294;}
	.st9{fill:#A1D8D9;}
	.st10{fill:#6E308B;}
	.st11{fill:#F2F2F2;}
	.st12{fill:#F1F1F1;}
	.st13{fill:#CBCBCB;}
	.st14{fill:none;stroke:#9F66A9;stroke-width:1.9965;stroke-miterlimit:10;}
</style>
<g>
	<g>
		<g>
			<path class="st0" d="M557.84,1.32L370.18,0.5c-4.94-0.02-8.97,3.96-8.99,8.89v0c-0.02,4.93-4.05,8.91-8.99,8.89L9.25,16.78
				c-4.94-0.02-8.98,3.96-9,8.89l0.5,345.56c-0.02,4.93,3.97,8.94,8.91,8.96l528.6,2.31c4.94,0.02,8.97-3.96,8.99-8.89l1.32-302.72
				c0.02-4.93,4.05-8.91,8.99-8.89h0c4.94,0.02,8.97-3.96,8.99-8.89l0.19-42.84C566.77,5.36,562.78,1.34,557.84,1.32z"/>
			
				<ellipse transform="matrix(5.621778e-03 -1 1 5.621778e-03 360.0294 384.5065)" class="st1" cx="373.35" cy="11.22" rx="4.28" ry="4.3"/>
			
				<ellipse transform="matrix(5.621777e-03 -1 1 5.621777e-03 511.0679 537.7311)" class="st2" cx="525.92" cy="11.89" rx="4.28" ry="4.3"/>
			
				<ellipse transform="matrix(5.621777e-03 -1 1 5.621777e-03 525.959 552.8378)" class="st3" cx="540.96" cy="11.96" rx="4.28" ry="4.3"/>
			
				<ellipse transform="matrix(5.621777e-03 -1 1 5.621777e-03 540.8501 567.9445)" class="st4" cx="556" cy="12.02" rx="4.28" ry="4.3"/>
			<path class="st2" d="M490.46,16.73l-101.04-0.44c-2.94-0.01-5.34-2.43-5.33-5.37l0-0.01c0.01-2.94,2.43-5.34,5.37-5.33
				l101.04,0.44c2.94,0.01,5.34,2.43,5.33,5.37l0,0.01C495.82,14.35,493.4,16.75,490.46,16.73z"/>
		</g>
		<g>
			
				<ellipse transform="matrix(5.621777e-03 -1 1 5.621777e-03 5.8979 77.5999)" class="st1" cx="41.97" cy="35.83" rx="8.92" ry="8.95"/>
			<text transform="matrix(1.0032 4.388215e-03 -4.366107e-03 1 37.0649 40.3128)" class="st0 st5 st6">→</text>
		</g>
		<g>
			
				<ellipse transform="matrix(5.621777e-03 -1 1 5.621777e-03 -16.7933 54.5802)" class="st1" cx="19.05" cy="35.73" rx="8.92" ry="8.95"/>
			<text transform="matrix(-1.0032 -3.655200e-03 3.626793e-03 -1 23.9538 31.2812)" class="st0 st5 st6">→</text>
		</g>
		<path class="st2" d="M342.44,43.93l-274.39-1.2c-4.32-0.02-7.83-3.57-7.81-7.88l0-0.01c0.02-4.32,3.57-7.83,7.88-7.81l274.39,1.2
			c4.32,0.02,7.83,3.57,7.81,7.88l0,0.01C350.3,40.43,346.76,43.95,342.44,43.93z"/>
		<line class="st7" x1="10.03" y1="50.33" x2="552.96" y2="52.71"/>
	</g>
	<g>
		<g>
			<path class="st8" d="M539.83,58.03L539.83,58.03c0,22.23-22.6,40.42-38.46,40.42H54.44c-15.87,0-41.92-18.19-41.92-40.42v0
				H539.83z"/>
			<path class="st9" d="M256.94,85.36H203.1c-3.07,0-5.58-2.51-5.58-5.58v-0.01c0-3.07,2.51-5.58,5.58-5.58h53.85
				c3.07,0,5.58,2.51,5.58,5.58v0.01C262.52,82.85,260.01,85.36,256.94,85.36z"/>
			<path class="st9" d="M335.79,85.36h-53.85c-3.07,0-5.58-2.51-5.58-5.58v-0.01c0-3.07,2.51-5.58,5.58-5.58h53.85
				c3.07,0,5.58,2.51,5.58,5.58v0.01C341.37,82.85,338.86,85.36,335.79,85.36z"/>
			<path class="st9" d="M414.64,85.36h-53.85c-3.07,0-5.58-2.51-5.58-5.58v-0.01c0-3.07,2.51-5.58,5.58-5.58h53.85
				c3.07,0,5.58,2.51,5.58,5.58v0.01C420.21,82.85,417.7,85.36,414.64,85.36z"/>
			<path class="st10" d="M501.17,85.36h-53.85c-3.07,0-5.58-2.51-5.58-5.58v-0.01c0-3.07,2.51-5.58,5.58-5.58h53.85
				c3.07,0,5.58,2.51,5.58,5.58v0.01C506.75,82.85,504.24,85.36,501.17,85.36z"/>
			<g>
				<g>
					<g>
						<ellipse class="st11" cx="49.8" cy="78.6" rx="2.91" ry="2.92"/>
						<path class="st11" d="M59.74,75c0.06-0.08,0.12-0.17,0.18-0.25c0.3-0.49,0.47-1.08,0.43-1.71c-0.09-1.45-1.26-2.63-2.7-2.73
							c-1.7-0.12-3.12,1.23-3.12,2.91c0,0.55,0.15,1.06,0.41,1.5c0.06,0.11,0.13,0.21,0.21,0.3c0.05,0.06,0.1,0.13,0.14,0.2
							c0.64,1,1,2.12,1,3.31c0,0.03,0,0.06,0,0.08c0,0.03,0,0.06,0,0.08c0,1.19-0.36,2.31-1,3.31c-0.04,0.07-0.09,0.13-0.14,0.2
							c-0.08,0.1-0.14,0.2-0.21,0.3c-0.26,0.44-0.41,0.95-0.41,1.5c0,1.68,1.42,3.03,3.12,2.91c1.45-0.1,2.61-1.28,2.7-2.73
							c0.04-0.63-0.12-1.22-0.43-1.71c-0.05-0.09-0.11-0.17-0.18-0.25c-0.04-0.05-0.08-0.11-0.12-0.17
							c-0.66-1.01-1.03-2.15-1.03-3.35c0-0.03,0-0.05,0-0.08c0-0.03,0-0.05,0-0.08c0-1.2,0.37-2.34,1.03-3.35
							C59.65,75.11,59.69,75.05,59.74,75z"/>
						<ellipse class="st11" cx="80.4" cy="78.6" rx="2.91" ry="2.92"/>
						<path class="st11" d="M75.14,74.91c0.05-0.07,0.09-0.13,0.13-0.2c0.26-0.44,0.41-0.95,0.41-1.5c0-1.68-1.42-3.03-3.12-2.91
							c-1.45,0.1-2.61,1.28-2.7,2.73c-0.04,0.63,0.12,1.22,0.43,1.71c0.04,0.06,0.08,0.12,0.12,0.18c0.14,0.2,0.28,0.39,0.4,0.6
							c0.52,0.92,0.81,1.93,0.81,2.99c0,0.03,0,0.05,0,0.08c0,0.03,0,0.05,0,0.08c0,1.06-0.29,2.07-0.81,2.99
							c-0.12,0.21-0.26,0.41-0.4,0.6c-0.04,0.06-0.08,0.12-0.12,0.18c-0.3,0.49-0.47,1.08-0.43,1.71c0.09,1.45,1.26,2.63,2.7,2.73
							c1.7,0.12,3.12-1.23,3.12-2.91c0-0.55-0.15-1.06-0.41-1.5c-0.04-0.07-0.09-0.14-0.13-0.2c-0.19-0.26-0.37-0.52-0.51-0.8
							c-0.46-0.87-0.71-1.81-0.71-2.8c0-0.03,0-0.06,0-0.08c0-0.03,0-0.06,0-0.08c0-0.99,0.25-1.93,0.71-2.8
							C74.77,75.43,74.96,75.17,75.14,74.91z"/>
						<path class="st11" d="M67.46,69.53c0.04-0.06,0.08-0.12,0.12-0.18c0.3-0.49,0.47-1.08,0.43-1.71
							c-0.09-1.45-1.26-2.63-2.7-2.73c-1.7-0.12-3.12,1.23-3.12,2.91c0,0.55,0.15,1.06,0.41,1.5c0.04,0.07,0.09,0.14,0.13,0.2
							c0.19,0.26,0.37,0.52,0.51,0.8c0.46,0.87,0.71,1.81,0.71,2.8c0,0.03,0,0.06,0,0.08c0,0.03,0,0.06,0,0.08
							c0,0.99-0.25,1.93-0.71,2.8c-0.15,0.28-0.33,0.54-0.51,0.8c-0.05,0.07-0.09,0.13-0.13,0.2c-0.24,0.4-0.38,0.86-0.41,1.35
							c0,0.03,0,0.05,0,0.08c0,0.02,0,0.04,0,0.07c0,0,0,0.01,0,0.01c0,0,0,0.01,0,0.01c0,0.02,0,0.04,0,0.07c0,0.03,0,0.05,0,0.08
							c0.02,0.49,0.17,0.95,0.41,1.35c0.04,0.07,0.09,0.14,0.13,0.2c0.19,0.26,0.37,0.52,0.51,0.8c0.46,0.87,0.71,1.81,0.71,2.8
							c0,0.03,0,0.06,0,0.08c0,0.03,0,0.06,0,0.08c0,0.99-0.25,1.93-0.71,2.8c-0.15,0.28-0.33,0.54-0.51,0.8
							c-0.05,0.07-0.09,0.13-0.13,0.2c-0.26,0.44-0.41,0.95-0.41,1.5c0,1.68,1.42,3.03,3.12,2.91c1.45-0.1,2.61-1.28,2.7-2.73
							c0.04-0.63-0.12-1.22-0.43-1.71c-0.04-0.06-0.08-0.12-0.12-0.18c-0.14-0.2-0.28-0.39-0.4-0.6c-0.52-0.92-0.81-1.93-0.81-2.99
							c0-0.03,0-0.05,0-0.08c0-0.03,0-0.05,0-0.08c0-1.06,0.29-2.07,0.81-2.99c0.12-0.21,0.26-0.41,0.4-0.6
							c0.04-0.06,0.08-0.12,0.12-0.18c0.28-0.45,0.43-0.98,0.43-1.54c0-0.56-0.16-1.09-0.43-1.54c-0.04-0.06-0.08-0.12-0.12-0.18
							c-0.14-0.2-0.28-0.39-0.4-0.6c-0.52-0.92-0.81-1.93-0.81-2.99c0-0.03,0-0.05,0-0.08c0-0.03,0-0.05,0-0.08
							c0-1.06,0.29-2.07,0.81-2.99C67.18,69.92,67.32,69.72,67.46,69.53z"/>
					</g>
					<g>
						<g>
							<g>
								<path class="st11" d="M91.6,67.71c0.45-0.63,1.45-0.94,2.99-0.94l2.39-0.01v1.3h-2.53c-0.66,0.01-1.14,0.16-1.45,0.43
									c-0.31,0.27-0.48,0.74-0.52,1.41l4.5-0.01v1.29h-4.5v3.06h-1.57v-3.44C90.92,69.37,91.15,68.34,91.6,67.71z"/>
								<path class="st11" d="M97.88,68.13v-1.36h1.52v1.36H97.88z M97.88,74.24v-5.49h1.52v5.49H97.88z"/>
								<path class="st11" d="M103.38,68.75c0.72,0.01,1.28,0.15,1.69,0.43c0.4,0.28,0.6,0.81,0.6,1.59v3.47h-1.45v-3.3
									c0-0.38-0.06-0.64-0.19-0.77c-0.12-0.13-0.38-0.2-0.77-0.2l-1.17-0.01v4.28h-1.45v-5.49H103.38z"/>
								<path class="st11" d="M109.03,66.76l3.06,5.37l-0.07-5.37h1.6v7.48h-1.82l-3.22-5.66l0.07,5.66h-1.61v-7.48H109.03z"/>
								<path class="st11" d="M116.31,74.1c-0.36-0.09-0.69-0.29-0.96-0.59c-0.22-0.24-0.38-0.52-0.48-0.83
									c-0.1-0.31-0.16-0.63-0.18-0.96c0-0.03,0-0.07,0-0.1c0-0.03,0-0.07,0-0.1c0-0.05,0-0.1,0-0.14c0-0.05,0-0.09,0.01-0.14
									c0.02-0.31,0.08-0.62,0.18-0.92c0.1-0.3,0.26-0.57,0.47-0.81c0.28-0.31,0.6-0.51,0.96-0.6c0.36-0.09,0.74-0.14,1.13-0.14
									l2.11-0.01v1.15h-1.91c-0.4,0.01-0.73,0.07-0.97,0.18c-0.24,0.11-0.37,0.4-0.39,0.86l3.27-0.01v1.15h-3.27
									c0.01,0.48,0.14,0.77,0.36,0.87c0.23,0.1,0.55,0.16,0.98,0.16l1.93-0.01v1.15h-2.11C117.05,74.24,116.67,74.2,116.31,74.1z"
									/>
								<path class="st11" d="M119.86,68.75h1.69l1.18,1.66l1.21-1.66h1.67l-2.03,2.78l2,2.71h-1.69l-1.16-1.59l-1.17,1.59h-1.68
									l2.02-2.74L119.86,68.75z"/>
								<path class="st11" d="M128.47,74.24c-0.7,0-1.26-0.14-1.67-0.42c-0.41-0.28-0.61-0.81-0.61-1.58v-3.49h1.45v3.36
									c0,0.37,0.07,0.61,0.21,0.74c0.14,0.12,0.39,0.19,0.74,0.19l1.17-0.01v-4.28h1.45v5.49H128.47z"/>
								<path class="st11" d="M135.46,73.1c0.01,0.01,0.03,0.01,0.04,0.01s0.03,0,0.04,0c0.17-0.01,0.33-0.05,0.48-0.11
									c0.15-0.07,0.22-0.21,0.22-0.43c0-0.2-0.07-0.34-0.21-0.41c-0.14-0.07-0.29-0.11-0.45-0.12c-0.02,0-0.04,0-0.06,0
									s-0.04,0-0.06,0l-1.25-0.01c-0.58,0.01-1.04-0.07-1.38-0.24c-0.34-0.17-0.51-0.59-0.52-1.27c-0.01-0.64,0.17-1.09,0.52-1.35
									c0.35-0.26,0.83-0.4,1.42-0.4l3.11-0.01v1.15h-2.56c-0.02,0.01-0.04,0.01-0.06,0.01c-0.02,0-0.04,0-0.06,0
									c-0.05,0-0.1,0-0.14,0c-0.05,0-0.1,0-0.15,0c-0.12,0.01-0.24,0.03-0.36,0.08c-0.11,0.05-0.19,0.14-0.22,0.27
									c-0.06,0.24-0.01,0.41,0.15,0.5c0.15,0.09,0.33,0.14,0.53,0.14l1.31-0.01c0.51,0.01,0.94,0.13,1.29,0.36
									c0.35,0.23,0.53,0.63,0.55,1.2c0,0.01,0,0.01,0,0.02c0,0,0,0.01,0,0.02c0.01,0.44-0.12,0.85-0.38,1.21
									c-0.26,0.36-0.63,0.55-1.12,0.55h-3.74V73.1H135.46z"/>
							</g>
						</g>
						<g>
							<path class="st3" d="M98.03,82.21c0,1.05-0.13,1.95-0.38,2.7c-0.25,0.76-0.64,1.34-1.15,1.75c-0.52,0.41-1.17,0.61-1.94,0.61
								c-0.79,0-1.44-0.21-1.96-0.62c-0.52-0.41-0.9-1-1.15-1.76c-0.25-0.76-0.38-1.66-0.38-2.7c0-1.65,0.3-2.9,0.89-3.75
								c0.59-0.85,1.46-1.28,2.6-1.28c1.18,0,2.06,0.45,2.62,1.35C97.75,79.42,98.03,80.65,98.03,82.21z M93.02,82.21
								c0,2.26,0.51,3.4,1.54,3.4c0.5,0,0.88-0.28,1.14-0.83c0.26-0.55,0.38-1.41,0.38-2.56c0-2.27-0.51-3.41-1.52-3.41
								C93.53,78.8,93.02,79.93,93.02,82.21z"/>
							<path class="st3" d="M102.78,79.47c0.71,0,1.25,0.34,1.63,1.02c0.38,0.68,0.58,1.65,0.58,2.89c0,1.21-0.19,2.16-0.58,2.85
								c-0.38,0.69-0.91,1.03-1.58,1.03c-0.34,0-0.65-0.09-0.93-0.28c-0.28-0.18-0.52-0.47-0.71-0.85h-0.07
								c0.02,0.29,0.03,0.55,0.04,0.76c0.01,0.21,0.01,0.39,0.01,0.52v3.01h-1.79V79.61h1.44l0.26,0.99h0.1
								c0.23-0.44,0.47-0.74,0.71-0.89C102.15,79.55,102.44,79.47,102.78,79.47z M102.22,80.98c-0.37,0-0.63,0.17-0.8,0.52
								c-0.16,0.35-0.25,0.91-0.25,1.68v0.37c0,0.75,0.08,1.3,0.25,1.64c0.17,0.34,0.43,0.52,0.79,0.52c0.64,0,0.96-0.77,0.96-2.31
								C103.18,81.79,102.86,80.98,102.22,80.98z"/>
							<path class="st3" d="M108.77,85.7c0.26,0,0.54-0.07,0.84-0.21v1.43c-0.41,0.23-0.88,0.34-1.4,0.34
								c-0.64,0-1.11-0.19-1.39-0.58c-0.29-0.39-0.43-0.99-0.43-1.79v-3.8h-0.74v-0.96l0.88-0.47l0.43-1.64h1.22v1.58h1.35v1.49
								h-1.35v3.73c0,0.29,0.05,0.51,0.14,0.66C108.4,85.63,108.55,85.7,108.77,85.7z"/>
							<path class="st3" d="M111.52,76.65c0.65,0,0.98,0.34,0.98,1.03c0,0.67-0.33,1-0.98,1c-0.65,0-0.98-0.33-0.98-1
								C110.54,77,110.87,76.65,111.52,76.65z M112.41,79.61v7.52h-1.79v-7.52H112.41z"/>
							<path class="st3" d="M119.41,83.35c0,0.7-0.09,1.34-0.28,1.94c-0.19,0.6-0.49,1.08-0.91,1.44c-0.42,0.36-0.98,0.54-1.68,0.54
								c-0.65,0-1.19-0.18-1.61-0.54c-0.42-0.36-0.73-0.83-0.93-1.43c-0.2-0.6-0.3-1.25-0.3-1.95c0-0.76,0.1-1.43,0.3-2.01
								c0.2-0.58,0.51-1.04,0.93-1.37s0.97-0.5,1.64-0.5c0.87,0,1.56,0.33,2.07,1C119.15,81.13,119.41,82.09,119.41,83.35z
								 M115.5,83.38c0,0.78,0.08,1.37,0.25,1.77c0.16,0.4,0.43,0.61,0.8,0.61c0.37,0,0.63-0.2,0.79-0.6c0.16-0.4,0.24-1,0.24-1.81
								c0-0.79-0.08-1.38-0.24-1.77c-0.16-0.39-0.42-0.59-0.79-0.59c-0.37,0-0.63,0.2-0.8,0.58
								C115.59,81.96,115.5,82.56,115.5,83.38z"/>
							<path class="st3" d="M124.05,79.47c0.63,0,1.12,0.23,1.46,0.69c0.34,0.46,0.52,1.12,0.52,1.99v4.98h-1.79v-4.46
								c0-0.53-0.05-0.93-0.16-1.2c-0.11-0.27-0.31-0.41-0.6-0.41c-0.38,0-0.64,0.19-0.79,0.56s-0.23,1-0.23,1.89v3.62h-1.79v-7.52
								h1.42l0.19,0.96h0.11C122.73,79.84,123.28,79.47,124.05,79.47z"/>
							<path class="st3" d="M131.55,84.93c0,0.76-0.21,1.34-0.64,1.74c-0.43,0.4-1.01,0.6-1.77,0.6c-0.74,0-1.4-0.14-1.96-0.43
								v-1.73c0.24,0.17,0.52,0.31,0.84,0.43c0.32,0.12,0.64,0.18,0.96,0.18c0.52,0,0.78-0.23,0.78-0.69c0-0.18-0.07-0.35-0.2-0.52
								c-0.13-0.16-0.44-0.36-0.93-0.61c-0.47-0.26-0.83-0.57-1.09-0.94c-0.26-0.37-0.38-0.82-0.38-1.36c0-0.66,0.21-1.18,0.62-1.56
								c0.41-0.38,0.98-0.57,1.69-0.57c0.37,0,0.71,0.05,1.03,0.15c0.32,0.1,0.64,0.25,0.96,0.44l-0.49,1.38
								c-0.21-0.15-0.44-0.27-0.67-0.36c-0.24-0.1-0.48-0.14-0.73-0.14c-0.45,0-0.67,0.2-0.67,0.59c0,0.13,0.03,0.24,0.08,0.34
								c0.05,0.1,0.16,0.2,0.32,0.32c0.16,0.11,0.39,0.26,0.7,0.45c0.46,0.27,0.83,0.57,1.12,0.92
								C131.41,83.89,131.55,84.35,131.55,84.93z"/>
						</g>
					</g>
				</g>
			</g>
		</g>
		<g>
			<path class="st12" d="M520.44,310.41H26.24c-7.55,0-13.73-6.18-13.73-13.73v-0.03c0-7.55,6.18-13.73,13.73-13.73h494.2
				c7.55,0,13.73,6.18,13.73,13.73v0.03C534.17,304.23,527.99,310.41,520.44,310.41z"/>
			<path class="st10" d="M251.7,305.83h-93.28c-4.94,0-8.98-4.04-8.98-8.98v-0.02c0-4.94,4.04-8.98,8.98-8.98h93.28
				c4.94,0,8.98,4.04,8.98,8.98v0.02C260.67,301.79,256.63,305.83,251.7,305.83z"/>
			<path class="st8" d="M130.61,305.83H96.47c-4.94,0-8.98-4.04-8.98-8.98v-0.02c0-4.94,4.04-8.98,8.98-8.98h34.14
				c4.94,0,8.98,4.04,8.98,8.98v0.02C139.59,301.79,135.55,305.83,130.61,305.83z"/>
			<path class="st8" d="M512.88,305.83H463.6c-4.94,0-8.98-4.04-8.98-8.98v-0.02c0-4.94,4.04-8.98,8.98-8.98h49.28
				c4.94,0,8.98,4.04,8.98,8.98v0.02C521.85,301.79,517.81,305.83,512.88,305.83z"/>
			<path class="st13" d="M76.93,299.84h-52.8c-1.55,0-2.82-1.27-2.82-2.82v-0.01c0-1.55,1.27-2.82,2.82-2.82h52.8
				c1.55,0,2.82,1.27,2.82,2.82v0.01C79.75,298.57,78.48,299.84,76.93,299.84z"/>
			<path class="st13" d="M440.19,299.84H296.58c-1.55,0-2.82-1.27-2.82-2.82v-0.01c0-1.55,1.27-2.82,2.82-2.82h143.61
				c1.55,0,2.82,1.27,2.82,2.82v0.01C443.01,298.57,441.74,299.84,440.19,299.84z"/>
		</g>
		<g>
			<path class="st12" d="M244.65,275.88H37.34c-13.75,0-25-11.25-25-25v-117.7c0-13.75,11.25-25,25-25h207.31
				c13.75,0,25,11.25,25,25v117.7C269.65,264.63,258.4,275.88,244.65,275.88z"/>
			<path class="st12" d="M509.17,275.88H301.86c-13.75,0-25-11.25-25-25v-117.7c0-13.75,11.25-25,25-25h207.31
				c13.75,0,25,11.25,25,25v117.7C534.17,264.63,522.92,275.88,509.17,275.88z"/>
			<path class="st13" d="M317.7,153.28h-21.12c-1.55,0-2.82-1.27-2.82-2.82v-0.01c0-1.55,1.27-2.82,2.82-2.82h21.12
				c1.55,0,2.82,1.27,2.82,2.82v0.01C320.51,152.01,319.24,153.28,317.7,153.28z"/>
			<path class="st13" d="M317.7,199.43h-21.12c-1.55,0-2.82-1.27-2.82-2.82v-0.01c0-1.55,1.27-2.82,2.82-2.82h21.12
				c1.55,0,2.82,1.27,2.82,2.82v0.01C320.51,198.16,319.24,199.43,317.7,199.43z"/>
			<path class="st13" d="M317.7,245.58h-21.12c-1.55,0-2.82-1.27-2.82-2.82v-0.01c0-1.55,1.27-2.82,2.82-2.82h21.12
				c1.55,0,2.82,1.27,2.82,2.82v0.01C320.51,244.32,319.24,245.58,317.7,245.58z"/>
			<path class="st8" d="M389.68,129.32h-90.81c-2.81,0-5.1-2.3-5.1-5.1v-0.01c0-2.81,2.3-5.1,5.1-5.1h90.81c2.81,0,5.1,2.3,5.1,5.1
				v0.01C394.78,127.02,392.49,129.32,389.68,129.32z"/>
			<g>
				<g>
					<path class="st0" d="M117.06,160.67H42.08c-11.42,0-20.77-9.35-20.77-20.77v-0.04c0-11.42,9.35-20.77,20.77-20.77h74.97
						c11.42,0,20.77,9.35,20.77,20.77v0.04C137.83,151.33,128.48,160.67,117.06,160.67z"/>
					<path class="st13" d="M85.2,143.06H51.41c-4.94,0-8.98-4.04-8.98-8.98v-0.02c0-4.94,4.04-8.98,8.98-8.98H85.2
						c4.94,0,8.98,4.04,8.98,8.98v0.02C94.18,139.02,90.14,143.06,85.2,143.06z"/>
					<path class="st9" d="M103.33,153.63H55.81c-1.55,0-2.82-1.27-2.82-2.82v-0.01c0-1.55,1.27-2.82,2.82-2.82h47.52
						c1.55,0,2.82,1.27,2.82,2.82v0.01C106.15,152.36,104.88,153.63,103.33,153.63z"/>
					<path class="st8" d="M109.67,142.71h-0.7c-4.84,0-8.8-3.96-8.8-8.8v-0.02c0-4.84,3.96-8.8,8.8-8.8h0.7c4.84,0,8.8,3.96,8.8,8.8
						v0.02C118.47,138.75,114.51,142.71,109.67,142.71z"/>
				</g>
				<g>
					<path class="st0" d="M117.06,212.82H42.08c-11.42,0-20.77-9.35-20.77-20.77v-0.04c0-11.42,9.35-20.77,20.77-20.77h74.97
						c11.42,0,20.77,9.35,20.77,20.77v0.04C137.83,203.47,128.48,212.82,117.06,212.82z"/>
					<path class="st13" d="M85.2,195.2H51.41c-4.94,0-8.98-4.04-8.98-8.98v-0.02c0-4.94,4.04-8.98,8.98-8.98H85.2
						c4.94,0,8.98,4.04,8.98,8.98v0.02C94.18,191.16,90.14,195.2,85.2,195.2z"/>
					<path class="st9" d="M103.33,205.77H55.81c-1.55,0-2.82-1.27-2.82-2.82v-0.01c0-1.55,1.27-2.82,2.82-2.82h47.52
						c1.55,0,2.82,1.27,2.82,2.82v0.01C106.15,204.5,104.88,205.77,103.33,205.77z"/>
					<path class="st8" d="M109.67,194.85h-0.7c-4.84,0-8.8-3.96-8.8-8.8v-0.02c0-4.84,3.96-8.8,8.8-8.8h0.7c4.84,0,8.8,3.96,8.8,8.8
						v0.02C118.47,190.89,114.51,194.85,109.67,194.85z"/>
				</g>
				<g>
					<path class="st0" d="M117.06,264.96H42.08c-11.42,0-20.77-9.35-20.77-20.77v-0.04c0-11.42,9.35-20.77,20.77-20.77h74.97
						c11.42,0,20.77,9.35,20.77,20.77v0.04C137.83,255.61,128.48,264.96,117.06,264.96z"/>
					<path class="st13" d="M85.2,247.34H51.41c-4.94,0-8.98-4.04-8.98-8.98v-0.02c0-4.94,4.04-8.98,8.98-8.98H85.2
						c4.94,0,8.98,4.04,8.98,8.98v0.02C94.18,243.31,90.14,247.34,85.2,247.34z"/>
					<path class="st9" d="M103.33,257.91H55.81c-1.55,0-2.82-1.27-2.82-2.82v-0.01c0-1.55,1.27-2.82,2.82-2.82h47.52
						c1.55,0,2.82,1.27,2.82,2.82v0.01C106.15,256.65,104.88,257.91,103.33,257.91z"/>
					<path class="st8" d="M109.67,246.99h-0.7c-4.84,0-8.8-3.96-8.8-8.8v-0.02c0-4.84,3.96-8.8,8.8-8.8h0.7c4.84,0,8.8,3.96,8.8,8.8
						v0.02C118.47,243.03,114.51,246.99,109.67,246.99z"/>
				</g>
				<g>
					<path class="st0" d="M239.9,160.67h-74.97c-11.42,0-20.77-9.35-20.77-20.77v-0.04c0-11.42,9.35-20.77,20.77-20.77h74.97
						c11.42,0,20.77,9.35,20.77,20.77v0.04C260.67,151.33,251.33,160.67,239.9,160.67z"/>
					<path class="st13" d="M208.05,143.06h-33.79c-4.94,0-8.98-4.04-8.98-8.98v-0.02c0-4.94,4.04-8.98,8.98-8.98h33.79
						c4.94,0,8.98,4.04,8.98,8.98v0.02C217.02,139.02,212.99,143.06,208.05,143.06z"/>
					<path class="st9" d="M226.18,153.63h-47.52c-1.55,0-2.82-1.27-2.82-2.82v-0.01c0-1.55,1.27-2.82,2.82-2.82h47.52
						c1.55,0,2.82,1.27,2.82,2.82v0.01C228.99,152.36,227.73,153.63,226.18,153.63z"/>
					<path class="st8" d="M232.51,142.71h-0.7c-4.84,0-8.8-3.96-8.8-8.8v-0.02c0-4.84,3.96-8.8,8.8-8.8h0.7c4.84,0,8.8,3.96,8.8,8.8
						v0.02C241.31,138.75,237.35,142.71,232.51,142.71z"/>
				</g>
				<g>
					<path class="st0" d="M239.9,212.82h-74.97c-11.42,0-20.77-9.35-20.77-20.77v-0.04c0-11.42,9.35-20.77,20.77-20.77h74.97
						c11.42,0,20.77,9.35,20.77,20.77v0.04C260.67,203.47,251.33,212.82,239.9,212.82z"/>
					<path class="st13" d="M208.05,195.2h-33.79c-4.94,0-8.98-4.04-8.98-8.98v-0.02c0-4.94,4.04-8.98,8.98-8.98h33.79
						c4.94,0,8.98,4.04,8.98,8.98v0.02C217.02,191.16,212.99,195.2,208.05,195.2z"/>
					<path class="st9" d="M226.18,205.77h-47.52c-1.55,0-2.82-1.27-2.82-2.82v-0.01c0-1.55,1.27-2.82,2.82-2.82h47.52
						c1.55,0,2.82,1.27,2.82,2.82v0.01C228.99,204.5,227.73,205.77,226.18,205.77z"/>
					<path class="st8" d="M232.51,194.85h-0.7c-4.84,0-8.8-3.96-8.8-8.8v-0.02c0-4.84,3.96-8.8,8.8-8.8h0.7c4.84,0,8.8,3.96,8.8,8.8
						v0.02C241.31,190.89,237.35,194.85,232.51,194.85z"/>
				</g>
				<g>
					<path class="st0" d="M239.9,264.96h-74.97c-11.42,0-20.77-9.35-20.77-20.77v-0.04c0-11.42,9.35-20.77,20.77-20.77h74.97
						c11.42,0,20.77,9.35,20.77,20.77v0.04C260.67,255.61,251.33,264.96,239.9,264.96z"/>
					<path class="st13" d="M208.05,247.34h-33.79c-4.94,0-8.98-4.04-8.98-8.98v-0.02c0-4.94,4.04-8.98,8.98-8.98h33.79
						c4.94,0,8.98,4.04,8.98,8.98v0.02C217.02,243.31,212.99,247.34,208.05,247.34z"/>
					<path class="st9" d="M226.18,257.91h-47.52c-1.55,0-2.82-1.27-2.82-2.82v-0.01c0-1.55,1.27-2.82,2.82-2.82h47.52
						c1.55,0,2.82,1.27,2.82,2.82v0.01C228.99,256.65,227.73,257.91,226.18,257.91z"/>
					<path class="st8" d="M232.51,246.99h-0.7c-4.84,0-8.8-3.96-8.8-8.8v-0.02c0-4.84,3.96-8.8,8.8-8.8h0.7c4.84,0,8.8,3.96,8.8,8.8
						v0.02C241.31,243.03,237.35,246.99,232.51,246.99z"/>
				</g>
			</g>
			<polygon class="st14" points="333.89,245.23 382.46,173.01 402.88,187.1 452.86,150.1 480.32,140.94 494.04,170.54 
				516.22,138.83 516.22,245.23 			"/>
		</g>
		<g>
			<g>
				<path class="st12" d="M105.44,364.67H36.8c-13.16,0-23.94-10.77-23.94-23.94v-0.04c0-13.16,10.77-23.94,23.94-23.94h68.64
					c13.16,0,23.94,10.77,23.94,23.94v0.04C129.38,353.9,118.61,364.67,105.44,364.67z"/>
				<path class="st0" d="M64.79,355.51H31c-4.94,0-8.98-4.04-8.98-8.98v-0.02c0-4.94,4.04-8.98,8.98-8.98h33.79
					c4.94,0,8.98,4.04,8.98,8.98v0.02C73.76,351.47,69.72,355.51,64.79,355.51z"/>
				<path class="st13" d="M71.65,331.55H24.13c-1.55,0-2.82-1.27-2.82-2.82v-0.01c0-1.55,1.27-2.82,2.82-2.82h47.52
					c1.55,0,2.82,1.27,2.82,2.82v0.01C74.47,330.28,73.2,331.55,71.65,331.55z"/>
				<path class="st8" d="M92.07,355.51h-0.7c-4.84,0-8.8-3.96-8.8-8.8v-0.02c0-4.84,3.96-8.8,8.8-8.8h0.7c4.84,0,8.8,3.96,8.8,8.8
					v0.02C100.87,351.55,96.91,355.51,92.07,355.51z"/>
				<path class="st10" d="M113.89,355.51h-0.7c-4.84,0-8.8-3.96-8.8-8.8v-0.02c0-4.84,3.96-8.8,8.8-8.8h0.7c4.84,0,8.8,3.96,8.8,8.8
					v0.02C122.69,351.55,118.73,355.51,113.89,355.51z"/>
			</g>
			<g>
				<path class="st12" d="M240.49,364.67h-68.64c-13.16,0-23.94-10.77-23.94-23.94v-0.04c0-13.16,10.77-23.94,23.94-23.94h68.64
					c13.16,0,23.94,10.77,23.94,23.94v0.04C264.43,353.9,253.66,364.67,240.49,364.67z"/>
				<path class="st0" d="M199.84,355.51h-33.79c-4.94,0-8.98-4.04-8.98-8.98v-0.02c0-4.94,4.04-8.98,8.98-8.98h33.79
					c4.94,0,8.98,4.04,8.98,8.98v0.02C208.81,351.47,204.77,355.51,199.84,355.51z"/>
				<path class="st13" d="M206.7,331.55h-47.52c-1.55,0-2.82-1.27-2.82-2.82v-0.01c0-1.55,1.27-2.82,2.82-2.82h47.52
					c1.55,0,2.82,1.27,2.82,2.82v0.01C209.52,330.28,208.25,331.55,206.7,331.55z"/>
				<path class="st8" d="M227.12,355.51h-0.7c-4.84,0-8.8-3.96-8.8-8.8v-0.02c0-4.84,3.96-8.8,8.8-8.8h0.7c4.84,0,8.8,3.96,8.8,8.8
					v0.02C235.92,351.55,231.96,355.51,227.12,355.51z"/>
				<path class="st10" d="M248.94,355.51h-0.7c-4.84,0-8.8-3.96-8.8-8.8v-0.02c0-4.84,3.96-8.8,8.8-8.8h0.7c4.84,0,8.8,3.96,8.8,8.8
					v0.02C257.74,351.55,253.78,355.51,248.94,355.51z"/>
			</g>
			<g>
				<path class="st12" d="M375.54,364.67H306.9c-13.16,0-23.94-10.77-23.94-23.94v-0.04c0-13.16,10.77-23.94,23.94-23.94h68.64
					c13.16,0,23.94,10.77,23.94,23.94v0.04C399.48,353.9,388.7,364.67,375.54,364.67z"/>
				<path class="st0" d="M334.88,355.51h-33.79c-4.94,0-8.98-4.04-8.98-8.98v-0.02c0-4.94,4.04-8.98,8.98-8.98h33.79
					c4.94,0,8.98,4.04,8.98,8.98v0.02C343.86,351.47,339.82,355.51,334.88,355.51z"/>
				<path class="st13" d="M341.75,331.55h-47.52c-1.55,0-2.82-1.27-2.82-2.82v-0.01c0-1.55,1.27-2.82,2.82-2.82h47.52
					c1.55,0,2.82,1.27,2.82,2.82v0.01C344.56,330.28,343.3,331.55,341.75,331.55z"/>
				<path class="st8" d="M362.16,355.51h-0.7c-4.84,0-8.8-3.96-8.8-8.8v-0.02c0-4.84,3.96-8.8,8.8-8.8h0.7c4.84,0,8.8,3.96,8.8,8.8
					v0.02C370.96,351.55,367,355.51,362.16,355.51z"/>
				<path class="st10" d="M383.99,355.51h-0.7c-4.84,0-8.8-3.96-8.8-8.8v-0.02c0-4.84,3.96-8.8,8.8-8.8h0.7c4.84,0,8.8,3.96,8.8,8.8
					v0.02C392.79,351.55,388.83,355.51,383.99,355.51z"/>
			</g>
			<g>
				<path class="st12" d="M510.59,364.67h-68.64c-13.16,0-23.94-10.77-23.94-23.94v-0.04c0-13.16,10.77-23.94,23.94-23.94h68.64
					c13.16,0,23.94,10.77,23.94,23.94v0.04C534.52,353.9,523.75,364.67,510.59,364.67z"/>
				<path class="st0" d="M469.93,355.51h-33.79c-4.94,0-8.98-4.04-8.98-8.98v-0.02c0-4.94,4.04-8.98,8.98-8.98h33.79
					c4.94,0,8.98,4.04,8.98,8.98v0.02C478.91,351.47,474.87,355.51,469.93,355.51z"/>
				<path class="st13" d="M476.8,331.55h-47.52c-1.55,0-2.82-1.27-2.82-2.82v-0.01c0-1.55,1.27-2.82,2.82-2.82h47.52
					c1.55,0,2.82,1.27,2.82,2.82v0.01C479.61,330.28,478.35,331.55,476.8,331.55z"/>
				<path class="st8" d="M497.21,355.51h-0.7c-4.84,0-8.8-3.96-8.8-8.8v-0.02c0-4.84,3.96-8.8,8.8-8.8h0.7c4.84,0,8.8,3.96,8.8,8.8
					v0.02C506.01,351.55,502.05,355.51,497.21,355.51z"/>
				<path class="st10" d="M519.04,355.51h-0.7c-4.84,0-8.8-3.96-8.8-8.8v-0.02c0-4.84,3.96-8.8,8.8-8.8h0.7c4.84,0,8.8,3.96,8.8,8.8
					v0.02C527.84,351.55,523.88,355.51,519.04,355.51z"/>
			</g>
		</g>
	</g>
</g>
</svg>
