<?xml version="1.0" encoding="utf-8"?>
<!-- Generator: Adobe Illustrator 23.0.1, SVG Export Plug-In . SVG Version: 6.00 Build 0)  -->
<svg version="1.1" id="Layer_1" xmlns="http://www.w3.org/2000/svg" xmlns:xlink="http://www.w3.org/1999/xlink" x="0px" y="0px"
	 viewBox="0 0 567 383" style="enable-background:new 0 0 567 383;" xml:space="preserve">
<style type="text/css">
	.st0{fill:#FFFFFF;}
	.st1{fill:#6F2C90;}
	.st2{fill:#F1F1F2;}
	.st3{fill:#A2D9DA;}
	.st4{fill:#224099;}
	.st5{font-family:'WorkSans-Regular';}
	.st6{font-size:12.9813px;}
	.st7{fill:none;stroke:#F1F1F2;stroke-width:0.7151;stroke-miterlimit:10;}
	.st8{fill:#F1F1F1;}
	.st9{fill:#CBCBCB;}
	.st10{fill:#284294;}
	.st11{fill:#6E308B;}
	.st12{fill:#A1D8D9;}
	.st13{fill:#F2F2F2;}
</style>
<g>
	<g>
		<g>
			<path class="st0" d="M557.84,1.32L370.18,0.5c-4.94-0.02-8.97,3.96-8.99,8.89v0c-0.02,4.93-4.05,8.91-8.99,8.89L11.25,16.78
				c-4.94-0.02-10.98,3.96-11,8.89l0.5,345.56c-0.02,4.93,3.97,8.94,8.91,8.96l528.6,2.31c4.94,0.02,8.97-3.96,8.99-8.89
				l1.32-302.72c0.02-4.93,4.05-8.91,8.99-8.89h0c4.94,0.02,8.97-3.96,8.99-8.89l0.19-42.84C566.77,5.36,562.78,1.34,557.84,1.32z"
				/>
			
				<ellipse transform="matrix(5.621778e-03 -1 1 5.621778e-03 360.0294 384.5065)" class="st1" cx="373.35" cy="11.22" rx="4.28" ry="4.3"/>
			
				<ellipse transform="matrix(5.621777e-03 -1 1 5.621777e-03 511.0679 537.7311)" class="st2" cx="525.92" cy="11.89" rx="4.28" ry="4.3"/>
			
				<ellipse transform="matrix(5.621777e-03 -1 1 5.621777e-03 525.959 552.8378)" class="st3" cx="540.96" cy="11.96" rx="4.28" ry="4.3"/>
			
				<ellipse transform="matrix(5.621777e-03 -1 1 5.621777e-03 540.8501 567.9445)" class="st4" cx="556" cy="12.02" rx="4.28" ry="4.3"/>
			<path class="st2" d="M490.74,16.73l-101.59-0.44c-2.79-0.01-5.06-2.31-5.05-5.1l0-0.56c0.01-2.79,2.31-5.06,5.1-5.05l101.59,0.44
				c2.79,0.01,5.06,2.31,5.05,5.1l0,0.56C495.82,14.47,493.53,16.75,490.74,16.73z"/>
		</g>
		<g>
			
				<ellipse transform="matrix(5.621777e-03 -1 1 5.621777e-03 5.8979 77.5999)" class="st1" cx="41.97" cy="35.83" rx="8.92" ry="8.95"/>
			<text transform="matrix(1.0031 4.387943e-03 -4.366107e-03 1 37.0633 40.3124)" class="st0 st5 st6">→</text>
		</g>
		<g>
			
				<ellipse transform="matrix(5.621777e-03 -1 1 5.621777e-03 -16.7933 54.5802)" class="st1" cx="19.05" cy="35.73" rx="8.92" ry="8.95"/>
			<text transform="matrix(-1.0031 -3.654973e-03 3.626793e-03 -1 23.9516 31.2814)" class="st0 st5 st6">→</text>
		</g>
		<path class="st2" d="M342.85,43.93l-275.2-1.2c-4.09-0.02-7.43-3.38-7.41-7.47l0-0.82c0.02-4.09,3.38-7.43,7.47-7.41l275.2,1.2
			c4.09,0.02,7.43,3.38,7.41,7.47l0,0.82C350.3,40.62,346.94,43.95,342.85,43.93z"/>
		<line class="st7" x1="10.03" y1="50.33" x2="552.96" y2="52.71"/>
	</g>
	<g>
		<g>
			<path class="st0" d="M511.93,361.4H215.62c-13.75,0-25-11.25-25-25V175.96c0-13.75,11.25-25,25-25h296.31c13.75,0,25,11.25,25,25
				V336.4C536.93,350.15,525.68,361.4,511.93,361.4z"/>
			<path class="st8" d="M139.87,361.4H34.97c-13.75,0-25-11.25-25-25V136.72c0-13.75,11.25-25,25-25h104.9c13.75,0,25,11.25,25,25
				V336.4C164.87,350.15,153.62,361.4,139.87,361.4z"/>
			<path class="st9" d="M79.82,131.34H27.37c-1.54,0-2.8-1.26-2.8-2.8v-0.56c0-1.54,1.26-2.8,2.8-2.8h52.45c1.54,0,2.8,1.26,2.8,2.8
				v0.56C82.61,130.08,81.36,131.34,79.82,131.34z"/>
			<path class="st9" d="M227.03,200.21h-23.62c-1.54,0-2.8-1.26-2.8-2.8v-0.56c0-1.54,1.26-2.8,2.8-2.8h23.62
				c1.54,0,2.8,1.26,2.8,2.8v0.56C229.82,198.95,228.57,200.21,227.03,200.21z"/>
			<path class="st9" d="M227.03,250.6h-23.62c-1.54,0-2.8-1.26-2.8-2.8v-0.56c0-1.54,1.26-2.8,2.8-2.8h23.62
				c1.54,0,2.8,1.26,2.8,2.8v0.56C229.82,249.35,228.57,250.6,227.03,250.6z"/>
			<path class="st9" d="M227.03,301h-23.62c-1.54,0-2.8-1.26-2.8-2.8v-0.56c0-1.54,1.26-2.8,2.8-2.8h23.62c1.54,0,2.8,1.26,2.8,2.8
				v0.56C229.82,299.74,228.57,301,227.03,301z"/>
			<path class="st9" d="M264.83,349.24l-16.71-16.72c-1.09-1.09-1.09-2.86,0-3.95l0.4-0.4c1.09-1.09,2.86-1.09,3.95,0l16.71,16.72
				c1.09,1.09,1.09,2.86,0,3.95l-0.4,0.4C267.69,350.33,265.92,350.33,264.83,349.24z"/>
			<path class="st9" d="M317.1,349.24l-16.71-16.72c-1.09-1.09-1.09-2.86,0-3.95l0.4-0.4c1.09-1.09,2.86-1.09,3.95,0l16.71,16.72
				c1.09,1.09,1.09,2.86,0,3.95l-0.4,0.4C319.97,350.33,318.19,350.33,317.1,349.24z"/>
			<path class="st9" d="M369.38,349.24l-16.71-16.72c-1.09-1.09-1.09-2.86,0-3.95l0.4-0.4c1.09-1.09,2.86-1.09,3.95,0l16.71,16.72
				c1.09,1.09,1.09,2.86,0,3.95l-0.4,0.4C372.24,350.33,370.46,350.33,369.38,349.24z"/>
			<path class="st9" d="M421.65,349.24l-16.71-16.72c-1.09-1.09-1.09-2.86,0-3.95l0.4-0.4c1.09-1.09,2.86-1.09,3.95,0L426,344.89
				c1.09,1.09,1.09,2.86,0,3.95l-0.4,0.4C424.51,350.33,422.73,350.33,421.65,349.24z"/>
			<path class="st9" d="M473.92,349.24l-16.71-16.72c-1.09-1.09-1.09-2.86,0-3.95l0.4-0.4c1.09-1.09,2.86-1.09,3.95,0l16.71,16.72
				c1.09,1.09,1.09,2.86,0,3.95l-0.4,0.4C476.78,350.33,475.01,350.33,473.92,349.24z"/>
			<path class="st0" d="M110.5,159.43H34.36c-5.38,0-9.79-4.4-9.79-9.79v-1.97c0-5.38,4.4-9.79,9.79-9.79h76.13
				c5.38,0,9.79,4.4,9.79,9.79v1.97C120.28,155.02,115.88,159.43,110.5,159.43z"/>
			<path class="st10" d="M138.07,158.27h-2.51c-4.81,0-8.74-3.93-8.74-8.74v-1.76c0-4.81,3.93-8.74,8.74-8.74h2.51
				c4.81,0,8.74,3.93,8.74,8.74v1.76C146.8,154.34,142.87,158.27,138.07,158.27z"/>
			<path class="st9" d="M79.82,172.12H27.37c-1.54,0-2.8-1.26-2.8-2.8v-0.56c0-1.54,1.26-2.8,2.8-2.8h52.45c1.54,0,2.8,1.26,2.8,2.8
				v0.56C82.61,170.86,81.36,172.12,79.82,172.12z"/>
			<path class="st0" d="M110.5,200.21H34.36c-5.38,0-9.79-4.4-9.79-9.79v-1.97c0-5.38,4.4-9.79,9.79-9.79h76.13
				c5.38,0,9.79,4.4,9.79,9.79v1.97C120.28,195.8,115.88,200.21,110.5,200.21z"/>
			<path class="st10" d="M138.07,199.05h-2.51c-4.81,0-8.74-3.93-8.74-8.74v-1.76c0-4.81,3.93-8.74,8.74-8.74h2.51
				c4.81,0,8.74,3.93,8.74,8.74v1.76C146.8,195.12,142.87,199.05,138.07,199.05z"/>
			<path class="st9" d="M79.82,212.9H27.37c-1.54,0-2.8-1.26-2.8-2.8v-0.56c0-1.54,1.26-2.8,2.8-2.8h52.45c1.54,0,2.8,1.26,2.8,2.8
				v0.56C82.61,211.64,81.36,212.9,79.82,212.9z"/>
			<path class="st9" d="M79.82,253.68H27.37c-1.54,0-2.8-1.26-2.8-2.8v-0.56c0-1.54,1.26-2.8,2.8-2.8h52.45c1.54,0,2.8,1.26,2.8,2.8
				v0.56C82.61,252.42,81.36,253.68,79.82,253.68z"/>
			<path class="st0" d="M110.5,240.99H34.36c-5.38,0-9.79-4.4-9.79-9.79v-1.97c0-5.38,4.4-9.79,9.79-9.79h76.13
				c5.38,0,9.79,4.4,9.79,9.79v1.97C120.28,236.58,115.88,240.99,110.5,240.99z"/>
			<path class="st10" d="M138.07,239.83h-2.51c-4.81,0-8.74-3.93-8.74-8.74v-1.76c0-4.81,3.93-8.74,8.74-8.74h2.51
				c4.81,0,8.74,3.93,8.74,8.74v1.76C146.8,235.9,142.87,239.83,138.07,239.83z"/>
			<path class="st9" d="M137.89,282.15H99.21c-4.9,0-8.91-4.01-8.91-8.91v-1.8c0-4.9,4.01-8.91,8.91-8.91h38.68
				c4.9,0,8.91,4.01,8.91,8.91v1.8C146.8,278.14,142.79,282.15,137.89,282.15z"/>
			<path class="st10" d="M72.93,282.15H34.26c-4.9,0-8.91-4.01-8.91-8.91v-1.8c0-4.9,4.01-8.91,8.91-8.91h38.68
				c4.9,0,8.91,4.01,8.91,8.91v1.8C81.85,278.14,77.84,282.15,72.93,282.15z"/>
			<path class="st9" d="M79.82,294.46H27.37c-1.54,0-2.8-1.26-2.8-2.8v-0.56c0-1.54,1.26-2.8,2.8-2.8h52.45c1.54,0,2.8,1.26,2.8,2.8
				v0.56C82.61,293.2,81.36,294.46,79.82,294.46z"/>
			<path class="st9" d="M495.7,316.39H249.15c-1.54,0-2.8-1.26-2.8-2.8v-0.56c0-1.54,1.26-2.8,2.8-2.8H495.7
				c1.54,0,2.8,1.26,2.8,2.8v0.56C498.49,315.13,497.23,316.39,495.7,316.39z"/>
			<path class="st9" d="M137.89,322.93H99.21c-4.9,0-8.91-4.01-8.91-8.91v-1.8c0-4.9,4.01-8.91,8.91-8.91h38.68
				c4.9,0,8.91,4.01,8.91,8.91v1.8C146.8,318.92,142.79,322.93,137.89,322.93z"/>
			<path class="st10" d="M72.93,322.93H34.26c-4.9,0-8.91-4.01-8.91-8.91v-1.8c0-4.9,4.01-8.91,8.91-8.91h38.68
				c4.9,0,8.91,4.01,8.91,8.91v1.8C81.85,318.92,77.84,322.93,72.93,322.93z"/>
			<path class="st11" d="M137.89,351.4H34.26c-4.9,0-8.91-4.01-8.91-8.91v-1.8c0-4.9,4.01-8.91,8.91-8.91h103.63
				c4.9,0,8.91,4.01,8.91,8.91v1.8C146.8,347.39,142.79,351.4,137.89,351.4z"/>
			<g>
				<path class="st8" d="M526.44,136.73H201.1c-5.77,0-10.48-4.72-10.48-10.48v-2.11c0-5.77,4.72-10.48,10.48-10.48h325.34
					c5.77,0,10.48,4.72,10.48,10.48v2.11C536.93,132.01,532.21,136.73,526.44,136.73z"/>
				<path class="st9" d="M255.86,128.26h-52.45c-1.54,0-2.8-1.26-2.8-2.8v-0.56c0-1.54,1.26-2.8,2.8-2.8h52.45
					c1.54,0,2.8,1.26,2.8,2.8v0.56C258.65,127.01,257.39,128.26,255.86,128.26z"/>
				<path class="st10" d="M527.21,128.26H270.67c-1.54,0-2.8-1.26-2.8-2.8v-0.56c0-1.54,1.26-2.8,2.8-2.8h256.54
					c1.54,0,2.8,1.26,2.8,2.8v0.56C530.01,127.01,528.75,128.26,527.21,128.26z"/>
				<ellipse class="st12" cx="397.6" cy="124.99" rx="5.57" ry="5.58"/>
			</g>
			<path class="st10" d="M305.86,174.05H205.68c-2.79,0-5.07-2.28-5.07-5.07v-1.02c0-2.79,2.28-5.07,5.07-5.07h100.18
				c2.79,0,5.07,2.28,5.07,5.07v1.02C310.92,171.77,308.64,174.05,305.86,174.05z"/>
			<polygon class="st12" points="246.35,301 319.38,274.46 341.67,283.69 498.49,194.05 498.49,301 			"/>
		</g>
		<g>
			<path class="st10" d="M536.93,55.55L536.93,55.55c0,22.22-22.58,40.39-38.44,40.39H51.87c-15.85,0-41.9-18.18-41.9-40.39v0
				H536.93z"/>
			<path class="st12" d="M254.74,82.87h-54.82c-2.79,0-5.07-2.28-5.07-5.07v-1.02c0-2.79,2.28-5.07,5.07-5.07h54.82
				c2.79,0,5.07,2.28,5.07,5.07v1.02C259.8,80.59,257.52,82.87,254.74,82.87z"/>
			<path class="st12" d="M333.53,82.87h-54.82c-2.79,0-5.07-2.28-5.07-5.07v-1.02c0-2.79,2.28-5.07,5.07-5.07h54.82
				c2.79,0,5.07,2.28,5.07,5.07v1.02C338.6,80.59,336.32,82.87,333.53,82.87z"/>
			<path class="st12" d="M412.32,82.87H357.5c-2.79,0-5.07-2.28-5.07-5.07v-1.02c0-2.79,2.28-5.07,5.07-5.07h54.82
				c2.79,0,5.07,2.28,5.07,5.07v1.02C417.39,80.59,415.11,82.87,412.32,82.87z"/>
			<path class="st11" d="M498.8,82.87h-54.82c-2.79,0-5.07-2.28-5.07-5.07v-1.02c0-2.79,2.28-5.07,5.07-5.07h54.82
				c2.79,0,5.07,2.28,5.07,5.07v1.02C503.87,80.59,501.59,82.87,498.8,82.87z"/>
			<g>
				<g>
					<g>
						<ellipse class="st13" cx="47.23" cy="76.11" rx="2.91" ry="2.92"/>
						<path class="st13" d="M57.16,72.51c0.06-0.08,0.12-0.17,0.18-0.25c0.3-0.49,0.47-1.08,0.43-1.71
							c-0.09-1.45-1.26-2.62-2.7-2.72c-1.7-0.12-3.12,1.23-3.12,2.91c0,0.55,0.15,1.06,0.41,1.5c0.06,0.1,0.13,0.21,0.21,0.3
							c0.05,0.06,0.1,0.13,0.14,0.2c0.64,1,1,2.12,1,3.3c0,0.03,0,0.06,0,0.08c0,0.03,0,0.06,0,0.08c0,1.18-0.36,2.31-1,3.3
							c-0.04,0.07-0.09,0.13-0.14,0.2c-0.08,0.1-0.14,0.2-0.21,0.3c-0.26,0.44-0.41,0.95-0.41,1.5c0,1.68,1.42,3.03,3.12,2.91
							c1.45-0.1,2.61-1.28,2.7-2.72c0.04-0.63-0.12-1.22-0.43-1.71c-0.05-0.09-0.11-0.17-0.18-0.25c-0.04-0.05-0.08-0.11-0.12-0.17
							C56.37,78.53,56,77.39,56,76.19c0-0.03,0-0.05,0-0.08c0-0.03,0-0.05,0-0.08c0-1.2,0.37-2.34,1.03-3.35
							C57.07,72.62,57.12,72.56,57.16,72.51z"/>
						<ellipse class="st13" cx="77.81" cy="76.11" rx="2.91" ry="2.92"/>
						<path class="st13" d="M72.55,72.43c0.05-0.07,0.09-0.13,0.13-0.2c0.26-0.44,0.41-0.95,0.41-1.5c0-1.68-1.42-3.03-3.12-2.91
							c-1.45,0.1-2.61,1.28-2.7,2.72c-0.04,0.63,0.12,1.22,0.43,1.71c0.04,0.06,0.08,0.12,0.12,0.18c0.14,0.2,0.28,0.39,0.4,0.6
							c0.52,0.92,0.81,1.93,0.81,2.99c0,0.03,0,0.05,0,0.08c0,0.03,0,0.05,0,0.08c0,1.06-0.29,2.07-0.81,2.99
							c-0.12,0.21-0.26,0.41-0.4,0.6c-0.04,0.06-0.08,0.12-0.12,0.18c-0.3,0.49-0.47,1.08-0.43,1.71c0.09,1.45,1.26,2.62,2.7,2.72
							c1.7,0.12,3.12-1.23,3.12-2.91c0-0.55-0.15-1.06-0.41-1.5c-0.04-0.07-0.09-0.14-0.13-0.2c-0.19-0.26-0.37-0.52-0.51-0.8
							c-0.46-0.87-0.71-1.81-0.71-2.8c0-0.03,0-0.06,0-0.08c0-0.03,0-0.06,0-0.08c0-0.99,0.25-1.93,0.71-2.8
							C72.19,72.95,72.37,72.68,72.55,72.43z"/>
						<path class="st13" d="M64.88,67.04c0.04-0.06,0.08-0.12,0.12-0.18c0.3-0.49,0.47-1.08,0.43-1.71
							c-0.09-1.45-1.26-2.62-2.7-2.72c-1.7-0.12-3.12,1.23-3.12,2.91c0,0.55,0.15,1.06,0.41,1.5c0.04,0.07,0.09,0.14,0.13,0.2
							c0.19,0.26,0.37,0.52,0.51,0.8c0.46,0.87,0.71,1.81,0.71,2.8c0,0.03,0,0.06,0,0.08c0,0.03,0,0.06,0,0.08
							c0,0.99-0.25,1.93-0.71,2.8c-0.15,0.28-0.33,0.54-0.51,0.8c-0.05,0.07-0.09,0.13-0.13,0.2c-0.24,0.4-0.38,0.86-0.41,1.35
							c0,0.03,0,0.05,0,0.08c0,0.02,0,0.04,0,0.07c0,0,0,0.01,0,0.01c0,0,0,0.01,0,0.01c0,0.02,0,0.04,0,0.07c0,0.03,0,0.05,0,0.08
							c0.02,0.49,0.17,0.95,0.41,1.35c0.04,0.07,0.09,0.14,0.13,0.2c0.19,0.26,0.37,0.52,0.51,0.8c0.46,0.87,0.71,1.81,0.71,2.8
							c0,0.03,0,0.06,0,0.08c0,0.03,0,0.06,0,0.08c0,0.99-0.25,1.93-0.71,2.8c-0.15,0.28-0.33,0.54-0.51,0.8
							c-0.05,0.07-0.09,0.13-0.13,0.2c-0.26,0.44-0.41,0.95-0.41,1.5c0,1.68,1.42,3.03,3.12,2.91c1.45-0.1,2.61-1.28,2.7-2.72
							c0.04-0.63-0.12-1.22-0.43-1.71c-0.04-0.06-0.08-0.12-0.12-0.18c-0.14-0.2-0.28-0.39-0.4-0.6c-0.52-0.92-0.81-1.93-0.81-2.99
							c0-0.03,0-0.05,0-0.08c0-0.03,0-0.05,0-0.08c0-1.06,0.29-2.07,0.81-2.99c0.12-0.21,0.26-0.41,0.4-0.6
							c0.04-0.06,0.08-0.12,0.12-0.18c0.28-0.45,0.43-0.97,0.43-1.54c0-0.56-0.16-1.09-0.43-1.54c-0.04-0.06-0.08-0.12-0.12-0.18
							c-0.14-0.2-0.28-0.39-0.4-0.6c-0.52-0.92-0.81-1.93-0.81-2.99c0-0.03,0-0.05,0-0.08c0-0.03,0-0.05,0-0.08
							c0-1.06,0.29-2.07,0.81-2.99C64.6,67.44,64.74,67.24,64.88,67.04z"/>
					</g>
					<g>
						<g>
							<g>
								<path class="st13" d="M89,65.23c0.45-0.62,1.45-0.94,2.99-0.94l2.39-0.01v1.3h-2.53c-0.66,0.01-1.14,0.16-1.45,0.43
									c-0.31,0.27-0.48,0.74-0.51,1.41l4.49-0.01v1.29h-4.49v3.06h-1.57v-3.44C88.32,66.88,88.55,65.85,89,65.23z"/>
								<path class="st13" d="M95.28,65.65v-1.36h1.52v1.36H95.28z M95.28,71.76v-5.49h1.52v5.49H95.28z"/>
								<path class="st13" d="M100.77,66.27c0.72,0.01,1.28,0.15,1.68,0.43c0.4,0.28,0.6,0.81,0.6,1.59v3.47h-1.45v-3.3
									c0-0.38-0.06-0.64-0.19-0.77c-0.12-0.13-0.38-0.2-0.77-0.2l-1.16-0.01v4.28h-1.45v-5.49H100.77z"/>
								<path class="st13" d="M106.42,64.28l3.06,5.37l-0.07-5.37h1.6v7.47h-1.82l-3.21-5.65l0.07,5.65h-1.61v-7.47H106.42z"/>
								<path class="st13" d="M113.69,71.62c-0.36-0.09-0.68-0.29-0.96-0.59c-0.22-0.24-0.38-0.52-0.48-0.83
									c-0.1-0.31-0.16-0.63-0.18-0.96c0-0.03,0-0.07,0-0.1c0-0.03,0-0.07,0-0.1c0-0.05,0-0.1,0-0.14c0-0.05,0-0.09,0.01-0.14
									c0.02-0.31,0.08-0.62,0.18-0.92c0.1-0.3,0.26-0.57,0.47-0.81c0.28-0.31,0.6-0.5,0.96-0.6c0.36-0.09,0.74-0.14,1.13-0.14
									l2.11-0.01v1.15h-1.91c-0.4,0.01-0.72,0.07-0.97,0.18c-0.24,0.11-0.37,0.4-0.38,0.86l3.27-0.01v1.15h-3.27
									c0.01,0.48,0.14,0.77,0.36,0.87c0.23,0.1,0.55,0.16,0.98,0.16l1.92-0.01v1.15h-2.11C114.43,71.76,114.06,71.71,113.69,71.62
									z"/>
								<path class="st13" d="M117.24,66.27h1.68l1.18,1.66l1.21-1.66h1.66l-2.03,2.78l2,2.71h-1.68l-1.15-1.59l-1.16,1.59h-1.67
									l2.02-2.74L117.24,66.27z"/>
								<path class="st13" d="M125.84,71.76c-0.7,0-1.25-0.14-1.66-0.42c-0.41-0.28-0.61-0.8-0.61-1.58v-3.49h1.45v3.36
									c0,0.37,0.07,0.61,0.21,0.74c0.14,0.12,0.38,0.19,0.74,0.19l1.16-0.01v-4.28h1.45v5.49H125.84z"/>
								<path class="st13" d="M132.83,70.61c0.01,0.01,0.03,0.01,0.04,0.01c0.01,0,0.03,0,0.04,0c0.17-0.01,0.33-0.05,0.48-0.11
									c0.15-0.07,0.22-0.21,0.22-0.43c0-0.2-0.07-0.34-0.21-0.41c-0.14-0.07-0.29-0.11-0.45-0.12c-0.02,0-0.04,0-0.06,0
									c-0.02,0-0.04,0-0.06,0l-1.25-0.01c-0.58,0.01-1.04-0.07-1.38-0.24c-0.34-0.17-0.51-0.59-0.51-1.27
									c-0.01-0.64,0.17-1.09,0.52-1.35c0.35-0.26,0.83-0.4,1.41-0.4l3.11-0.01v1.15h-2.56c-0.02,0.01-0.04,0.01-0.06,0.01
									c-0.02,0-0.04,0-0.06,0c-0.05,0-0.1,0-0.14,0c-0.05,0-0.1,0-0.15,0c-0.12,0.01-0.24,0.03-0.36,0.08
									c-0.11,0.05-0.19,0.14-0.22,0.27c-0.06,0.24-0.01,0.41,0.15,0.5c0.15,0.09,0.33,0.14,0.53,0.14l1.31-0.01
									c0.51,0.01,0.94,0.13,1.29,0.36c0.35,0.23,0.53,0.63,0.55,1.2c0,0.01,0,0.01,0,0.02c0,0,0,0.01,0,0.02
									c0.01,0.44-0.12,0.85-0.38,1.21c-0.26,0.36-0.63,0.55-1.12,0.55h-3.73v-1.15H132.83z"/>
							</g>
						</g>
						<g>
							<path class="st3" d="M95.42,79.71c0,1.04-0.13,1.94-0.38,2.7c-0.25,0.76-0.64,1.34-1.15,1.75c-0.52,0.41-1.16,0.61-1.94,0.61
								c-0.79,0-1.44-0.21-1.96-0.62c-0.52-0.41-0.9-1-1.15-1.76c-0.25-0.76-0.38-1.66-0.38-2.69c0-1.65,0.3-2.9,0.89-3.75
								c0.59-0.85,1.46-1.28,2.6-1.28c1.18,0,2.05,0.45,2.62,1.35C95.14,76.93,95.42,78.16,95.42,79.71z M90.41,79.71
								c0,2.26,0.51,3.39,1.54,3.39c0.5,0,0.88-0.28,1.14-0.83c0.26-0.55,0.38-1.41,0.38-2.56c0-2.27-0.51-3.41-1.52-3.41
								C90.93,76.31,90.41,77.44,90.41,79.71z"/>
							<path class="st3" d="M100.17,76.98c0.7,0,1.25,0.34,1.63,1.02c0.38,0.68,0.58,1.65,0.58,2.89c0,1.21-0.19,2.16-0.58,2.84
								c-0.38,0.69-0.91,1.03-1.58,1.03c-0.34,0-0.65-0.09-0.93-0.27c-0.28-0.18-0.52-0.47-0.71-0.85h-0.07
								c0.02,0.29,0.03,0.55,0.04,0.76c0.01,0.21,0.01,0.38,0.01,0.52v3.01h-1.78V77.12h1.44l0.26,0.99h0.1
								c0.23-0.44,0.47-0.74,0.71-0.89C99.54,77.06,99.84,76.98,100.17,76.98z M99.61,78.49c-0.37,0-0.63,0.17-0.8,0.52
								c-0.16,0.35-0.25,0.91-0.25,1.68v0.37c0,0.75,0.08,1.3,0.25,1.64c0.17,0.34,0.43,0.52,0.79,0.52c0.64,0,0.96-0.77,0.96-2.31
								C100.57,79.3,100.25,78.49,99.61,78.49z"/>
							<path class="st3" d="M106.16,83.21c0.26,0,0.54-0.07,0.84-0.21v1.43c-0.41,0.23-0.88,0.34-1.4,0.34
								c-0.64,0-1.11-0.19-1.39-0.58c-0.29-0.39-0.43-0.99-0.43-1.79V78.6h-0.74v-0.96l0.88-0.47l0.43-1.64h1.22v1.58h1.35v1.48
								h-1.35v3.72c0,0.29,0.05,0.51,0.14,0.66C105.78,83.13,105.94,83.21,106.16,83.21z"/>
							<path class="st3" d="M108.91,74.16c0.65,0,0.97,0.34,0.97,1.03c0,0.67-0.33,1-0.97,1c-0.65,0-0.97-0.33-0.97-1
								C107.93,74.51,108.26,74.16,108.91,74.16z M109.8,77.12v7.52h-1.78v-7.52H109.8z"/>
							<path class="st3" d="M116.79,80.86c0,0.7-0.09,1.34-0.28,1.94c-0.19,0.6-0.49,1.07-0.91,1.44c-0.42,0.36-0.98,0.54-1.67,0.54
								c-0.65,0-1.19-0.18-1.61-0.54c-0.42-0.36-0.73-0.83-0.93-1.43c-0.2-0.6-0.3-1.25-0.3-1.95c0-0.76,0.1-1.43,0.3-2.01
								c0.2-0.58,0.51-1.04,0.93-1.37c0.43-0.33,0.97-0.49,1.64-0.49c0.87,0,1.56,0.33,2.07,1
								C116.53,78.64,116.79,79.6,116.79,80.86z M112.89,80.88c0,0.78,0.08,1.37,0.25,1.77c0.16,0.4,0.43,0.6,0.8,0.6
								c0.37,0,0.63-0.2,0.79-0.6c0.16-0.4,0.24-1,0.24-1.81c0-0.79-0.08-1.38-0.24-1.77c-0.16-0.39-0.42-0.59-0.79-0.59
								c-0.37,0-0.63,0.2-0.8,0.58C112.97,79.47,112.89,80.07,112.89,80.88z"/>
							<path class="st3" d="M121.43,76.98c0.63,0,1.12,0.23,1.46,0.69c0.34,0.46,0.51,1.12,0.51,1.99v4.97h-1.78v-4.45
								c0-0.53-0.05-0.93-0.16-1.2c-0.11-0.27-0.31-0.41-0.6-0.41c-0.38,0-0.64,0.19-0.79,0.56c-0.15,0.37-0.23,1-0.23,1.89v3.61
								h-1.78v-7.52h1.41l0.19,0.96h0.11C120.1,77.35,120.66,76.98,121.43,76.98z"/>
							<path class="st3" d="M128.92,82.44c0,0.76-0.21,1.34-0.64,1.74c-0.43,0.4-1.01,0.6-1.76,0.6c-0.74,0-1.4-0.14-1.96-0.43
								v-1.73c0.24,0.16,0.52,0.31,0.84,0.43c0.32,0.12,0.64,0.18,0.96,0.18c0.52,0,0.78-0.23,0.78-0.69c0-0.18-0.07-0.35-0.2-0.52
								c-0.13-0.16-0.44-0.36-0.93-0.61c-0.47-0.26-0.83-0.57-1.08-0.93c-0.26-0.37-0.38-0.82-0.38-1.36c0-0.66,0.21-1.18,0.62-1.56
								c0.41-0.38,0.97-0.57,1.69-0.57c0.37,0,0.71,0.05,1.03,0.15c0.32,0.1,0.64,0.25,0.96,0.44l-0.49,1.37
								c-0.21-0.15-0.43-0.27-0.67-0.36c-0.24-0.1-0.48-0.14-0.73-0.14c-0.45,0-0.67,0.2-0.67,0.59c0,0.13,0.03,0.24,0.08,0.34
								s0.16,0.2,0.32,0.32c0.16,0.11,0.39,0.26,0.7,0.45c0.46,0.27,0.83,0.57,1.12,0.92C128.78,81.4,128.92,81.86,128.92,82.44z"/>
						</g>
					</g>
				</g>
			</g>
		</g>
	</g>
</g>
</svg>
