<?xml version="1.0" encoding="utf-8"?>
<!-- Generator: Adobe Illustrator 23.0.1, SVG Export Plug-In . SVG Version: 6.00 Build 0)  -->
<svg version="1.1" id="Layer_1" xmlns="http://www.w3.org/2000/svg" xmlns:xlink="http://www.w3.org/1999/xlink" x="0px" y="0px"
	 viewBox="0 0 80 90" style="enable-background:new 0 0 80 90;" xml:space="preserve">
<style type="text/css">
	.st0{fill:#6F2C90;}
	.st1{fill:#224099;}
</style>
<g>
	<path class="st0" d="M64.2,90c-4.9-0.1-9.9-0.4-14.7-1.2c-0.9-0.1-1-0.2-0.9-1.1c0.1-2.9,0-5.9,0.3-8.8c0.4-3.2,2.2-5.6,4.9-7.2
		c1.4-0.9,1.4-0.8,2.6,0.3c4.5,4.2,10.9,4.4,15.6,0.3c0.4-0.3,0.7-0.6,1.1-0.9c0.4-0.4,0.9-0.4,1.4-0.1c3.1,2,5.3,4.6,5.5,8.5
		c0.1,2.5,0.1,5,0.1,7.5c0,0.1,0,0.2,0,0.3c-0.1,1.1-0.1,1.1-1.1,1.3c-4,0.4-8,0.8-12.1,1.2C65.9,90,65.1,90,64.2,90z"/>
	<path class="st0" d="M55.9,63.8c0-4.5,3.9-8.3,8.3-8.3c4.7,0,8.5,3.8,8.5,8.4c0,4.6-3.8,8.3-8.4,8.3C59.7,72.2,55.9,68.4,55.9,63.8
		z"/>
</g>
<g>
	<path class="st0" d="M40,34.5c-4.9-0.1-9.9-0.4-14.7-1.2c-0.9-0.1-1-0.2-0.9-1.1c0.1-2.9,0-5.9,0.3-8.8c0.4-3.2,2.2-5.6,4.9-7.2
		c1.4-0.9,1.4-0.8,2.6,0.3c4.5,4.2,10.9,4.4,15.6,0.3c0.4-0.3,0.7-0.6,1.1-0.9c0.4-0.4,0.9-0.4,1.4-0.1c3.1,2,5.3,4.6,5.5,8.5
		c0.1,2.5,0.1,5,0.1,7.5c0,0.1,0,0.2,0,0.3c-0.1,1.1-0.1,1.1-1.1,1.3c-4,0.4-8,0.8-12.1,1.2C41.7,34.5,40.8,34.5,40,34.5z"/>
	<path class="st0" d="M31.7,8.3c0-4.5,3.9-8.3,8.3-8.3c4.7,0,8.5,3.8,8.5,8.4c0,4.6-3.8,8.3-8.4,8.3C35.4,16.7,31.6,12.8,31.7,8.3z"
		/>
</g>
<g>
	<path class="st0" d="M15.3,90C11.1,90.1,6,89.5,1,88.7c-0.7-0.1-1-0.4-1-1c0-2.5,0-4.9,0-7.4c0.1-3.5,1.7-6.1,4.3-8.2
		c0.6-0.5,1.2-0.8,1.9-1.1c0.2-0.1,0.5,0,0.7,0.2c1.2,0.9,2.2,2,3.4,2.6c4.3,2.4,9.5,1.6,13.1-1.7c0.3-0.3,0.7-0.6,1-0.9
		c0.3-0.3,0.5-0.3,0.9-0.1c3.5,2,5.8,4.9,6,9.1c0.1,2.3,0.1,4.7,0.1,7c0,1.3-0.2,1.5-1.4,1.7C25.5,89.6,20.9,89.9,15.3,90z"/>
	<path class="st0" d="M15.7,72.2c-4.3,0.2-8.3-3.5-8.3-8.4c0-4.4,3.9-8.3,8.4-8.3c5,0,8.3,4.8,8.3,8.4
		C24.1,68.2,19.9,72.5,15.7,72.2z"/>
</g>
<path class="st1" d="M36.9,45.3c0-1.9,0-3.7,0-5.6c0-1.3,0.8-2.2,2-2.5c1.2-0.3,2.4-0.2,3.4,0.7c0.4,0.4,0.7,1.1,0.7,1.7
	c0.1,2.4,0.1,4.8,0.2,7.2c0,1,0,2,0,3c0,0.4,0.1,0.7,0.5,0.9c2.1,1.2,4.2,2.5,6.3,3.8c0.9,0.5,1.8,1.1,2.7,1.7
	c1.2,0.8,1.5,2.4,0.8,3.9c-0.7,1.4-2.2,2.2-3.6,1.6c-1-0.4-1.9-0.9-2.8-1.4c-2.2-1.2-4.3-2.4-6.5-3.7c-0.4-0.2-0.8-0.2-1.2,0
	c-2.5,1.5-5.1,2.9-7.7,4.3c-0.4,0.2-0.9,0.5-1.4,0.6c-1.5,0.6-3,0-3.8-1.4c-0.8-1.4-0.5-3.2,0.8-4.1c2.4-1.5,4.8-2.9,7.2-4.3
	c0.7-0.4,1.7-0.7,2.1-1.3c0.4-0.6,0.1-1.6,0.1-2.5c0-0.9,0-1.8,0-2.7C36.8,45.3,36.9,45.3,36.9,45.3z"/>
</svg>
