<?xml version="1.0" encoding="utf-8"?>
<!-- Generator: Adobe Illustrator 23.0.1, SVG Export Plug-In . SVG Version: 6.00 Build 0)  -->
<svg version="1.1" id="Layer_1" xmlns="http://www.w3.org/2000/svg" xmlns:xlink="http://www.w3.org/1999/xlink" x="0px" y="0px"
	 viewBox="0 0 770 600" style="enable-background:new 0 0 770 600;" xml:space="preserve">
<style type="text/css">
	.st0{fill:#FFFFFF;}
	.st1{fill:#6F2C90;}
	.st2{fill:#F1F1F2;}
	.st3{fill:#A2D9DA;}
	.st4{fill:#224099;}
	.st5{fill:none;stroke:#F1F1F2;stroke-width:0.739;stroke-miterlimit:10;}
	.st6{fill:#284294;}
	.st7{fill:#A1D8D9;}
	.st8{fill:#6E308B;}
	.st9{fill:#F2F2F2;}
	.st10{fill:#F1F1F1;}
	.st11{fill:#CBCBCB;}
	.st12{fill:none;stroke:#9F66A9;stroke-width:2.3155;stroke-miterlimit:10;}
</style>
<g>
	<g>
		<g>
			<g>
				<path class="st0" d="M760.45,0.06L554.67,27.13c-5.42,0.72-9.91,6.61-10.02,13.17v0c-0.11,6.56-4.6,12.39-10.02,13.02
					L160.96,97.7c-5.42,0.65-9.85,5.18-9.9,10.11l-3.39,345.27c-0.05,4.92,4.25,9.71,9.61,10.71L729.5,571.76
					c5.35,1.02,9.81-4.14,9.96-11.53l9.08-454.31c0.15-7.4,4.65-13.76,10.07-14.19l0,0c5.41-0.43,9.92-6.85,10.07-14.34L770,12.33
					C770.15,4.85,765.87-0.65,760.45,0.06z"/>
			</g>
			<g>
				<path class="st1" d="M562.67,40.45c-0.06,3.18-2.21,6.02-4.81,6.33c-2.6,0.31-4.67-2-4.61-5.16c0.06-3.16,2.21-6,4.81-6.33
					C560.66,34.96,562.72,37.27,562.67,40.45z"/>
			</g>
			<g>
				<path class="st2" d="M729.9,19.93c-0.07,3.51-2.23,6.61-4.84,6.92c-2.6,0.31-4.65-2.27-4.59-5.77c0.07-3.5,2.23-6.59,4.84-6.92
					C727.92,13.83,729.97,16.42,729.9,19.93z"/>
			</g>
			<g>
				<path class="st3" d="M746.39,17.92c-0.07,3.55-2.24,6.67-4.84,6.98c-2.6,0.31-4.65-2.3-4.58-5.83c0.07-3.53,2.24-6.65,4.84-6.98
					C744.41,11.76,746.46,14.37,746.39,17.92z"/>
			</g>
			<g>
				<path class="st4" d="M762.88,15.91c-0.07,3.58-2.24,6.73-4.84,7.04c-2.6,0.31-4.65-2.33-4.58-5.89
					c0.07-3.56,2.24-6.71,4.84-7.04C760.9,9.69,762.95,12.33,762.88,15.91z"/>
			</g>
			<path class="st2" d="M686.21,32.5L575.48,45.63c-3.22,0.38-5.81-2.56-5.73-6.54v0c0.07-3.98,2.77-7.57,5.99-7.99l110.78-14.13
				c3.23-0.41,5.8,2.76,5.71,7.04v0C692.14,28.3,689.44,32.12,686.21,32.5z"/>
		</g>
		<g>
			<g>
				<path class="st1" d="M204.31,112.25c-0.06,5.15-4.49,9.75-9.91,10.27c-5.41,0.52-9.76-3.16-9.71-8.23
					c0.05-5.07,4.49-9.67,9.91-10.27C200.02,103.41,204.37,107.1,204.31,112.25z"/>
			</g>
			<g>
				<path class="st0" d="M197.14,111.3c0.64,0.61,1.38,1.16,2.21,1.64l0,0.08c-0.84,0.65-1.59,1.35-2.25,2.1
					c-0.66,0.75-1.33,1.67-2,2.77l-0.89-0.61c1.09-1.64,2.15-2.87,3.18-3.66c-0.86,0.16-1.68,0.28-2.47,0.36l-5.06,0.52l0.01-1.07
					l5.06-0.53c0.79-0.08,1.61-0.13,2.47-0.15c-1.01-0.59-2.04-1.59-3.1-3.01l0.91-0.8C195.85,109.9,196.5,110.69,197.14,111.3z"/>
			</g>
		</g>
		<g>
			<g>
				<path class="st1" d="M159.59,116.91c0.05-4.97,4.48-9.49,9.89-10.09c5.42-0.61,9.77,2.99,9.72,8.04
					c-0.05,5.05-4.48,9.57-9.89,10.09C163.9,125.48,159.55,121.88,159.59,116.91z"/>
			</g>
			<g>
				<path class="st0" d="M166.77,117.84c-0.64-0.59-1.38-1.12-2.21-1.59l0-0.08c0.84-0.64,1.59-1.33,2.25-2.06
					c0.66-0.73,1.33-1.64,2-2.72l0.89,0.59c-1.09,1.62-2.15,2.82-3.17,3.6c0.86-0.16,1.68-0.28,2.47-0.37l5.06-0.53l-0.01,1.06
					l-5.06,0.53c-0.79,0.08-1.61,0.13-2.47,0.15c1.01,0.57,2.05,1.55,3.11,2.94l-0.9,0.78
					C168.07,119.21,167.42,118.44,166.77,117.84z"/>
			</g>
		</g>
		<path class="st2" d="M523.49,88.31L223.02,117.5c-4.73,0.46-8.55-2.88-8.5-7.43v0c0.05-4.55,3.96-8.71,8.69-9.23l300.63-33.14
			c4.73-0.52,8.52,3.73,8.42,9.43v0C532.16,82.82,528.22,87.86,523.49,88.31z"/>
		<g>
			<line class="st5" x1="159.44" y1="131.65" x2="753.79" y2="78.16"/>
		</g>
	</g>
	<g>
		<g>
			<path class="st6" d="M641.32,77.02L641.32,77.02c-0.53,34.83-28.4,65.07-47.66,66.29L51.11,177.73
				c-19.26,1.22-50.89-14.41-50.89-35.98v0L641.32,77.02z"/>
		</g>
		<g>
			<path class="st7" d="M297.08,145.82l-65.4,4.94c-3.73,0.28-6.75-2.45-6.73-6.07v0c0.03-3.62,3.1-6.85,6.82-7.17l65.43-5.63
				c3.73-0.32,6.75,2.56,6.71,6.41v0C303.88,142.16,300.81,145.54,297.08,145.82z"/>
		</g>
		<g>
			<path class="st7" d="M392.84,138.58l-65.4,4.94c-3.73,0.28-6.74-2.67-6.71-6.57v0c0.04-3.89,3.12-7.34,6.84-7.66l65.43-5.63
				c3.73-0.32,6.74,2.79,6.69,6.91v0C399.66,134.69,396.57,138.29,392.84,138.58z"/>
		</g>
		<g>
			<path class="st7" d="M488.61,131.34l-65.4,4.94c-3.73,0.28-6.73-2.9-6.69-7.07v0c0.05-4.17,3.14-7.84,6.86-8.16l65.43-5.63
				c3.73-0.32,6.73,3.01,6.67,7.41v0C495.43,127.23,492.33,131.05,488.61,131.34z"/>
		</g>
		<g>
			<path class="st8" d="M593.71,123.39l-65.4,4.94c-3.73,0.28-6.72-3.14-6.66-7.61v0c0.06-4.47,3.16-8.39,6.89-8.71l65.43-5.63
				c3.73-0.32,6.72,3.26,6.65,7.95v0C600.54,119.04,597.44,123.11,593.71,123.39z"/>
		</g>
		<g>
			<g>
				<path class="st9" d="M45.51,155.04c-1.96,0.17-3.54,1.62-3.55,3.24c0,1.63,1.58,2.82,3.54,2.66c1.96-0.15,3.54-1.61,3.55-3.24
					C49.05,156.06,47.47,154.87,45.51,155.04z"/>
				<path class="st9" d="M57.59,153.32c0.08-0.09,0.15-0.18,0.21-0.28c0.37-0.54,0.57-1.16,0.52-1.8c-0.11-1.47-1.52-2.55-3.28-2.5
					c-2.07,0.07-3.79,1.59-3.8,3.3c0,0.56,0.18,1.06,0.5,1.48c0.08,0.1,0.16,0.2,0.25,0.29c0.06,0.06,0.12,0.12,0.17,0.18
					c0.78,0.95,1.22,2.06,1.21,3.27c0,0.03,0,0.06,0,0.09c0,0.03,0,0.06,0,0.09c0,1.21-0.44,2.39-1.23,3.47
					c-0.05,0.07-0.11,0.14-0.18,0.21c-0.09,0.1-0.18,0.21-0.25,0.33c-0.32,0.47-0.5,1-0.5,1.56c0,1.71,1.72,2.95,3.78,2.68
					c1.76-0.23,3.18-1.54,3.29-3.03c0.05-0.65-0.15-1.24-0.52-1.71c-0.07-0.08-0.14-0.17-0.21-0.24c-0.05-0.05-0.1-0.1-0.15-0.16
					c-0.8-0.97-1.25-2.1-1.25-3.33c0-0.03,0-0.05,0-0.08c0-0.03,0-0.05,0-0.08c0-1.23,0.46-2.43,1.26-3.53
					C57.49,153.44,57.54,153.38,57.59,153.32z"/>
				<path class="st9" d="M82.7,151.89c-1.96,0.17-3.54,1.66-3.55,3.34c0,1.68,1.58,2.92,3.53,2.76c1.96-0.15,3.54-1.65,3.55-3.34
					C86.23,152.96,84.65,151.73,82.7,151.89z"/>
				<path class="st9" d="M76.3,151.63c0.06-0.07,0.11-0.15,0.16-0.23c0.32-0.48,0.5-1.03,0.51-1.6c0-1.75-1.71-3-3.78-2.69
					c-1.76,0.26-3.18,1.61-3.29,3.11c-0.05,0.66,0.15,1.25,0.51,1.73c0.05,0.06,0.09,0.12,0.15,0.17c0.17,0.19,0.34,0.38,0.48,0.58
					c0.63,0.9,0.98,1.92,0.98,3.02c0,0.03,0,0.06,0,0.08c0,0.03,0,0.06,0,0.08c0,1.1-0.36,2.18-1,3.18
					c-0.15,0.23-0.31,0.45-0.49,0.66c-0.05,0.06-0.1,0.13-0.15,0.2c-0.37,0.54-0.57,1.17-0.52,1.81c0.1,1.49,1.52,2.6,3.28,2.58
					c2.07-0.03,3.79-1.56,3.8-3.31c0-0.57-0.18-1.09-0.5-1.52c-0.05-0.07-0.1-0.14-0.16-0.2c-0.22-0.25-0.44-0.51-0.62-0.79
					c-0.55-0.86-0.85-1.81-0.85-2.84c0-0.03,0-0.06,0-0.09c0-0.03,0-0.06,0-0.09c0-1.03,0.31-2.03,0.87-2.98
					C75.86,152.21,76.08,151.92,76.3,151.63z"/>
				<path class="st9" d="M66.99,146.87c0.05-0.06,0.1-0.13,0.15-0.2c0.37-0.54,0.57-1.17,0.52-1.82c-0.1-1.49-1.52-2.57-3.28-2.5
					c-2.07,0.08-3.8,1.62-3.8,3.34c0,0.56,0.18,1.07,0.5,1.49c0.05,0.07,0.1,0.13,0.16,0.19c0.23,0.24,0.44,0.49,0.62,0.77
					c0.55,0.84,0.86,1.78,0.85,2.8c0,0.03,0,0.06,0,0.09c0,0.03,0,0.06,0,0.09c0,1.02-0.31,2.01-0.87,2.95
					c-0.18,0.3-0.4,0.59-0.63,0.88c-0.06,0.07-0.11,0.15-0.16,0.22c-0.29,0.43-0.47,0.92-0.5,1.42c0,0.03,0,0.06,0,0.08
					c0,0.02,0,0.05,0,0.07c0,0,0,0.01,0,0.01c0,0,0,0.01,0,0.01c0,0.02,0,0.05,0,0.07c0,0.03,0,0.06,0,0.08
					c0.03,0.5,0.2,0.96,0.49,1.34c0.05,0.07,0.1,0.13,0.16,0.2c0.23,0.25,0.44,0.5,0.62,0.77c0.55,0.85,0.86,1.79,0.85,2.81
					c0,0.03,0,0.06,0,0.09c0,0.03,0,0.06,0,0.09c0,1.02-0.31,2.01-0.87,2.94c-0.18,0.3-0.4,0.59-0.63,0.87
					c-0.06,0.07-0.11,0.15-0.16,0.22c-0.32,0.47-0.5,1.01-0.5,1.57c0,1.72,1.71,2.99,3.78,2.72c1.76-0.22,3.18-1.54,3.29-3.04
					c0.05-0.65-0.15-1.25-0.51-1.73c-0.05-0.06-0.09-0.12-0.15-0.17c-0.17-0.19-0.34-0.38-0.48-0.59c-0.63-0.9-0.98-1.91-0.98-3.01
					c0-0.03,0-0.06,0-0.08c0-0.03,0-0.05,0-0.08c0-1.09,0.36-2.16,0.99-3.16c0.15-0.23,0.31-0.45,0.49-0.66
					c0.05-0.06,0.1-0.13,0.15-0.2c0.34-0.49,0.53-1.05,0.53-1.63c0-0.58-0.19-1.11-0.52-1.55c-0.05-0.06-0.09-0.12-0.15-0.17
					c-0.17-0.19-0.34-0.38-0.48-0.58c-0.63-0.89-0.98-1.9-0.98-3c0-0.03,0-0.06,0-0.08c0-0.03,0-0.05,0-0.08
					c0-1.09,0.36-2.17,0.99-3.17C66.65,147.31,66.82,147.09,66.99,146.87z"/>
			</g>
			<g>
				<g>
					<path class="st9" d="M96.33,142.3c0.55-0.71,1.77-1.16,3.64-1.33l2.91-0.28l-0.01,1.39l-3.07,0.28
						c-0.8,0.09-1.39,0.29-1.77,0.61c-0.38,0.32-0.59,0.84-0.63,1.55l5.46-0.5l0,1.38l-5.46,0.49l-0.01,3.25l-1.91,0.16l0.01-3.64
						C95.5,144.13,95.78,143.01,96.33,142.3z"/>
					<path class="st9" d="M103.96,142.04l0.01-1.46l1.85-0.17l-0.01,1.46L103.96,142.04z M103.94,148.56l0.02-5.85l1.85-0.17
						l-0.02,5.86L103.94,148.56z"/>
					<path class="st9" d="M110.64,142.1c0.88-0.07,1.56,0.02,2.05,0.27c0.49,0.25,0.73,0.8,0.73,1.65l-0.01,3.73l-1.76,0.15
						l0.01-3.55c0-0.41-0.07-0.68-0.22-0.81c-0.15-0.13-0.46-0.17-0.94-0.13l-1.42,0.12l-0.02,4.59l-1.76,0.15l0.02-5.87
						L110.64,142.1z"/>
					<path class="st9" d="M117.52,139.33l3.69,5.47l-0.06-5.81l1.95-0.18l-0.03,8.11l-2.21,0.19l-3.88-5.77l0.06,6.09l-1.96,0.17
						l0.03-8.05L117.52,139.33z"/>
					<path class="st9" d="M126.33,146.49c-0.44-0.06-0.83-0.24-1.17-0.54c-0.27-0.24-0.46-0.53-0.58-0.85
						c-0.12-0.33-0.19-0.67-0.22-1.02c0-0.04,0-0.08,0-0.11c0-0.04,0-0.08,0-0.11c0-0.05,0-0.1,0-0.15c0-0.05,0-0.1,0.01-0.15
						c0.03-0.34,0.1-0.68,0.23-1.02c0.12-0.34,0.32-0.65,0.58-0.93c0.34-0.36,0.73-0.61,1.17-0.76c0.44-0.14,0.9-0.23,1.37-0.28
						l2.57-0.25l-0.01,1.25l-2.33,0.21c-0.49,0.05-0.88,0.15-1.18,0.3c-0.3,0.15-0.45,0.48-0.47,0.98l3.97-0.36l-0.01,1.25
						l-3.97,0.35c0.01,0.52,0.16,0.82,0.44,0.91c0.28,0.09,0.67,0.11,1.19,0.07l2.34-0.21l-0.01,1.25l-2.57,0.22
						C127.23,146.56,126.77,146.55,126.33,146.49z"/>
					<path class="st9" d="M130.67,140.28l2.05-0.19l1.42,1.68l1.48-1.95l2.02-0.18l-2.48,3.27l2.41,2.76l-2.05,0.18l-1.4-1.62
						l-1.42,1.87l-2.04,0.17l2.47-3.21L130.67,140.28z"/>
					<path class="st9" d="M141.1,145.37c-0.85,0.07-1.53-0.02-2.02-0.28c-0.5-0.26-0.74-0.82-0.74-1.67l0.02-3.83l1.76-0.16
						l-0.02,3.7c0,0.41,0.08,0.67,0.25,0.79c0.17,0.12,0.47,0.17,0.9,0.13l1.42-0.13l0.02-4.72l1.76-0.16l-0.03,6.06L141.1,145.37z"
						/>
					<path class="st9" d="M149.61,143.37c0.02,0.01,0.03,0.01,0.05,0.01s0.03,0,0.05,0c0.21-0.03,0.4-0.09,0.58-0.18
						c0.18-0.09,0.27-0.26,0.27-0.5c0-0.22-0.08-0.37-0.25-0.43c-0.17-0.06-0.35-0.09-0.54-0.09c-0.03,0-0.05,0-0.08,0.01
						c-0.03,0-0.05,0-0.08,0.01l-1.52,0.12c-0.71,0.07-1.27,0.03-1.67-0.12c-0.41-0.15-0.61-0.6-0.62-1.35
						c0-0.71,0.21-1.22,0.64-1.55c0.43-0.33,1.01-0.53,1.72-0.59l3.78-0.36l-0.01,1.27l-3.11,0.28c-0.03,0.01-0.05,0.02-0.07,0.02
						c-0.02,0-0.04,0-0.07,0.01c-0.06,0.01-0.12,0.01-0.17,0.02c-0.05,0-0.12,0.01-0.18,0.02c-0.15,0.02-0.3,0.07-0.44,0.13
						c-0.14,0.07-0.23,0.17-0.27,0.32c-0.07,0.28-0.01,0.45,0.17,0.54c0.18,0.08,0.4,0.11,0.64,0.09l1.59-0.15
						c0.62-0.05,1.15,0.04,1.57,0.26c0.42,0.22,0.64,0.65,0.66,1.28c0,0.01,0,0.01,0,0.02c0,0,0,0.01,0,0.02
						c0.01,0.49-0.15,0.96-0.47,1.39c-0.32,0.43-0.77,0.67-1.36,0.72l-4.54,0.39l0.01-1.27L149.61,143.37z"/>
				</g>
				<g>
					<path class="st3" d="M104.09,157.04c0,1.11-0.16,2.09-0.47,2.92c-0.31,0.83-0.78,1.48-1.41,1.97
						c-0.63,0.48-1.42,0.76-2.36,0.83c-0.96,0.07-1.75-0.09-2.38-0.48c-0.63-0.39-1.09-0.98-1.4-1.76c-0.3-0.78-0.45-1.72-0.45-2.82
						c0.01-1.75,0.37-3.1,1.09-4.06c0.72-0.96,1.78-1.5,3.17-1.62c1.44-0.12,2.5,0.27,3.18,1.18
						C103.75,154.1,104.09,155.38,104.09,157.04z M98,157.52c-0.01,2.4,0.61,3.56,1.86,3.46c0.61-0.05,1.07-0.38,1.39-0.99
						c0.31-0.61,0.47-1.54,0.48-2.77c0.01-2.42-0.6-3.58-1.84-3.48C98.63,153.85,98,155.11,98,157.52z"/>
					<path class="st3" d="M109.87,153.66c0.86-0.07,1.52,0.24,1.98,0.94c0.46,0.7,0.69,1.71,0.69,3.05
						c-0.01,1.3-0.24,2.34-0.71,3.11c-0.47,0.77-1.11,1.19-1.92,1.25c-0.41,0.03-0.79-0.04-1.13-0.21
						c-0.34-0.17-0.63-0.45-0.86-0.85l-0.08,0.01c0.02,0.31,0.04,0.58,0.05,0.81c0.01,0.23,0.02,0.41,0.01,0.56l-0.01,3.22
						l-2.17,0.15l0.04-11.56l1.75-0.14l0.31,1.03l0.12-0.01c0.28-0.49,0.57-0.84,0.87-1.03C109.1,153.8,109.46,153.69,109.87,153.66
						z M109.18,155.33c-0.45,0.04-0.77,0.25-0.97,0.64c-0.2,0.39-0.3,1-0.31,1.82l0,0.4c0,0.8,0.1,1.38,0.3,1.74
						c0.2,0.35,0.52,0.51,0.96,0.48c0.78-0.06,1.17-0.91,1.18-2.57C110.35,156.1,109.96,155.27,109.18,155.33z"/>
					<path class="st3" d="M117.12,159.79c0.31-0.02,0.65-0.12,1.02-0.3l-0.01,1.54c-0.5,0.28-1.07,0.45-1.7,0.5
						c-0.78,0.06-1.34-0.11-1.69-0.5c-0.35-0.39-0.52-1.02-0.52-1.89l0.02-4.08l-0.9,0.07l0-1.04l1.07-0.59l0.52-1.8l1.49-0.12
						l-0.01,1.71l1.64-0.13l-0.01,1.6l-1.64,0.13l-0.02,4.02c0,0.32,0.05,0.55,0.16,0.7C116.66,159.74,116.85,159.81,117.12,159.79z
						"/>
					<path class="st3" d="M120.5,149.75c0.79-0.07,1.18,0.27,1.18,1.02c0,0.72-0.4,1.12-1.19,1.18c-0.79,0.06-1.18-0.26-1.18-0.99
						C119.31,150.22,119.71,149.81,120.5,149.75z M121.57,152.86l-0.03,8.15l-2.17,0.16l0.03-8.13L121.57,152.86z"/>
					<path class="st3" d="M130.05,156.25c0,0.76-0.12,1.47-0.35,2.14c-0.23,0.67-0.6,1.22-1.12,1.65c-0.51,0.43-1.19,0.68-2.04,0.74
						c-0.79,0.06-1.44-0.09-1.95-0.44c-0.51-0.35-0.89-0.84-1.13-1.47c-0.24-0.63-0.36-1.32-0.36-2.09c0-0.82,0.13-1.56,0.37-2.21
						c0.24-0.65,0.62-1.18,1.14-1.58c0.52-0.4,1.18-0.63,2-0.7c1.06-0.09,1.9,0.21,2.52,0.88
						C129.74,153.86,130.05,154.88,130.05,156.25z M125.31,156.65c0,0.85,0.09,1.48,0.29,1.9c0.2,0.42,0.52,0.62,0.96,0.58
						c0.44-0.03,0.77-0.27,0.96-0.72c0.2-0.45,0.3-1.11,0.3-1.99c0-0.86-0.09-1.49-0.28-1.91c-0.19-0.41-0.51-0.6-0.96-0.57
						c-0.45,0.04-0.77,0.27-0.97,0.71C125.41,155.1,125.31,155.76,125.31,156.65z"/>
					<path class="st3" d="M135.71,151.56c0.77-0.06,1.36,0.14,1.77,0.61c0.41,0.47,0.62,1.18,0.62,2.14l-0.03,5.47l-2.17,0.16
						l0.02-4.88c0-0.58-0.06-1.02-0.19-1.3c-0.13-0.29-0.38-0.41-0.73-0.39c-0.46,0.04-0.78,0.27-0.96,0.69
						c-0.19,0.42-0.28,1.12-0.28,2.09l-0.02,3.96l-2.17,0.16l0.04-8.22l1.72-0.14l0.23,1.03l0.13-0.01
						C134.1,152.09,134.77,151.64,135.71,151.56z"/>
					<path class="st3" d="M144.79,156.85c0,0.84-0.27,1.5-0.79,1.98c-0.52,0.48-1.24,0.75-2.15,0.82c-0.9,0.07-1.7-0.03-2.38-0.29
						l0.01-1.91c0.29,0.16,0.63,0.29,1.02,0.39c0.39,0.1,0.78,0.14,1.17,0.11c0.63-0.05,0.95-0.32,0.95-0.83
						c0-0.2-0.08-0.39-0.24-0.55c-0.16-0.16-0.53-0.36-1.12-0.59c-0.57-0.24-1-0.55-1.31-0.93c-0.31-0.38-0.46-0.87-0.46-1.46
						c0-0.73,0.26-1.32,0.76-1.78c0.5-0.46,1.19-0.72,2.06-0.79c0.44-0.04,0.86-0.01,1.25,0.07c0.39,0.08,0.78,0.21,1.17,0.39
						l-0.61,1.57c-0.26-0.14-0.53-0.25-0.82-0.34c-0.29-0.08-0.58-0.11-0.88-0.09c-0.55,0.04-0.82,0.28-0.82,0.72
						c0,0.14,0.03,0.26,0.1,0.36c0.07,0.1,0.19,0.21,0.38,0.32c0.19,0.11,0.47,0.25,0.85,0.43c0.55,0.25,1.01,0.55,1.36,0.91
						C144.62,155.72,144.79,156.22,144.79,156.85z"/>
				</g>
			</g>
		</g>
	</g>
	<g>
		<g>
			<path class="st10" d="M618.06,502.12L16.91,409.11c-9.18-1.42-16.7-8.65-16.7-16.06v0c0-7.41,7.52-12.51,16.72-11.32l601.78,77.3
				c9.19,1.18,16.57,11.94,16.38,23.91v0C634.91,494.91,627.25,503.54,618.06,502.12z"/>
		</g>
		<g>
			<path class="st8" d="M291.21,445.78l-113.48-17.06c-6.01-0.9-10.89-6.25-10.86-11.87l0,0c0.03-5.63,4.97-9.58,10.99-8.78
				l113.56,15.12c6.01,0.8,10.88,6.58,10.82,12.84v0C302.17,442.3,297.21,446.68,291.21,445.78z"/>
		</g>
		<g>
			<path class="st6" d="M143.89,423.63l-41.54-6.24c-6.01-0.9-10.91-5.96-10.89-11.23v0c0.02-5.27,4.95-8.93,10.96-8.13l41.57,5.54
				c6.01,0.8,10.9,6.01,10.87,11.58l0,0C154.83,420.72,149.9,424.54,143.89,423.63z"/>
		</g>
		<g>
			<path class="st6" d="M608.96,493.55l-59.95-9.01c-6.01-0.9-10.84-7.67-10.74-15.04v0c0.1-7.37,5.1-12.75,11.11-11.95l60,7.99
				c6.01,0.8,10.83,7.8,10.71,15.56v0C619.98,488.85,614.97,494.45,608.96,493.55z"/>
		</g>
		<g>
			<path class="st11" d="M78.6,407.5l-64.25-9.29c-1.88-0.27-3.43-1.75-3.43-3.29v0c0-1.54,1.54-2.58,3.43-2.31l64.27,8.95
				c1.89,0.26,3.42,1.82,3.42,3.46v0C82.03,406.65,80.49,407.77,78.6,407.5z"/>
		</g>
		<g>
			<path class="st11" d="M520.65,471.42l-174.76-25.27c-1.88-0.27-3.41-2.15-3.39-4.18l0,0c0.02-2.02,1.58-3.47,3.46-3.2
				l174.8,24.34c1.89,0.26,3.4,2.35,3.37,4.64l0,0C524.1,470.04,522.53,471.69,520.65,471.42z"/>
		</g>
	</g>
	<g>
		<g>
			<path class="st10" d="M286.99,396.54L26.52,367.02C11.93,365.36,0,354.4,0,342.66V220.97c0-11.74,12.01-21.9,26.69-22.57
				l262.14-11.94c14.68-0.67,26.57,11.31,26.43,26.62l-1.49,158.62C313.63,387.02,301.58,398.19,286.99,396.54z"/>
		</g>
		<g>
			<path class="st10" d="M609.29,433.06l-260.47-29.52c-14.58-1.65-26.4-15.61-26.25-31.02l1.53-159.66
				c0.15-15.41,12.28-28.56,26.96-29.23l262.14-11.94c14.68-0.67,26.45,14.31,26.16,33.28l-3.01,196.59
				C636.05,420.54,623.88,434.72,609.29,433.06z"/>
		</g>
		<g>
			<path class="st11" d="M373.79,242.7l-25.85,0.08c-1.9,0.01-3.43-1.65-3.41-3.67l0,0c0.02-2.02,1.59-3.69,3.48-3.71l25.86-0.22
				c1.9-0.02,3.43,1.67,3.41,3.74v0C377.26,240.99,375.69,242.69,373.79,242.7z"/>
		</g>
		<g>
			<path class="st11" d="M373.14,304.24l-25.81-1.05c-1.89-0.08-3.42-1.8-3.4-3.82l0,0c0.02-2.02,1.59-3.63,3.48-3.56l25.81,0.91
				c1.89,0.07,3.42,1.82,3.4,3.89l0,0C376.6,302.68,375.03,304.31,373.14,304.24z"/>
		</g>
		<g>
			<path class="st11" d="M372.48,365.78l-25.76-2.18c-1.89-0.16-3.42-1.95-3.4-3.97l0,0c0.02-2.02,1.58-3.56,3.47-3.41l25.77,2.04
				c1.89,0.15,3.42,1.97,3.4,4.04l0,0C375.94,364.37,374.37,365.94,372.48,365.78z"/>
		</g>
		<g>
			<path class="st6" d="M462.33,208.49l-111.27,2.85c-3.44,0.09-6.22-2.84-6.19-6.51v0c0.04-3.67,2.88-6.77,6.32-6.89l111.31-3.93
				c3.44-0.12,6.22,3.05,6.17,7.05v0C468.63,205.06,465.77,208.4,462.33,208.49z"/>
		</g>
		<g>
			<g>
				<g>
					<path class="st0" d="M128.15,251.59l-91.75-0.36c-13.98-0.06-25.41-9.37-25.41-20.69v0c0-11.33,11.46-21,25.46-21.49l91.9-3.24
						c14-0.49,25.4,9.63,25.33,22.5v0C153.62,241.16,142.13,251.64,128.15,251.59z"/>
				</g>
				<path class="st11" d="M89.23,232.68l-41.38,0.52c-6.05,0.08-10.99-3.96-10.98-8.98v0c0.01-5.02,4.96-9.27,11.01-9.45l41.41-1.23
					c6.05-0.18,10.98,4.02,10.97,9.33v0C100.24,228.2,95.27,232.6,89.23,232.68z"/>
				<g>
					<path class="st7" d="M111.38,243.87l-58.17,0.16c-1.9,0.01-3.44-1.29-3.44-2.89v0c0-1.59,1.56-2.91,3.45-2.92l58.18-0.47
						c1.9-0.02,3.44,1.35,3.44,3.04l0,0C114.84,242.48,113.28,243.87,111.38,243.87z"/>
				</g>
				<g>
					<path class="st6" d="M119.19,231.92l-0.86,0.01c-5.93,0.08-10.76-4.15-10.74-9.39v0c0.02-5.24,4.89-9.67,10.82-9.85l0.86-0.03
						c5.93-0.18,10.76,4.05,10.74,9.4v0C129.98,227.4,125.12,231.84,119.19,231.92z"/>
				</g>
			</g>
			<g>
				<g>
					<path class="st0" d="M127.9,309.02l-91.57-4.89c-13.95-0.74-25.36-10.62-25.36-21.95v0c0-11.33,11.44-20.43,25.41-20.24
						l91.72,1.28c13.97,0.2,25.35,10.88,25.28,23.75v0C153.32,299.84,141.85,309.76,127.9,309.02z"/>
				</g>
				<path class="st11" d="M89.05,288.19l-41.3-1.51c-6.03-0.22-10.96-4.51-10.96-9.52v0c0.01-5.02,4.95-9.02,10.99-8.9l41.33,0.81
					c6.04,0.12,10.96,4.56,10.94,9.87v0C100.04,284.24,95.08,288.41,89.05,288.19z"/>
				<g>
					<path class="st7" d="M111.16,300.47l-58.05-2.71c-1.89-0.09-3.44-1.46-3.43-3.06l0,0c0-1.59,1.55-2.83,3.45-2.75l58.07,2.4
						c1.89,0.08,3.44,1.52,3.43,3.21l0,0C114.61,299.25,113.05,300.56,111.16,300.47z"/>
				</g>
				<g>
					<path class="st6" d="M118.95,288.9l-0.86-0.03c-5.92-0.21-10.74-4.68-10.72-9.92l0,0c0.02-5.24,4.88-9.43,10.8-9.32l0.86,0.02
						c5.92,0.12,10.74,4.58,10.72,9.93l0,0C129.73,284.92,124.87,289.11,118.95,288.9z"/>
				</g>
			</g>
			<g>
				<g>
					<path class="st0" d="M127.64,366.44l-91.39-9.41c-13.92-1.43-25.31-11.87-25.31-23.2v0c0-11.33,11.42-19.87,25.36-18.98
						l91.53,5.8c13.94,0.88,25.3,12.13,25.23,25v0C153.01,358.52,141.57,367.88,127.64,366.44z"/>
				</g>
				<path class="st11" d="M88.87,343.69l-41.22-3.55c-6.02-0.52-10.94-5.05-10.94-10.06l0,0c0.01-5.02,4.94-8.78,10.97-8.36
					l41.25,2.85c6.03,0.42,10.94,5.1,10.92,10.41v0C99.84,340.29,94.9,344.21,88.87,343.69z"/>
				<g>
					<path class="st7" d="M110.94,357.07L53,351.5c-1.89-0.18-3.43-1.63-3.43-3.23l0,0c0-1.59,1.55-2.76,3.44-2.58l57.95,5.26
						c1.89,0.17,3.43,1.69,3.42,3.38l0,0C114.38,356.02,112.83,357.25,110.94,357.07z"/>
				</g>
				<g>
					<path class="st6" d="M118.72,345.88l-0.86-0.07c-5.9-0.51-10.72-5.21-10.7-10.45v0c0.02-5.24,4.87-9.19,10.78-8.79l0.86,0.06
						c5.91,0.41,10.72,5.11,10.7,10.46v0C129.47,342.43,124.62,346.39,118.72,345.88z"/>
				</g>
			</g>
			<g>
				<g>
					<path class="st0" d="M278.49,252.18l-91.75-0.36c-13.98-0.06-25.36-10.7-25.29-23.65v0c0.07-12.95,11.58-23.95,25.58-24.44
						l91.9-3.24c14-0.49,25.35,10.96,25.22,25.45v0C304.01,240.43,292.47,252.24,278.49,252.18z"/>
				</g>
				<path class="st11" d="M239.67,230.78l-41.38,0.52c-6.05,0.08-10.96-4.54-10.93-10.26v0c0.04-5.72,5.01-10.54,11.06-10.72
					l41.41-1.23c6.05-0.18,10.96,4.59,10.91,10.61v0C250.7,225.72,245.71,230.7,239.67,230.78z"/>
				<g>
					<path class="st7" d="M261.76,243.47l-58.17,0.16c-1.9,0.01-3.44-1.47-3.43-3.29l0,0c0.01-1.81,1.57-3.31,3.47-3.32l58.18-0.47
						c1.9-0.02,3.43,1.53,3.42,3.44l0,0C265.22,241.9,263.66,243.46,261.76,243.47z"/>
				</g>
				<g>
					<path class="st6" d="M269.63,229.96l-0.86,0.01c-5.93,0.08-10.74-4.71-10.69-10.64v0c0.05-5.93,4.94-10.92,10.87-11.1
						l0.86-0.03c5.93-0.18,10.74,4.62,10.69,10.65v0C280.45,224.89,275.55,229.88,269.63,229.96z"/>
				</g>
			</g>
			<g>
				<g>
					<path class="st0" d="M277.94,317.02l-91.57-4.89c-13.95-0.74-25.31-11.95-25.24-24.9v0c0.07-12.95,11.56-23.39,25.53-23.19
						l91.72,1.28c13.97,0.2,25.3,12.21,25.16,26.7v0C303.41,306.52,291.89,317.76,277.94,317.02z"/>
				</g>
				<path class="st11" d="M239.19,293.69l-41.3-1.51c-6.03-0.22-10.94-5.08-10.91-10.8v0c0.04-5.72,5-10.3,11.04-10.18l41.33,0.81
					c6.04,0.12,10.94,5.14,10.89,11.15l0,0C250.2,289.17,245.22,293.91,239.19,293.69z"/>
				<g>
					<path class="st7" d="M261.24,307.48l-58.05-2.71c-1.89-0.09-3.43-1.64-3.42-3.46l0,0c0.01-1.81,1.57-3.23,3.46-3.15l58.07,2.4
						c1.89,0.08,3.43,1.7,3.41,3.61l0,0C264.69,306.08,263.13,307.56,261.24,307.48z"/>
				</g>
				<g>
					<path class="st6" d="M269.09,294.35l-0.86-0.03c-5.92-0.21-10.72-5.24-10.67-11.17v0c0.05-5.93,4.93-10.68,10.85-10.57
						l0.86,0.02c5.92,0.12,10.72,5.15,10.67,11.18v0C279.89,289.81,275.01,294.57,269.09,294.35z"/>
				</g>
			</g>
			<g>
				<g>
					<path class="st0" d="M277.39,381.86L186,372.45c-13.92-1.43-25.26-13.2-25.19-26.15v0c0.07-12.95,11.54-22.82,25.48-21.94
						l91.53,5.8c13.95,0.88,25.25,13.46,25.11,27.95v0C302.81,372.61,291.31,383.29,277.39,381.86z"/>
				</g>
				<path class="st11" d="M238.72,356.6l-41.22-3.55c-6.02-0.52-10.92-5.62-10.88-11.34v0c0.04-5.72,4.99-10.06,11.02-9.64
					l41.25,2.85c6.03,0.42,10.92,5.68,10.87,11.69h0C249.7,352.63,244.74,357.12,238.72,356.6z"/>
				<g>
					<path class="st7" d="M260.72,371.48l-57.94-5.57c-1.89-0.18-3.42-1.81-3.41-3.63l0,0c0.01-1.81,1.57-3.16,3.46-2.98l57.95,5.26
						c1.89,0.17,3.42,1.87,3.41,3.78l0,0C264.17,370.25,262.61,371.67,260.72,371.48z"/>
				</g>
				<g>
					<path class="st6" d="M268.56,358.74l-0.86-0.07c-5.9-0.51-10.69-5.77-10.65-11.7l0,0c0.05-5.93,4.92-10.45,10.83-10.04
						l0.86,0.06c5.91,0.41,10.7,5.68,10.65,11.71l0,0C279.34,354.73,274.46,359.25,268.56,358.74z"/>
				</g>
			</g>
		</g>
		<polygon class="st12" points="392.24,366.97 452.74,270.24 477.45,290.81 539.32,237.47 573.13,223.34 589.28,268.58 
			617.15,219.39 614.66,385.68 		"/>
	</g>
	<g>
		<g>
			<g>
				<path class="st10" d="M115.61,493.57l-88.56-19.09c-14.53-3.13-26.41-15.31-26.41-27.06l0-4.26c0-11.75,11.91-19.35,26.46-16.88
					l88.72,15.04c14.55,2.47,26.4,15.42,26.34,28.79l-0.02,4.85C142.07,488.33,130.14,496.7,115.61,493.57z"/>
			</g>
			<path class="st0" d="M63.66,472.84l-41.02-8.48c-5.99-1.24-10.89-6.26-10.89-11.16l0,0c0-4.9,4.91-7.98,10.91-6.84l41.05,7.78
				c6,1.14,10.89,6.32,10.88,11.51v0C74.57,470.84,69.66,474.08,63.66,472.84z"/>
			<path class="st11" d="M72.06,449.43l-57.74-10.61c-1.88-0.35-3.42-1.89-3.42-3.42l0,0c0-1.54,1.54-2.52,3.42-2.18l57.75,10.3
				c1.88,0.34,3.42,1.94,3.41,3.58l0,0C75.49,448.73,73.94,449.78,72.06,449.43z"/>
			<g>
				<path class="st6" d="M96.78,479.68l-0.85-0.18c-5.88-1.21-10.67-6.42-10.65-11.56l0,0c0.02-5.14,4.84-8.44,10.72-7.32l0.86,0.16
					c5.88,1.12,10.67,6.32,10.65,11.56v0C107.48,477.6,102.65,480.9,96.78,479.68z"/>
			</g>
			<g>
				<path class="st8" d="M123.27,485.16l-0.85-0.18c-5.88-1.21-10.67-6.52-10.64-11.78l0,0c0.02-5.26,4.85-8.66,10.73-7.54
					l0.86,0.16c5.88,1.12,10.67,6.42,10.64,11.79v0C133.97,482.98,129.15,486.37,123.27,485.16z"/>
			</g>
		</g>
		<g>
			<g>
				<path class="st10" d="M279.49,528.89l-88.56-19.09c-14.53-3.13-26.35-16.84-26.27-30.46l0.03-4.94
					c0.08-13.62,12.04-22.75,26.6-20.28L280,469.16c14.55,2.47,26.34,16.95,26.2,32.19l-0.05,5.53
					C306.01,522.12,294.01,532.02,279.49,528.89z"/>
			</g>
			<path class="st0" d="M227.6,506.73l-41.02-8.48c-5.99-1.24-10.87-6.89-10.84-12.56v0c0.03-5.67,4.97-9.38,10.96-8.24l41.05,7.78
				c6,1.14,10.87,6.95,10.82,12.91v0C238.53,504.1,233.59,507.97,227.6,506.73z"/>
			<path class="st11" d="M236.15,479.58l-57.74-10.61c-1.88-0.35-3.41-2.08-3.4-3.86l0,0c0.01-1.78,1.56-2.96,3.44-2.62l57.75,10.3
				c1.88,0.34,3.41,2.14,3.4,4.02l0,0C239.58,478.68,238.03,479.93,236.15,479.58z"/>
			<g>
				<path class="st6" d="M260.71,513.57l-0.85-0.18c-5.88-1.21-10.64-7.03-10.6-12.93l0,0c0.05-5.9,4.89-9.81,10.77-8.7l0.86,0.16
					c5.88,1.12,10.65,6.94,10.6,12.94v0C271.44,510.87,266.59,514.79,260.71,513.57z"/>
			</g>
			<g>
				<path class="st8" d="M287.2,519.05l-0.85-0.18c-5.88-1.21-10.64-7.13-10.59-13.16l0,0c0.05-6.02,4.9-10.03,10.78-8.92l0.86,0.16
					c5.88,1.12,10.64,7.04,10.59,13.16v0C297.93,516.25,293.08,520.26,287.2,519.05z"/>
			</g>
		</g>
		<g>
			<g>
				<path class="st10" d="M443.36,564.21l-88.56-19.09c-14.53-3.13-26.29-18.37-26.14-33.86l0.05-5.62
					c0.15-15.49,12.18-26.15,26.73-23.69L444.18,497c14.55,2.47,26.28,18.48,26.07,35.59l-0.08,6.21
					C469.95,555.91,457.89,567.34,443.36,564.21z"/>
			</g>
			<path class="st0" d="M391.53,540.62l-41.02-8.48c-5.99-1.24-10.84-7.52-10.78-13.97v0c0.06-6.44,5.02-10.78,11.02-9.65
				l41.05,7.78c6,1.14,10.84,7.58,10.76,14.32v0C402.49,537.36,397.52,541.86,391.53,540.62z"/>
			<path class="st11" d="M400.23,509.73l-57.74-10.61c-1.88-0.35-3.4-2.28-3.38-4.3v0c0.02-2.02,1.58-3.4,3.46-3.06l57.75,10.3
				c1.88,0.34,3.4,2.34,3.38,4.46l0,0C403.67,508.63,402.11,510.07,400.23,509.73z"/>
			<g>
				<path class="st6" d="M424.65,547.46l-0.85-0.18c-5.88-1.21-10.62-7.65-10.54-14.31v0c0.08-6.66,4.95-11.19,10.83-10.07
					l0.86,0.16c5.88,1.12,10.62,7.56,10.54,14.32v0C435.39,544.14,430.52,548.68,424.65,547.46z"/>
			</g>
			<g>
				<path class="st8" d="M451.14,552.94l-0.85-0.18c-5.88-1.21-10.62-7.75-10.53-14.53l0,0c0.08-6.78,4.96-11.41,10.84-10.29
					l0.86,0.16c5.88,1.12,10.62,7.66,10.53,14.54l0,0C461.89,549.52,457.01,554.15,451.14,552.94z"/>
			</g>
		</g>
		<g>
			<g>
				<path class="st10" d="M607.24,599.53l-88.56-19.09c-14.53-3.13-26.22-19.9-26-37.27l0.08-6.3
					c0.23-17.37,12.32-29.55,26.87-27.09l88.72,15.04c14.55,2.47,26.22,20.01,25.93,38.99l-0.11,6.89
					C633.89,589.7,621.76,602.66,607.24,599.53z"/>
			</g>
			<path class="st0" d="M555.46,574.51l-41.02-8.48c-5.99-1.24-10.82-8.15-10.72-15.37v0c0.1-7.21,5.08-12.19,11.08-11.05
				l41.05,7.78c6,1.14,10.82,8.21,10.71,15.72l0,0C566.45,570.61,561.46,575.75,555.46,574.51z"/>
			<path class="st11" d="M564.31,539.88l-57.74-10.61c-1.88-0.35-3.4-2.48-3.37-4.74l0,0c0.03-2.26,1.59-3.84,3.48-3.5l57.75,10.3
				c1.88,0.34,3.39,2.54,3.36,4.9l0,0C567.76,538.58,566.2,540.22,564.31,539.88z"/>
			<g>
				<path class="st6" d="M588.58,581.35l-0.85-0.18c-5.88-1.21-10.59-8.27-10.49-15.68l0,0c0.11-7.41,5-12.56,10.88-11.45l0.86,0.16
					c5.88,1.12,10.6,8.18,10.49,15.69l0,0C599.35,577.41,594.45,582.57,588.58,581.35z"/>
			</g>
			<g>
				<path class="st8" d="M615.07,586.83l-0.85-0.18c-5.88-1.21-10.59-8.37-10.48-15.91v0c0.11-7.53,5.01-12.79,10.89-11.67
					l0.86,0.16c5.88,1.12,10.59,8.28,10.48,15.91v0C625.85,582.79,620.94,588.04,615.07,586.83z"/>
			</g>
		</g>
	</g>
</g>
</svg>
