<?xml version="1.0" encoding="utf-8"?>
<!-- Generator: Adobe Illustrator 23.0.1, SVG Export Plug-In . SVG Version: 6.00 Build 0)  -->
<svg version="1.1" id="Layer_1" xmlns="http://www.w3.org/2000/svg" xmlns:xlink="http://www.w3.org/1999/xlink" x="0px" y="0px"
	 viewBox="0 0 770 600" style="enable-background:new 0 0 770 600;" xml:space="preserve">
<style type="text/css">
	.st0{fill:#FFFFFF;}
	.st1{fill:#6F2C90;}
	.st2{fill:#F1F1F2;}
	.st3{fill:#A2D9DA;}
	.st4{fill:#224099;}
	.st5{fill:none;stroke:#F1F1F2;stroke-width:0.7142;stroke-miterlimit:10;}
	.st6{fill:#F1F1F1;}
	.st7{fill:#CBCBCB;}
	.st8{fill:#284294;}
	.st9{fill:#6E308B;}
	.st10{fill:#A1D8D9;}
	.st11{fill:#F2F2F2;}
</style>
<g>
	<g>
		<g>
			<g>
				<path class="st0" d="M556.4,83.24L368.97,46.01c-4.94-0.98-8.96,3.17-8.98,9.28v0c-0.02,6.11-4.04,10.31-8.98,9.38L10.49,0.11
					C5.55-0.83,1.53,4.21,1.51,11.36L0,513.11c-0.02,7.16,3.96,12.87,8.9,12.75l527.95-13.29c4.94-0.13,8.96-4.76,8.98-10.33
					l1.32-342.16c0.02-5.57,4.04-9.43,8.98-8.63l0,0c4.94,0.8,8.96-3.02,8.98-8.53L565.31,95C565.33,89.48,561.34,84.22,556.4,83.24
					z"/>
			</g>
			<g>
				<path class="st1" d="M376.44,60.68c-0.01,2.91-1.94,4.9-4.31,4.45c-2.37-0.45-4.28-3.19-4.27-6.11
					c0.01-2.92,1.94-4.92,4.31-4.45C374.54,55.03,376.45,57.77,376.44,60.68z"/>
			</g>
			<g>
				<path class="st2" d="M528.82,89.99c-0.01,2.7-1.94,4.52-4.31,4.07c-2.37-0.45-4.28-3.01-4.27-5.72
					c0.01-2.71,1.94-4.53,4.31-4.07C526.91,84.74,528.83,87.3,528.82,89.99z"/>
			</g>
			<g>
				<path class="st3" d="M543.84,92.88c-0.01,2.68-1.94,4.48-4.31,4.03c-2.37-0.45-4.28-2.99-4.27-5.68
					c0.01-2.69,1.94-4.49,4.31-4.03C541.94,87.66,543.85,90.2,543.84,92.88z"/>
			</g>
			<g>
				<path class="st4" d="M558.86,95.76c-0.01,2.66-1.94,4.44-4.31,4c-2.37-0.45-4.28-2.98-4.27-5.64c0.01-2.67,1.94-4.46,4.31-4
					C556.96,90.58,558.87,93.1,558.86,95.76z"/>
			</g>
			<path class="st2" d="M489.14,88.19L388.17,69.06c-2.92-0.55-5.3-3.95-5.29-7.54l0-0.07c0.01-3.59,2.41-6.06,5.34-5.49
				l100.97,19.77c2.92,0.57,5.3,3.82,5.29,7.22l0,0.07C494.47,86.42,492.06,88.74,489.14,88.19z"/>
		</g>
		<g>
			<g>
				<path class="st1" d="M50.11,34.58c-0.02,7.01-4.04,12-8.98,11.14c-4.94-0.86-8.92-7.28-8.9-14.34
					c0.02-7.06,4.04-12.05,8.98-11.14C46.14,21.15,50.13,27.57,50.11,34.58z"/>
			</g>
			<g>
				<path class="st0" d="M43.56,31.08c0.59,1.04,1.27,2.02,2.03,2.93l0,0.11c-0.77,0.64-1.45,1.37-2.04,2.2
					c-0.6,0.83-1.2,1.9-1.81,3.21l-0.82-1.11c0.99-1.94,1.94-3.3,2.88-4.08c-0.78-0.04-1.53-0.13-2.25-0.26l-4.62-0.83l0-1.48
					l4.62,0.83c0.72,0.13,1.47,0.31,2.25,0.55c-0.93-1.12-1.87-2.82-2.85-5.11l0.82-0.82C42.37,28.76,42.97,30.04,43.56,31.08z"/>
			</g>
		</g>
		<g>
			<g>
				<path class="st1" d="M9.33,27.29c0.02-7.13,4.04-12.18,8.97-11.27c4.94,0.91,8.93,7.38,8.91,14.46
					c-0.02,7.08-4.04,12.12-8.97,11.27C13.3,40.89,9.31,34.42,9.33,27.29z"/>
			</g>
			<g>
				<path class="st0" d="M15.89,30.86c-0.59-1.05-1.27-2.03-2.03-2.96v-0.11c0.77-0.65,1.45-1.4,2.04-2.23
					c0.6-0.84,1.2-1.92,1.81-3.24l0.82,1.12c-0.99,1.96-1.94,3.33-2.87,4.13c0.78,0.04,1.53,0.12,2.25,0.25l4.62,0.82l0,1.49
					l-4.62-0.82c-0.72-0.13-1.47-0.31-2.25-0.55c0.93,1.13,1.88,2.84,2.85,5.15l-0.82,0.83C17.08,33.2,16.48,31.9,15.89,30.86z"/>
			</g>
		</g>
		<path class="st2" d="M341.32,95.01L67.17,47.22c-4.29-0.75-7.78-6.34-7.76-12.43l0-0.12c0.02-6.09,3.54-10.42,7.83-9.63
			l274.14,50.32c4.29,0.78,7.78,5.8,7.76,11.16l0,0.11C349.13,91.98,345.6,95.75,341.32,95.01z"/>
		<g>
			<line class="st5" x1="9.27" y1="48.45" x2="551.53" y2="140.24"/>
		</g>
	</g>
	<g>
		<g>
			<path class="st0" d="M745.07,559.86l-402.29,25.28c-13.71,0.86-24.93-12.66-24.93-30.04V270.23c0-17.39,11.22-30.49,24.93-29.13
				l402.29,39.97c13.71,1.36,24.93,13.7,24.93,27.43v224.85C770,547.07,758.78,559,745.07,559.86z"/>
		</g>
		<g>
			<path class="st6" d="M259.3,590.39l-152.38,9.58c-13.71,0.86-24.93-14.22-24.93-33.52V178.23c0-19.3,11.22-33.63,24.93-31.85
				l152.38,19.75c13.71,1.78,24.93,17.68,24.93,35.34v355.26C284.23,574.38,273.01,589.53,259.3,590.39z"/>
		</g>
		<g>
			<path class="st7" d="M172.85,189.57l-67.79-7.76c-2.2-0.25-3.99-2.97-3.99-6.03v-0.06c0-3.07,1.8-5.36,3.99-5.1l67.79,8.08
				c2.2,0.26,3.99,2.9,3.99,5.87v0.06C176.84,187.6,175.04,189.82,172.85,189.57z"/>
		</g>
		<g>
			<path class="st7" d="M365.05,322.97l-30.15-1.85c-2.2-0.13-3.99-2.51-3.99-5.28v-0.06c0-2.77,1.8-4.91,3.99-4.77l30.15,1.99
				c2.2,0.15,3.99,2.49,3.99,5.21v0.05C369.04,320.99,367.24,323.11,365.05,322.97z"/>
		</g>
		<g>
			<path class="st7" d="M365.05,404.5l-30.15-0.68c-2.2-0.05-3.99-2.35-3.99-5.12v-0.06c0-2.77,1.8-4.98,3.99-4.92l30.15,0.82
				c2.2,0.06,3.99,2.33,3.99,5.05v0.05C369.04,402.37,367.24,404.55,365.05,404.5z"/>
		</g>
		<g>
			<path class="st7" d="M365.05,486.03l-30.15,0.49c-2.2,0.04-3.99-2.2-3.99-4.97v-0.06c0-2.77,1.8-5.05,3.99-5.08l30.15-0.35
				c2.2-0.03,3.99,2.18,3.99,4.9v0.05C369.04,483.74,367.24,486,365.05,486.03z"/>
		</g>
		<g>
			<path class="st7" d="M414.5,561.13l-21.32-24.95c-1.55-1.84-1.55-4.95,0-6.91l0.03-0.04c1.55-1.96,4.09-2.05,5.65-0.21
				l21.32,24.95c1.55,1.8,1.55,4.86,0,6.82l-0.03,0.04C418.59,562.79,416.05,562.93,414.5,561.13z"/>
		</g>
		<g>
			<path class="st7" d="M482.75,557.49l-21.32-24.09c-1.55-1.78-1.55-4.78,0-6.68l0.03-0.04c1.55-1.89,4.09-1.99,5.65-0.21
				l21.32,24.09c1.55,1.73,1.55,4.7,0,6.59l-0.03,0.04C486.84,559.09,484.3,559.22,482.75,557.49z"/>
		</g>
		<g>
			<path class="st7" d="M551,553.85l-21.32-23.23c-1.55-1.71-1.55-4.62,0-6.45l0.03-0.04c1.55-1.83,4.09-1.92,5.65-0.21l21.32,23.23
				c1.55,1.67,1.55,4.53,0,6.36l-0.03,0.04C555.09,555.38,552.55,555.52,551,553.85z"/>
		</g>
		<g>
			<path class="st7" d="M619.24,550.21l-21.32-22.37c-1.55-1.65-1.55-4.45,0-6.23l0.03-0.04c1.55-1.77,4.09-1.86,5.65-0.21
				l21.32,22.37c1.55,1.61,1.55,4.37,0,6.14l-0.03,0.04C623.34,551.68,620.8,551.82,619.24,550.21z"/>
		</g>
		<g>
			<path class="st7" d="M687.49,546.57l-21.32-21.51c-1.55-1.59-1.55-4.29,0-6l0.03-0.03c1.55-1.71,4.09-1.8,5.65-0.21l21.32,21.51
				c1.55,1.55,1.55,4.2,0,5.91l-0.03,0.03C691.59,547.98,689.05,548.12,687.49,546.57z"/>
		</g>
		<g>
			<path class="st0" d="M212.04,242.8l-97.01-9.01c-7.69-0.71-13.97-10.08-13.97-20.81v-0.22c0-10.73,6.29-18.82,13.97-17.98
				l97.01,10.62c7.69,0.84,13.97,9.84,13.97,20.01v0.2C226.02,235.78,219.73,243.51,212.04,242.8z"/>
		</g>
		<g>
			<path class="st8" d="M248.17,244.18l-1.14-0.11c-6.86-0.64-12.48-8.57-12.48-17.6v-0.18c0-9.04,5.61-15.83,12.48-15.08l1.14,0.12
				c6.86,0.74,12.48,8.66,12.48,17.6v0.18C260.64,238.04,255.03,244.82,248.17,244.18z"/>
		</g>
		<g>
			<path class="st7" d="M172.85,261.58l-67.79-5.63c-2.2-0.18-3.99-2.84-3.99-5.91v-0.06c0-3.07,1.8-5.42,3.99-5.22l67.79,5.95
				c2.2,0.19,3.99,2.78,3.99,5.75v0.06C176.84,259.48,175.04,261.76,172.85,261.58z"/>
		</g>
		<g>
			<path class="st0" d="M212.04,313.58l-97.01-5.96c-7.69-0.47-13.97-9.64-13.97-20.37v-0.22c0-10.73,6.29-19.02,13.97-18.42
				l97.01,7.57c7.69,0.6,13.97,9.41,13.97,19.57v0.2C226.02,306.12,219.73,314.05,212.04,313.58z"/>
		</g>
		<g>
			<path class="st8" d="M248.17,313.83l-1.14-0.07c-6.86-0.43-12.48-8.17-12.48-17.21v-0.18c0-9.04,5.61-16,12.48-15.47l1.14,0.09
				c6.86,0.53,12.48,8.27,12.48,17.21v0.18C260.64,307.29,255.03,314.25,248.17,313.83z"/>
		</g>
		<g>
			<path class="st7" d="M172.85,333.59l-67.79-3.5c-2.2-0.11-3.99-2.71-3.99-5.78v-0.06c0-3.07,1.8-5.47,3.99-5.35l67.79,3.82
				c2.2,0.12,3.99,2.65,3.99,5.62v0.06C176.84,331.37,175.04,333.7,172.85,333.59z"/>
		</g>
		<g>
			<path class="st7" d="M172.85,405.6l-67.79-1.37c-2.2-0.04-3.99-2.59-3.99-5.65v-0.06c0-3.07,1.8-5.53,3.99-5.47l67.79,1.69
				c2.2,0.05,3.99,2.53,3.99,5.49v0.06C176.84,403.25,175.04,405.65,172.85,405.6z"/>
		</g>
		<g>
			<path class="st0" d="M212.04,384.36l-97.01-2.91c-7.69-0.23-13.97-9.2-13.97-19.93v-0.22c0-10.73,6.29-19.22,13.97-18.86
				l97.01,4.52c7.69,0.36,13.97,8.97,13.97,19.13v0.2C226.02,376.46,219.73,384.59,212.04,384.36z"/>
		</g>
		<g>
			<path class="st8" d="M248.17,383.47l-1.14-0.04c-6.86-0.21-12.48-7.78-12.48-16.82v-0.18c0-9.04,5.61-16.18,12.48-15.87
				l1.14,0.05c6.86,0.31,12.48,7.88,12.48,16.81v0.18C260.64,376.55,255.03,383.68,248.17,383.47z"/>
		</g>
		<path class="st7" d="M247.92,455.74l-48.32,0.08c-7,0.01-12.73-7.68-12.73-17.1v-0.19c0-9.42,5.73-17.05,12.73-16.95l48.32,0.65
			c7,0.09,12.73,7.63,12.73,16.74v0.18C260.64,448.26,254.92,455.73,247.92,455.74z"/>
		<g>
			<path class="st8" d="M163.11,455.89l-48.32,0.08c-7,0.01-12.73-7.97-12.73-17.74v-0.2c0-9.77,5.73-17.68,12.73-17.59l48.32,0.65
				c7,0.09,12.73,7.91,12.73,17.38v0.19C175.84,448.13,170.11,455.88,163.11,455.89z"/>
		</g>
		<g>
			<path class="st7" d="M172.85,477.61l-67.79,0.76c-2.2,0.02-3.99-2.46-3.99-5.53v-0.06c0-3.07,1.8-5.59,3.99-5.6l67.79-0.44
				c2.2-0.01,3.99,2.4,3.99,5.37v0.06C176.84,475.14,175.04,477.59,172.85,477.61z"/>
		</g>
		<g>
			<path class="st7" d="M715.82,501.05l-321.21,9.04c-2.2,0.06-3.99-2.09-3.99-4.78v-0.05c0-2.69,1.8-4.93,3.99-4.98l321.21-7.52
				c2.2-0.05,3.99,1.76,3.99,4.02v0.05C719.82,499.09,718.02,500.99,715.82,501.05z"/>
		</g>
		<path class="st7" d="M247.92,525.39L199.6,527c-7,0.23-12.73-7.28-12.73-16.7v-0.19c0-9.42,5.73-17.23,12.73-17.35l48.32-0.87
			c7-0.13,12.73,7.23,12.73,16.34v0.18C260.64,517.52,254.92,525.16,247.92,525.39z"/>
		<g>
			<path class="st8" d="M163.11,528.21l-48.32,1.6c-7,0.23-12.73-7.57-12.73-17.34v-0.2c0-9.77,5.73-17.86,12.73-17.99l48.32-0.87
				c7-0.13,12.73,7.51,12.73,16.98v0.19C175.84,520.04,170.11,527.98,163.11,528.21z"/>
		</g>
		<g>
			<path class="st9" d="M247.92,574.02l-133.13,7.34c-7,0.39-12.73-7.29-12.73-17.06v-0.2c0-9.77,5.73-17.99,12.73-18.27
				l133.13-5.33c7-0.28,12.73,6.95,12.73,16.06v0.18C260.64,565.86,254.92,573.63,247.92,574.02z"/>
		</g>
		<g>
			<g>
				<path class="st6" d="M755.03,263.31l-422.2-46.58c-8.23-0.91-14.97-10.2-14.97-20.64v-0.21c0-10.44,6.74-18.12,14.97-17.07
					l422.2,54.09c8.23,1.06,14.97,8.66,14.97,16.9v0.17C770,258.22,763.26,264.22,755.03,263.31z"/>
			</g>
			<g>
				<path class="st7" d="M402.68,210.99l-67.79-7.92c-2.2-0.26-3.99-2.73-3.99-5.5v-0.06c0-2.77,1.8-4.81,3.99-4.55l67.79,8.24
					c2.2,0.27,3.99,2.67,3.99,5.34v0.05C406.68,209.27,404.88,211.25,402.68,210.99z"/>
			</g>
			<g>
				<path class="st8" d="M756.97,252.39l-334.26-39.06c-2.2-0.26-3.99-2.64-3.99-5.29v-0.05c0-2.65,1.8-4.61,3.99-4.34l334.26,40.65
					c2.2,0.27,3.99,2.29,3.99,4.5v0.04C760.97,251.05,759.17,252.65,756.97,252.39z"/>
			</g>
			<g>
				<path class="st10" d="M595.36,228.79c0,4.44-3.26,7.66-7.28,7.2c-4.02-0.46-7.28-4.46-7.28-8.93s3.26-7.69,7.28-7.2
					C592.11,220.36,595.36,224.36,595.36,228.79z"/>
			</g>
		</g>
		<g>
			<path class="st8" d="M467.69,289.02l-129.55-10.57c-3.98-0.32-7.24-4.69-7.24-9.71v-0.1c0-5.02,3.26-8.83,7.24-8.47l129.55,11.68
				c3.98,0.36,7.24,4.48,7.24,9.16v0.09C474.93,285.79,471.67,289.35,467.69,289.02z"/>
		</g>
		<g>
			<polygon class="st10" points="390.62,485.62 485.97,443.59 515.07,457.58 719.82,336.48 719.82,480.25 			"/>
		</g>
	</g>
	<g>
		<g>
			<path class="st8" d="M770,158.98L770,158.98c0,29.01-29.48,48.56-50.18,45.63l-583.12-82.66c-20.7-2.93-54.7-41.13-54.7-81.92v0
				L770,158.98z"/>
		</g>
		<g>
			<path class="st10" d="M400.95,138.6l-70.34-10.68c-3.98-0.6-7.24-5.22-7.24-10.25v-0.1c0-5.03,3.26-8.63,7.24-7.99l70.34,11.28
				c3.98,0.64,7.24,5.12,7.24,9.95v0.1C408.18,135.75,404.93,139.21,400.95,138.6z"/>
		</g>
		<g>
			<path class="st10" d="M503.82,154.22l-70.34-10.68c-3.98-0.6-7.24-5.02-7.24-9.81v-0.1c0-4.79,3.26-8.19,7.24-7.55l70.34,11.28
				c3.98,0.64,7.24,4.92,7.24,9.51v0.09C511.06,151.57,507.8,154.83,503.82,154.22z"/>
		</g>
		<g>
			<path class="st10" d="M606.7,169.84l-70.34-10.68c-3.98-0.6-7.24-4.82-7.24-9.37v-0.09c0-4.55,3.26-7.75,7.24-7.11l70.34,11.28
				c3.98,0.64,7.24,4.72,7.24,9.07v0.09C613.93,167.38,610.68,170.45,606.7,169.84z"/>
		</g>
		<g>
			<path class="st9" d="M719.61,186.99l-70.34-10.68c-3.98-0.6-7.24-4.6-7.24-8.89v-0.09c0-4.28,3.26-7.27,7.24-6.63l70.34,11.28
				c3.98,0.64,7.24,4.5,7.24,8.59v0.08C726.84,184.75,723.59,187.59,719.61,186.99z"/>
		</g>
		<g>
			<g>
				<path class="st11" d="M130.64,80.16c-2.1-0.33-3.8,1.75-3.8,4.65c0,2.9,1.7,5.51,3.8,5.84s3.8-1.75,3.8-4.65
					C134.44,83.11,132.74,80.49,130.64,80.16z"/>
				<path class="st11" d="M143.6,81c0.08-0.13,0.16-0.27,0.23-0.42c0.4-0.82,0.61-1.84,0.56-2.97c-0.12-2.61-1.64-4.96-3.53-5.45
					c-2.22-0.57-4.07,1.54-4.07,4.55c0,0.98,0.2,1.93,0.54,2.77c0.08,0.2,0.17,0.4,0.27,0.58c0.07,0.12,0.13,0.25,0.19,0.38
					c0.84,1.92,1.31,4.01,1.31,6.13c0,0.05,0,0.1,0,0.15c0,0.05,0,0.1,0,0.15c0,2.12-0.47,4.06-1.31,5.72
					c-0.06,0.11-0.12,0.22-0.19,0.32c-0.1,0.16-0.19,0.32-0.27,0.5c-0.34,0.73-0.54,1.62-0.54,2.6c0,3.01,1.85,5.7,4.07,5.83
					c1.89,0.11,3.41-1.77,3.53-4.34c0.05-1.12-0.16-2.21-0.56-3.15c-0.07-0.17-0.15-0.33-0.23-0.49c-0.05-0.11-0.11-0.21-0.16-0.32
					c-0.86-1.94-1.35-4.05-1.35-6.21c0-0.05,0-0.1,0-0.14c0-0.05,0-0.1,0-0.14c0-2.15,0.49-4.11,1.35-5.78
					C143.49,81.18,143.55,81.09,143.6,81z"/>
				<path class="st11" d="M170.57,86.52c-2.1-0.33-3.8,1.71-3.8,4.56c0,2.85,1.7,5.43,3.8,5.75s3.8-1.71,3.8-4.56
					C174.37,89.43,172.67,86.85,170.57,86.52z"/>
				<path class="st11" d="M163.7,84.06c0.06-0.11,0.12-0.22,0.17-0.33c0.34-0.72,0.54-1.59,0.54-2.56c0-2.97-1.85-5.66-4.07-5.82
					c-1.89-0.13-3.41,1.71-3.53,4.27c-0.05,1.11,0.16,2.2,0.56,3.14c0.05,0.12,0.1,0.23,0.16,0.34c0.18,0.38,0.37,0.76,0.52,1.16
					c0.68,1.74,1.06,3.59,1.06,5.48c0,0.05,0,0.09,0,0.14c0,0.05,0,0.1,0,0.14c0,1.89-0.38,3.62-1.06,5.14
					c-0.16,0.35-0.34,0.67-0.52,0.99c-0.06,0.1-0.11,0.19-0.16,0.3c-0.4,0.82-0.61,1.83-0.56,2.96c0.12,2.59,1.64,4.91,3.53,5.38
					c2.22,0.54,4.07-1.57,4.07-4.54c0-0.97-0.2-1.91-0.54-2.73c-0.05-0.13-0.11-0.26-0.17-0.39c-0.24-0.49-0.48-1-0.67-1.53
					c-0.6-1.63-0.92-3.35-0.92-5.1c0-0.05,0-0.1,0-0.15c0-0.05,0-0.1,0-0.15c0-1.75,0.33-3.37,0.92-4.81
					C163.22,84.91,163.46,84.48,163.7,84.06z"/>
				<path class="st11" d="M153.68,72.88c0.06-0.09,0.11-0.19,0.16-0.29c0.4-0.81,0.61-1.83,0.56-2.96c-0.12-2.6-1.64-4.95-3.53-5.44
					c-2.22-0.58-4.07,1.51-4.07,4.51c0,0.98,0.2,1.92,0.54,2.76c0.05,0.13,0.11,0.26,0.17,0.39c0.24,0.5,0.48,1.01,0.67,1.54
					c0.6,1.64,0.92,3.38,0.92,5.14c0,0.05,0,0.1,0,0.15c0,0.05,0,0.1,0,0.15c0,1.76-0.33,3.39-0.92,4.84
					c-0.19,0.47-0.43,0.9-0.67,1.32c-0.06,0.11-0.12,0.22-0.17,0.34c-0.31,0.66-0.5,1.45-0.53,2.32c0,0.05,0,0.1,0,0.14
					c0,0.04,0,0.08,0,0.12c0,0.01,0,0.01,0,0.02c0,0.01,0,0.01,0,0.02c0,0.04,0,0.08,0,0.12c0,0.05,0,0.1,0,0.14
					c0.03,0.88,0.22,1.73,0.53,2.49c0.05,0.13,0.11,0.26,0.17,0.39c0.24,0.5,0.48,1,0.67,1.54c0.6,1.64,0.92,3.37,0.92,5.13
					c0,0.05,0,0.1,0,0.15c0,0.05,0,0.1,0,0.15c0,1.76-0.33,3.4-0.92,4.85c-0.19,0.47-0.43,0.91-0.67,1.33
					c-0.06,0.11-0.12,0.22-0.17,0.34c-0.34,0.73-0.54,1.61-0.54,2.59c0,3,1.85,5.67,4.07,5.79c1.89,0.1,3.41-1.77,3.53-4.33
					c0.05-1.11-0.16-2.2-0.56-3.13c-0.05-0.12-0.1-0.23-0.16-0.34c-0.18-0.38-0.37-0.76-0.52-1.15c-0.68-1.74-1.06-3.59-1.06-5.48
					c0-0.05,0-0.1,0-0.14c0-0.05,0-0.1,0-0.14c0-1.89,0.38-3.63,1.06-5.16c0.16-0.35,0.34-0.67,0.52-0.99
					c0.06-0.1,0.11-0.19,0.16-0.3c0.36-0.74,0.57-1.65,0.56-2.65c0-1-0.2-1.98-0.56-2.83c-0.05-0.12-0.1-0.23-0.16-0.34
					c-0.18-0.38-0.37-0.76-0.52-1.16c-0.68-1.74-1.06-3.6-1.06-5.49c0-0.05,0-0.1,0-0.14c0-0.05,0-0.1,0-0.14
					c0-1.89,0.38-3.63,1.06-5.15C153.32,73.52,153.5,73.2,153.68,72.88z"/>
			</g>
			<g>
				<g>
					<path class="st11" d="M185.18,74.86c0.59-1,1.89-1.33,3.9-1l3.12,0.5v2.28l-3.3-0.54c-0.86-0.12-1.49,0.03-1.89,0.44
						c-0.4,0.41-0.63,1.19-0.67,2.36l5.87,0.94v2.26l-5.87-0.95v5.37l-2.05-0.33v-6.04C184.29,77.62,184.59,75.86,185.18,74.86z"/>
					<path class="st11" d="M193.37,76.94v-2.39l1.98,0.33v2.38L193.37,76.94z M193.37,87.64v-9.6l1.98,0.33v9.59L193.37,87.64z"/>
					<path class="st11" d="M200.54,79.22c0.94,0.17,1.67,0.54,2.2,1.11c0.52,0.57,0.79,1.54,0.79,2.9v6.04l-1.89-0.3v-5.75
						c0-0.67-0.08-1.13-0.24-1.38c-0.16-0.26-0.5-0.43-1-0.51l-1.52-0.27v7.47l-1.89-0.3v-9.59L200.54,79.22z"/>
					<path class="st11" d="M207.92,76.97l3.99,9.99l-0.1-9.34l2.09,0.35v12.96l-2.38-0.38l-4.2-10.5l0.1,9.85l-2.1-0.34V76.54
						L207.92,76.97z"/>
					<path class="st11" d="M217.41,91.25c-0.48-0.24-0.89-0.65-1.26-1.22c-0.29-0.47-0.5-0.98-0.63-1.54
						c-0.13-0.56-0.21-1.13-0.24-1.7c0-0.06,0-0.12,0-0.18c0-0.06,0-0.12,0-0.18c0-0.08,0-0.17,0-0.24c0-0.08,0-0.16,0.01-0.24
						c0.03-0.54,0.11-1.06,0.24-1.56c0.13-0.5,0.34-0.93,0.62-1.3c0.36-0.47,0.78-0.75,1.26-0.83c0.48-0.08,0.97-0.08,1.47,0
						l2.76,0.44v1.98l-2.5-0.41c-0.53-0.07-0.95-0.04-1.26,0.11c-0.32,0.15-0.48,0.61-0.5,1.4l4.26,0.68v1.98l-4.26-0.69
						c0.02,0.83,0.18,1.36,0.48,1.59c0.3,0.23,0.72,0.39,1.28,0.48l2.51,0.39v1.98l-2.76-0.44
						C218.38,91.65,217.89,91.49,217.41,91.25z"/>
					<path class="st11" d="M222.05,82.76l2.2,0.36l1.53,3.11l1.58-2.6l2.17,0.36l-2.65,4.36l2.61,5.08l-2.2-0.35l-1.51-2.99
						l-1.52,2.5l-2.19-0.35l2.63-4.3L222.05,82.76z"/>
					<path class="st11" d="M233.28,94.04c-0.91-0.15-1.64-0.5-2.17-1.07c-0.53-0.56-0.8-1.51-0.8-2.85v-6l1.89,0.31v5.78
						c0,0.63,0.09,1.07,0.27,1.32c0.18,0.24,0.5,0.4,0.96,0.48l1.52,0.23v-7.35l1.89,0.31v9.42L233.28,94.04z"/>
					<path class="st11" d="M242.4,93.54c0.02,0.01,0.04,0.02,0.05,0.03c0.02,0,0.04,0.01,0.05,0.01c0.23,0.02,0.43-0.01,0.62-0.1
						c0.19-0.09,0.29-0.32,0.29-0.68c0-0.34-0.09-0.59-0.27-0.74c-0.18-0.15-0.38-0.25-0.58-0.31c-0.03,0-0.05-0.01-0.08-0.01
						s-0.05-0.01-0.08-0.01l-1.63-0.28c-0.76-0.11-1.36-0.35-1.8-0.7c-0.44-0.36-0.66-1.12-0.67-2.29c-0.01-1.1,0.22-1.83,0.68-2.21
						c0.46-0.38,1.08-0.5,1.85-0.37l4.06,0.65v1.96l-3.34-0.55c-0.03,0.01-0.05,0.01-0.07,0.01c-0.02,0-0.05-0.01-0.07-0.01
						c-0.06-0.01-0.12-0.02-0.18-0.03c-0.06-0.01-0.12-0.02-0.2-0.03c-0.16-0.01-0.32,0.01-0.47,0.07c-0.15,0.06-0.25,0.2-0.29,0.42
						c-0.07,0.4-0.01,0.7,0.19,0.89c0.2,0.19,0.43,0.3,0.69,0.34l1.71,0.26c0.67,0.12,1.23,0.42,1.68,0.89
						c0.45,0.47,0.69,1.2,0.72,2.17c0,0.01,0,0.02,0,0.03c0,0.01,0,0.01,0,0.03c0.01,0.76-0.16,1.43-0.5,1.99
						c-0.34,0.57-0.83,0.8-1.46,0.7l-4.87-0.78V92.9L242.4,93.54z"/>
				</g>
				<g>
					<path class="st3" d="M193.56,101.59c0,1.83-0.16,3.38-0.49,4.65c-0.33,1.27-0.83,2.22-1.51,2.83
						c-0.68,0.61-1.52,0.84-2.54,0.69c-1.03-0.15-1.88-0.64-2.55-1.47c-0.68-0.83-1.18-1.93-1.51-3.32
						c-0.33-1.39-0.49-2.99-0.49-4.81c0-2.9,0.39-5.03,1.16-6.41c0.77-1.37,1.9-1.94,3.4-1.71c1.54,0.24,2.68,1.21,3.42,2.91
						C193.19,96.66,193.56,98.87,193.56,101.59z M187.02,100.59c0,3.97,0.67,6.06,2.01,6.26c0.66,0.1,1.15-0.31,1.49-1.23
						c0.33-0.92,0.5-2.39,0.5-4.41c0-3.98-0.66-6.07-1.99-6.28C187.69,94.71,187.02,96.6,187.02,100.59z"/>
					<path class="st3" d="M199.77,97.78c0.92,0.14,1.63,0.85,2.13,2.12c0.5,1.27,0.75,2.99,0.75,5.16c0,2.11-0.25,3.72-0.75,4.84
						c-0.5,1.12-1.19,1.62-2.06,1.49c-0.44-0.07-0.85-0.29-1.22-0.66c-0.37-0.38-0.68-0.92-0.93-1.63l-0.09-0.01
						c0.02,0.52,0.04,0.96,0.05,1.33c0.01,0.37,0.02,0.67,0.02,0.91v5.26l-2.33-0.34V97.33l1.88,0.29l0.34,1.78l0.13,0.02
						c0.3-0.72,0.61-1.19,0.93-1.41C198.94,97.79,199.32,97.71,199.77,97.78z M199.03,100.3c-0.48-0.07-0.82,0.18-1.04,0.75
						c-0.22,0.58-0.32,1.53-0.32,2.88v0.65c0,1.31,0.11,2.29,0.33,2.92c0.22,0.63,0.56,0.99,1.03,1.06
						c0.84,0.13,1.25-1.15,1.25-3.84C200.29,101.9,199.87,100.43,199.03,100.3z"/>
					<path class="st3" d="M207.58,109.83c0.33,0.05,0.7-0.01,1.09-0.19v2.48c-0.54,0.32-1.15,0.42-1.83,0.32
						c-0.84-0.13-1.44-0.56-1.82-1.29c-0.38-0.73-0.56-1.8-0.56-3.21v-6.61l-0.97-0.15v-1.68l1.15-0.63l0.56-2.76l1.6,0.25v2.75
						l1.76,0.27v2.58l-1.76-0.27v6.48c0,0.51,0.06,0.9,0.18,1.17C207.09,109.63,207.29,109.78,207.58,109.83z"/>
					<path class="st3" d="M211.17,94.67c0.85,0.13,1.27,0.8,1.27,1.99c0,1.16-0.42,1.67-1.27,1.54c-0.85-0.13-1.27-0.78-1.27-1.94
						C209.89,95.07,210.32,94.54,211.17,94.67z M212.33,99.98v13.04l-2.33-0.35V99.62L212.33,99.98z"/>
					<path class="st3" d="M221.45,107.87c0,1.2-0.12,2.3-0.37,3.29c-0.25,0.99-0.64,1.76-1.19,2.3c-0.55,0.54-1.28,0.75-2.19,0.61
						c-0.85-0.13-1.55-0.54-2.1-1.24c-0.55-0.7-0.96-1.59-1.22-2.66c-0.26-1.07-0.39-2.22-0.39-3.44c0-1.32,0.13-2.46,0.39-3.43
						c0.26-0.97,0.66-1.7,1.22-2.18c0.56-0.48,1.27-0.66,2.14-0.52c1.14,0.18,2.04,0.89,2.71,2.15
						C221.12,103.99,221.45,105.7,221.45,107.87z M216.36,107.14c0,1.35,0.11,2.39,0.32,3.12c0.22,0.73,0.56,1.13,1.04,1.2
						c0.48,0.07,0.82-0.22,1.03-0.88c0.21-0.66,0.31-1.68,0.31-3.08c0-1.36-0.1-2.4-0.31-3.12c-0.21-0.71-0.55-1.11-1.03-1.18
						c-0.48-0.07-0.82,0.21-1.04,0.85C216.47,104.7,216.36,105.72,216.36,107.14z"/>
					<path class="st3" d="M227.51,102.12c0.82,0.13,1.46,0.62,1.91,1.48c0.45,0.86,0.67,2.04,0.67,3.54v8.56l-2.33-0.35v-7.67
						c0-0.92-0.07-1.62-0.22-2.11c-0.14-0.49-0.41-0.76-0.79-0.82c-0.49-0.08-0.83,0.19-1.03,0.8c-0.2,0.61-0.3,1.68-0.3,3.21V115
						l-2.33-0.35v-12.98l1.85,0.29l0.25,1.7l0.14,0.02C225.79,102.48,226.51,101.96,227.51,102.12z"/>
					<path class="st3" d="M237.3,113.01c0,1.31-0.28,2.26-0.83,2.86c-0.56,0.6-1.32,0.83-2.3,0.68c-0.97-0.15-1.82-0.52-2.56-1.12
						v-2.98c0.31,0.33,0.68,0.63,1.09,0.9c0.42,0.27,0.84,0.43,1.25,0.5c0.68,0.1,1.02-0.24,1.02-1.03c0-0.31-0.09-0.62-0.26-0.92
						c-0.17-0.3-0.58-0.71-1.21-1.24c-0.61-0.53-1.08-1.14-1.42-1.82c-0.33-0.68-0.5-1.49-0.5-2.42c0-1.13,0.27-1.99,0.81-2.56
						c0.54-0.57,1.27-0.78,2.2-0.64c0.48,0.07,0.93,0.23,1.34,0.47c0.42,0.24,0.84,0.56,1.25,0.95l-0.65,2.26
						c-0.28-0.29-0.57-0.55-0.88-0.76c-0.31-0.21-0.63-0.35-0.95-0.4c-0.59-0.09-0.88,0.2-0.88,0.88c0,0.22,0.04,0.42,0.11,0.6
						c0.07,0.18,0.21,0.38,0.41,0.61c0.2,0.23,0.51,0.53,0.91,0.91c0.6,0.55,1.08,1.15,1.46,1.81
						C237.11,111.2,237.3,112.02,237.3,113.01z"/>
				</g>
			</g>
		</g>
	</g>
</g>
</svg>
