<?xml version="1.0" encoding="utf-8"?>
<!-- Generator: Adobe Illustrator 23.0.1, SVG Export Plug-In . SVG Version: 6.00 Build 0)  -->
<svg version="1.1" id="Layer_1" xmlns="http://www.w3.org/2000/svg" xmlns:xlink="http://www.w3.org/1999/xlink" x="0px" y="0px"
	 viewBox="0 0 150 45" style="enable-background:new 0 0 150 45;" xml:space="preserve">
<style type="text/css">
	.st0{fill:#F2F2F2;}
</style>
<g>
	<g>
		<g>
			<ellipse class="st0" cx="4.82" cy="22.5" rx="4.82" ry="4.79"/>
			<path class="st0" d="M21.24,16.59c0.1-0.13,0.2-0.27,0.29-0.42c0.5-0.81,0.77-1.78,0.71-2.82c-0.15-2.38-2.08-4.31-4.47-4.48
				c-2.81-0.19-5.16,2.02-5.16,4.78c0,0.9,0.25,1.74,0.68,2.46c0.1,0.17,0.22,0.34,0.34,0.5c0.08,0.1,0.17,0.21,0.24,0.32
				c1.06,1.64,1.66,3.48,1.66,5.43c0,0.05,0,0.09,0,0.14c0,0.05,0,0.09,0,0.14c0,1.95-0.6,3.79-1.66,5.43
				c-0.07,0.11-0.16,0.22-0.24,0.32c-0.12,0.16-0.24,0.32-0.34,0.5c-0.43,0.72-0.68,1.56-0.68,2.46c0,2.76,2.34,4.97,5.16,4.78
				c2.39-0.16,4.32-2.1,4.47-4.48c0.06-1.04-0.2-2.01-0.71-2.82c-0.09-0.14-0.19-0.28-0.29-0.42c-0.07-0.09-0.14-0.18-0.2-0.27
				c-1.09-1.66-1.71-3.53-1.71-5.51c0-0.04,0-0.09,0-0.13c0-0.04,0-0.09,0-0.13c0-1.98,0.62-3.85,1.71-5.51
				C21.1,16.76,21.17,16.68,21.24,16.59z"/>
			<ellipse class="st0" cx="55.39" cy="22.5" rx="4.82" ry="4.79"/>
			<path class="st0" d="M46.7,16.45c0.08-0.11,0.15-0.22,0.22-0.33c0.43-0.72,0.68-1.56,0.68-2.46c0-2.76-2.34-4.97-5.16-4.78
				c-2.39,0.16-4.32,2.1-4.47,4.48c-0.06,1.04,0.2,2.01,0.71,2.82c0.06,0.1,0.13,0.2,0.2,0.3c0.23,0.32,0.46,0.65,0.66,0.99
				c0.86,1.51,1.34,3.17,1.34,4.91c0,0.04,0,0.09,0,0.13c0,0.04,0,0.09,0,0.13c0,1.74-0.48,3.41-1.34,4.91
				c-0.2,0.34-0.43,0.67-0.66,0.99c-0.07,0.1-0.14,0.19-0.2,0.3c-0.5,0.81-0.77,1.78-0.71,2.82c0.15,2.38,2.08,4.31,4.47,4.48
				c2.81,0.19,5.16-2.02,5.16-4.78c0-0.9-0.25-1.74-0.68-2.46c-0.07-0.11-0.14-0.23-0.22-0.33c-0.31-0.42-0.61-0.86-0.85-1.32
				c-0.75-1.42-1.17-2.97-1.17-4.6c0-0.05,0-0.09,0-0.14c0-0.05,0-0.09,0-0.14c0-1.62,0.42-3.17,1.17-4.6
				C46.09,17.3,46.39,16.87,46.7,16.45z"/>
			<path class="st0" d="M34.01,7.6c0.07-0.1,0.14-0.19,0.2-0.3c0.5-0.81,0.77-1.78,0.71-2.82c-0.15-2.38-2.08-4.31-4.47-4.48
				c-2.81-0.19-5.16,2.02-5.16,4.78c0,0.9,0.25,1.74,0.68,2.46c0.07,0.11,0.14,0.23,0.22,0.33c0.31,0.42,0.61,0.86,0.85,1.32
				c0.75,1.42,1.17,2.97,1.17,4.6c0,0.05,0,0.09,0,0.14c0,0.05,0,0.09,0,0.14c0,1.62-0.42,3.17-1.17,4.6
				c-0.25,0.46-0.54,0.89-0.85,1.32c-0.08,0.11-0.15,0.22-0.22,0.33c-0.39,0.65-0.63,1.41-0.67,2.21c0,0.04,0,0.09,0,0.13
				c0,0.04,0,0.07,0,0.11c0,0.01,0,0.01,0,0.02c0,0.01,0,0.01,0,0.02c0,0.04,0,0.07,0,0.11c0,0.04,0,0.09,0,0.13
				c0.04,0.81,0.28,1.56,0.67,2.21c0.07,0.11,0.14,0.23,0.22,0.33c0.31,0.42,0.61,0.86,0.85,1.32c0.75,1.42,1.17,2.97,1.17,4.6
				c0,0.05,0,0.09,0,0.14c0,0.05,0,0.09,0,0.14c0,1.62-0.42,3.17-1.17,4.6c-0.25,0.46-0.54,0.89-0.85,1.32
				c-0.08,0.11-0.15,0.22-0.22,0.33c-0.43,0.72-0.68,1.56-0.68,2.46c0,2.76,2.34,4.97,5.16,4.78c2.39-0.16,4.32-2.1,4.47-4.48
				c0.06-1.04-0.2-2.01-0.71-2.82c-0.06-0.1-0.13-0.2-0.2-0.3c-0.23-0.32-0.46-0.65-0.66-0.99C32.48,34.9,32,33.24,32,31.49
				c0-0.04,0-0.09,0-0.13c0-0.04,0-0.09,0-0.13c0-1.74,0.48-3.41,1.34-4.91c0.2-0.34,0.43-0.67,0.66-0.99
				c0.07-0.1,0.14-0.19,0.2-0.3c0.46-0.74,0.72-1.6,0.71-2.53c0-0.93-0.26-1.79-0.71-2.53c-0.06-0.1-0.13-0.2-0.2-0.3
				c-0.23-0.32-0.46-0.65-0.66-0.99C32.48,17.18,32,15.51,32,13.77c0-0.04,0-0.09,0-0.13c0-0.04,0-0.09,0-0.13
				c0-1.74,0.48-3.41,1.34-4.91C33.55,8.25,33.77,7.92,34.01,7.6z"/>
		</g>
		<g>
			<g>
				<path class="st0" d="M73.9,18.02c0.75-1.03,2.4-1.54,4.94-1.54l3.96-0.02v2.14h-4.18c-1.09,0.02-1.89,0.26-2.4,0.7
					c-0.51,0.44-0.79,1.22-0.85,2.31l7.43-0.02v2.12h-7.43v5.03h-2.6V23.1C72.78,20.74,73.15,19.05,73.9,18.02z"/>
				<path class="st0" d="M84.28,18.7v-2.24h2.51v2.24H84.28z M84.28,28.75v-9.02h2.51v9.02H84.28z"/>
				<path class="st0" d="M93.36,19.73c1.19,0.01,2.12,0.25,2.79,0.7c0.66,0.46,1,1.33,1,2.62v5.7h-2.39v-5.42
					c0-0.63-0.1-1.05-0.31-1.27c-0.21-0.22-0.63-0.33-1.27-0.33l-1.93-0.02v7.03h-2.39v-9.02H93.36z"/>
				<path class="st0" d="M102.7,16.46l5.06,8.83l-0.12-8.83h2.65v12.29h-3.01l-5.31-9.29l0.12,9.29h-2.67V16.46H102.7z"/>
				<path class="st0" d="M114.73,28.52c-0.6-0.15-1.13-0.48-1.59-0.97c-0.37-0.4-0.63-0.86-0.8-1.37c-0.17-0.51-0.27-1.04-0.3-1.57
					c0-0.06,0-0.11,0-0.17c0-0.06,0-0.11,0-0.17c0-0.08,0-0.16,0-0.23c0-0.07,0.01-0.15,0.02-0.23c0.03-0.51,0.13-1.02,0.3-1.51
					c0.17-0.5,0.43-0.94,0.78-1.33c0.46-0.5,0.99-0.83,1.59-0.98c0.6-0.15,1.22-0.23,1.87-0.23l3.49-0.02v1.88h-3.16
					c-0.67,0.01-1.2,0.11-1.6,0.3c-0.4,0.19-0.61,0.66-0.64,1.41l5.4-0.02v1.88h-5.4c0.02,0.79,0.22,1.27,0.6,1.44
					c0.38,0.17,0.92,0.26,1.62,0.26l3.18-0.02v1.88h-3.49C115.96,28.75,115.34,28.67,114.73,28.52z"/>
				<path class="st0" d="M120.61,19.73h2.79l1.94,2.72l2-2.72h2.75l-3.35,4.57l3.3,4.45h-2.79l-1.91-2.62l-1.93,2.62h-2.77l3.34-4.5
					L120.61,19.73z"/>
				<path class="st0" d="M134.83,28.75c-1.16,0-2.08-0.23-2.75-0.68c-0.68-0.46-1.01-1.32-1.01-2.6v-5.73h2.39v5.53
					c0,0.6,0.11,1.01,0.34,1.22c0.23,0.21,0.64,0.31,1.22,0.31l1.93-0.02v-7.03h2.39v9.02H134.83z"/>
				<path class="st0" d="M146.39,26.87c0.02,0.01,0.05,0.02,0.07,0.02c0.02,0,0.05,0,0.07,0c0.29-0.01,0.55-0.07,0.79-0.19
					c0.24-0.11,0.36-0.35,0.36-0.7c0-0.33-0.11-0.55-0.34-0.67c-0.23-0.11-0.48-0.18-0.74-0.21c-0.03,0-0.07,0-0.1,0
					c-0.03,0-0.07,0-0.1,0l-2.06-0.02c-0.96,0.01-1.72-0.12-2.28-0.39c-0.56-0.27-0.84-0.97-0.85-2.09
					c-0.01-1.05,0.28-1.79,0.86-2.22c0.58-0.43,1.36-0.65,2.34-0.65l5.14-0.02v1.88h-4.23c-0.03,0.01-0.07,0.02-0.09,0.02
					c-0.03,0-0.06,0-0.09,0c-0.08,0-0.16,0-0.23,0c-0.07,0-0.16,0-0.25,0c-0.21,0.01-0.4,0.06-0.59,0.14
					c-0.19,0.08-0.31,0.23-0.37,0.44c-0.09,0.4-0.01,0.67,0.24,0.82c0.25,0.15,0.54,0.22,0.88,0.22l2.17-0.02
					c0.85,0.01,1.56,0.21,2.13,0.59c0.57,0.38,0.88,1.04,0.91,1.98c0,0.01,0,0.02,0,0.03c0,0.01,0,0.01,0,0.03
					c0.01,0.73-0.2,1.39-0.63,1.99c-0.43,0.6-1.05,0.9-1.85,0.9h-6.17v-1.88H146.39z"/>
			</g>
		</g>
	</g>
</g>
</svg>
