<?xml version="1.0" encoding="utf-8"?>
<!-- Generator: Adobe Illustrator 23.0.1, SVG Export Plug-In . SVG Version: 6.00 Build 0)  -->
<svg version="1.1" id="Layer_1" xmlns="http://www.w3.org/2000/svg" xmlns:xlink="http://www.w3.org/1999/xlink" x="0px" y="0px"
	 viewBox="0 0 300 300" style="enable-background:new 0 0 300 300;" xml:space="preserve">
<style type="text/css">
	.st0{fill:#A2D9DA;}
	.st1{fill:#F1F1F2;}
</style>
<g>
	<g>
		<g>
			<path class="st0" d="M230.95,106.97l-43.37-23.13V46.26C187.59,20.82,166.77,0,141.33,0H60.37C34.93,0,14.12,20.82,14.12,46.26
				v80.95c0,25.44,20.82,46.26,46.26,46.26h80.95c24.51,0,44.68-19.34,46.12-43.51l0.14,0.14L230.95,106.97z M152.64,147.86
				c-20.64-5.52-37.6-14.2-51.4-25.76c-14.46,11.83-32.07,20.5-53.24,26.55c-1.71-3.68-6.31-11.04-9.46-14.59
				c20.51-5.13,37.46-12.62,51.14-23.27c-11.83-13.01-20.9-28.79-28-47.32H41.04V48.22h55.48c-1.44-5.39-4.34-12.75-7.36-18.54
				l16.7-4.86c3.42,6.05,7.36,14.46,8.93,19.85l-11.3,3.55h57.18v15.25h-20.11c-6.7,18.93-15.64,34.31-27.08,47.06
				c13.54,10.51,30.1,18.14,49.69,22.74C159.61,136.69,155.01,143.53,152.64,147.86z"/>
			<path class="st0" d="M77.85,63.47c5.65,13.8,13.54,26.03,23.66,36.41c9.07-9.99,16.3-21.95,21.43-36.41H77.85z"/>
		</g>
	</g>
	<g>
		<g>
			<g>
				<path class="st1" d="M198.92,172.57h-0.65c-3.04,12.99-6.57,26.46-10.11,38.81l-3.52,12.99h28.23l-3.53-12.99
					C205.65,199.03,202.44,185.4,198.92,172.57z"/>
			</g>
			<g>
				<g>
					<path class="st1" d="M239.63,127.21h-80.95c-25.44,0-46.26,20.82-46.26,46.26v39.13l-40.48,21.59l40.55,21.63
						c0.75,24.8,21.21,44.87,46.19,44.87h80.95c25.44,0,46.26-20.82,46.26-46.26v-80.95C285.88,148.03,265.07,127.21,239.63,127.21z
						 M226.33,273.28l-8.34-30.47H179.5l-8.34,30.47h-24.06l38.01-118.67h27.9l38.17,118.67H226.33z"/>
				</g>
			</g>
		</g>
	</g>
</g>
</svg>
