<?xml version="1.0" encoding="utf-8"?>
<!-- Generator: Adobe Illustrator 23.0.1, SVG Export Plug-In . SVG Version: 6.00 Build 0)  -->
<svg version="1.1" id="Layer_1" xmlns="http://www.w3.org/2000/svg" xmlns:xlink="http://www.w3.org/1999/xlink" x="0px" y="0px"
	 viewBox="0 0 27 23" style="enable-background:new 0 0 27 23;" xml:space="preserve">
<style type="text/css">
	.st0{fill:#FFFFFF;}
</style>
<path class="st0" d="M0.78,9.58L0.78,9.58c0.03-0.03,0.07-0.06,0.11-0.09l8.61-8.7c1.04-1.05,2.75-1.05,3.79,0
	c1.04,1.05,1.04,2.78,0,3.83L9.21,8.73h15.11c1.47,0,2.68,1.22,2.68,2.71s-1.21,2.71-2.68,2.71H9.09l4.19,4.24
	c1.04,1.05,1.04,2.78,0,3.83c-1.04,1.05-2.75,1.05-3.79,0l-8.61-8.7c-0.03-0.03-0.07-0.05-0.11-0.09C0.26,12.9,0,12.2,0,11.5
	C0,10.8,0.26,10.1,0.78,9.58z"/>
</svg>
