<?xml version="1.0" encoding="utf-8"?>
<!-- Generator: Adobe Illustrator 23.0.1, SVG Export Plug-In . SVG Version: 6.00 Build 0)  -->
<svg version="1.1" id="Layer_1" xmlns="http://www.w3.org/2000/svg" xmlns:xlink="http://www.w3.org/1999/xlink" x="0px" y="0px"
	 viewBox="0 0 27 23" style="enable-background:new 0 0 27 23;" xml:space="preserve">
<style type="text/css">
	.st0{fill:#6F2C90;}
</style>
<path class="st0" d="M0.8,9.6L0.8,9.6c0,0,0.1-0.1,0.1-0.1l8.6-8.7c1-1,2.8-1,3.8,0s1,2.8,0,3.8L9.2,8.7h15.1c1.5,0,2.7,1.2,2.7,2.7
	s-1.2,2.7-2.7,2.7H9.1l4.2,4.2c1,1,1,2.8,0,3.8s-2.8,1-3.8,0l-8.6-8.7c0,0-0.1-0.1-0.1-0.1C0.3,12.9,0,12.2,0,11.5S0.3,10.1,0.8,9.6
	z"/>
</svg>
