<?xml version="1.0" encoding="UTF-8"?>
<svg width="512px" height="433px" viewBox="0 0 512 433" version="1.1" xmlns="http://www.w3.org/2000/svg" xmlns:xlink="http://www.w3.org/1999/xlink">
    <!-- Generator: Sketch 52.6 (67491) - http://www.bohemiancoding.com/sketch -->
    <title>Shape</title>
    <desc>Created with Sketch.</desc>
    <g id="Page-1" stroke="none" stroke-width="1" fill="none" fill-rule="evenodd">
        <g id="medium" fill="#FFFFFF" fill-rule="nonzero">
            <path d="M170.581333,415.578667 C170.581333,430.405333 159.466667,436.528 147.157333,430.405333 L14.2933333,363.994667 C10.2826667,362.096 6.912,358.917333 4.16,354.458667 C1.408,350 0,345.562667 0,341.189333 L0,16.3466667 C0,4.22933333 7.27466667,-1.25333333 23.7226667,6.93866667 L169.728,79.8986667 C171.84,82.0106667 170.282667,67.504 170.581333,415.578667 Z M188.864,110.085333 L341.44,356.869333 L188.864,281.072 L188.864,110.085333 Z M512,115.226667 L512,415.578667 C512,420.336 510.677333,424.176 507.989333,427.12 C505.322667,430.064 501.696,431.536 497.130667,431.536 C492.565333,431.536 488.085333,430.298667 483.712,427.824 L357.717333,365.125333 L512,115.226667 Z M511.146667,81.0293333 C511.146667,81.6053333 486.72,121.456 437.866667,200.56 C389.013333,279.664 360.384,326 352,339.482667 L240.576,158.810667 L333.141333,8.64533333 C338.176,0.368 348.501333,-1.08266667 355.434667,2.37333333 L510.016,79.3226667 C510.762667,79.6853333 511.146667,80.2613333 511.146667,81.0293333 Z" id="Shape"></path>
        </g>
    </g>
</svg>