<?xml version="1.0" encoding="utf-8"?>
<!-- Generator: Adobe Illustrator 23.0.1, SVG Export Plug-In . SVG Version: 6.00 Build 0)  -->
<svg version="1.1" id="Layer_1" xmlns="http://www.w3.org/2000/svg" xmlns:xlink="http://www.w3.org/1999/xlink" x="0px" y="0px"
	 viewBox="0 0 27 23" style="enable-background:new 0 0 27 23;" xml:space="preserve">
<style type="text/css">
	.st0{fill:#FFFFFF;}
</style>
<path class="st0" d="M26.22,9.58L26.22,9.58c-0.03-0.03-0.07-0.06-0.11-0.09l-8.61-8.7c-1.04-1.05-2.75-1.05-3.79,0
	c-1.04,1.05-1.04,2.78,0,3.83l4.07,4.11H2.68C1.21,8.73,0,9.95,0,11.44s1.21,2.71,2.68,2.71h15.23l-4.19,4.24
	c-1.04,1.05-1.04,2.78,0,3.83c1.04,1.05,2.75,1.05,3.79,0l8.61-8.7c0.03-0.03,0.07-0.05,0.11-0.09C26.74,12.9,27,12.2,27,11.5
	C27,10.8,26.74,10.1,26.22,9.58z"/>
</svg>
