<?xml version="1.0" encoding="utf-8"?>
<!-- Generator: Adobe Illustrator 23.0.1, SVG Export Plug-In . SVG Version: 6.00 Build 0)  -->
<svg version="1.1" id="Layer_1" xmlns="http://www.w3.org/2000/svg" xmlns:xlink="http://www.w3.org/1999/xlink" x="0px" y="0px"
	 viewBox="0 0 27 23" style="enable-background:new 0 0 27 23;" xml:space="preserve">
<style type="text/css">
	.st0{fill:#A2D9DA;}
</style>
<path class="st0" d="M26.2,13.4L26.2,13.4c0,0-0.1,0.1-0.1,0.1l-8.6,8.7c-1,1-2.8,1-3.8,0c-1-1.1-1-2.8,0-3.8l4.1-4.1H2.7
	c-1.5,0-2.7-1.2-2.7-2.7s1.2-2.7,2.7-2.7h15.2l-4.2-4.2c-1-1-1-2.8,0-3.8s2.8-1,3.8,0l8.6,8.7c0,0,0.1,0.1,0.1,0.1
	c0.5,0.5,0.8,1.2,0.8,1.9S26.7,12.9,26.2,13.4z"/>
</svg>
