<?xml version="1.0" encoding="UTF-8"?>
<svg width="512px" height="512px" viewBox="0 0 512 512" version="1.1" xmlns="http://www.w3.org/2000/svg" xmlns:xlink="http://www.w3.org/1999/xlink">
    <!-- Generator: Sketch 52.6 (67491) - http://www.bohemiancoding.com/sketch -->
    <title>telegram</title>
    <desc>Created with Sketch.</desc>
    <g id="Page-1" stroke="none" stroke-width="1" fill="none" fill-rule="evenodd">
        <g id="telegram" fill="#FFFFFF" fill-rule="nonzero">
            <path d="M256,512 C397.418667,512 512,397.418667 512,256 C512,114.581333 397.418667,0 256,0 C114.581333,0 0,114.581333 0,256 C0,397.418667 114.581333,512 256,512 Z M117.141333,250.453333 L363.968,155.285333 C375.424,151.146667 385.429333,158.08 381.717333,175.402667 L381.738667,175.381333 L339.712,373.376 C336.597333,387.413333 328.256,390.826667 316.586667,384.213333 L252.586667,337.045333 L221.717333,366.784 C218.304,370.197333 215.424,373.077333 208.810667,373.077333 L213.354667,307.946667 L331.968,200.789333 C337.130667,196.245333 330.816,193.685333 324.010667,198.208 L177.429333,290.496 L114.24,270.784 C100.522667,266.432 100.224,257.066667 117.141333,250.453333 Z" id="Shape"></path>
        </g>
    </g>
</svg>