<?xml version="1.0" encoding="utf-8"?>
<!-- Generator: Adobe Illustrator 23.0.1, SVG Export Plug-In . SVG Version: 6.00 Build 0)  -->
<svg version="1.1" id="Layer_1" xmlns="http://www.w3.org/2000/svg" xmlns:xlink="http://www.w3.org/1999/xlink" x="0px" y="0px"
	 viewBox="0 0 645 485" style="enable-background:new 0 0 645 485;" xml:space="preserve">
<style type="text/css">
	.st0{fill:#A2D9DA;}
	.st1{fill:#F1F1F2;}
	.st2{fill:none;stroke:#F1F1F2;stroke-width:1.4168;stroke-miterlimit:10;}
	.st3{fill:none;stroke:#F1F1F2;stroke-width:1.4168;stroke-miterlimit:10;stroke-dasharray:11.8078,11.8078;}
	.st4{fill:none;stroke:#F1F1F2;stroke-width:1.4168;stroke-miterlimit:10;stroke-dasharray:12.0371,12.0371;}
	.st5{fill:none;stroke:#F1F1F2;stroke-width:1.4168;stroke-miterlimit:10;stroke-dasharray:13.1885,13.1885;}
	.st6{fill:none;stroke:#F1F1F2;stroke-width:1.4168;stroke-miterlimit:10;stroke-dasharray:11.8158,11.8158;}
	.st7{fill:none;stroke:#F1F1F2;stroke-width:1.4168;stroke-miterlimit:10;stroke-dasharray:12.0977,12.0977;}
	.st8{fill:none;stroke:#F1F1F2;stroke-width:1.4168;stroke-miterlimit:10;stroke-dasharray:11.995;}
	.st9{fill:#9F66A9;}
	.st10{fill:#A1D8D9;}
</style>
<g>
	<g>
		<path class="st0" d="M403.1,402.9c-15.1,0-30.3-2.3-45.1-7c-37.7-12-68.6-38-86.8-73.2c-37.6-72.7-9.1-162.5,63.5-200.2
			c72.6-37.7,162.3-9.1,199.9,63.6c18.2,35.2,21.6,75.4,9.6,113.2c-12,37.8-38,68.7-73.1,86.9l-1.9-3.7l1.9,3.7
			C449.7,397.3,426.5,402.9,403.1,402.9z M402.7,114.3c-21.6,0-43.6,5-64.1,15.7c-68.5,35.5-95.4,120.2-59.9,188.8
			c17.2,33.2,46.3,57.8,81.9,69.1c35.6,11.3,73.5,8.1,106.7-9.1c33.2-17.2,57.7-46.3,69-82c11.3-35.7,8.1-73.6-9.1-106.8
			C502.3,141.9,453.3,114.3,402.7,114.3z"/>
	</g>
	<g>
		<g>
			<path class="st1" d="M553.4,172.7c-11.6-19-26.1-35.9-43.2-49.5c-17-13.7-36.5-24.1-57.2-30.7c-20.7-6.6-42.6-9.3-64.4-8
				c-21.8,1.3-43.4,6.7-63.8,15.5c9.5-5.9,19.7-10.5,30.4-14.1c10.7-3.5,21.7-6,33-7.3c22.5-2.5,45.6-0.2,67.2,6.7
				c21.6,6.9,41.8,18.3,58.7,33.4c8.5,7.5,16.1,15.9,22.7,25C543.3,152.7,549,162.4,553.4,172.7z"/>
		</g>
	</g>
	<path class="st1" d="M386.7,186.1h-18c-1.1,0-2-0.9-2-2v-18c0-1.1,0.9-2,2-2h18c1.1,0,2,0.9,2,2v18
		C388.7,185.2,387.8,186.1,386.7,186.1z"/>
	<path class="st1" d="M540.6,32h-18c-1.1,0-2-0.9-2-2V12c0-1.1,0.9-2,2-2h18c1.1,0,2,0.9,2,2v18C542.6,31.1,541.7,32,540.6,32z"/>
	<path class="st1" d="M69.9,345.1h-16c-1.1,0-2-0.9-2-2v-16c0-1.1,0.9-2,2-2h16c1.1,0,2,0.9,2,2v16C71.9,344.2,71,345.1,69.9,345.1z
		"/>
	<path class="st1" d="M582.8,485h-16c-1.1,0-2-0.9-2-2v-16c0-1.1,0.9-2,2-2h16c1.1,0,2,0.9,2,2v16C584.8,484.1,583.9,485,582.8,485z
		"/>
	<path class="st1" d="M643,303.6h-18c-1.1,0-2-0.9-2-2v-18c0-1.1,0.9-2,2-2h18c1.1,0,2,0.9,2,2v18C645,302.7,644.1,303.6,643,303.6z
		"/>
	<path class="st1" d="M41.5,32h-18c-1.1,0-2-0.9-2-2V12c0-1.1,0.9-2,2-2h18c1.1,0,2,0.9,2,2v18C43.5,31.1,42.6,32,41.5,32z"/>
	<g>
		<g>
			<line class="st2" x1="32.5" y1="21" x2="38" y2="23.5"/>
			<line class="st3" x1="48.8" y1="28.3" x2="366.9" y2="170.3"/>
			<polyline class="st2" points="372.3,172.7 377.7,175.1 373.7,179.5 			"/>
			<line class="st4" x1="365.5" y1="188.4" x2="124.1" y2="448.8"/>
			<line class="st2" x1="120" y1="453.2" x2="116" y2="457.6"/>
		</g>
	</g>
	<g>
		<g>
			<line class="st2" x1="62.9" y1="338.2" x2="65.3" y2="343.7"/>
			<line class="st5" x1="70.7" y1="355.7" x2="110.9" y2="446.1"/>
			<polyline class="st2" points="113.5,452.2 116,457.6 121.7,455.8 			"/>
			<line class="st6" x1="132.9" y1="452.2" x2="622.7" y2="296.2"/>
			<polyline class="st2" points="628.3,294.4 634,292.6 631.9,287 			"/>
			<line class="st7" x1="627.6" y1="275.7" x2="535.9" y2="32.3"/>
			<line class="st2" x1="533.7" y1="26.7" x2="531.6" y2="21"/>
		</g>
	</g>
	<line class="st8" x1="377.7" y1="175.1" x2="574.8" y2="475"/>
	<ellipse class="st9" cx="612.9" cy="279.3" rx="5.4" ry="5.5"/>
	<ellipse class="st9" cx="110.3" cy="167.2" rx="5.4" ry="5.5"/>
	<ellipse class="st9" cx="505" cy="32" rx="5.4" ry="5.5"/>
	<path class="st10" d="M136.4,480.1H95.6c-1.1,0-2-0.9-2-2v-40.9c0-1.1,0.9-2,2-2h40.8c1.1,0,2,0.9,2,2v40.9
		C138.4,479.2,137.5,480.1,136.4,480.1z"/>
	<path class="st0" d="M157.8,216.9h-57.4c-1.1,0-2-0.9-2-2v-57.5c0-1.1,0.9-2,2-2h57.4c1.1,0,2,0.9,2,2v57.5
		C159.8,216,158.9,216.9,157.8,216.9z"/>
	<path class="st0" d="M182.8,235h-14.1c-1.1,0-2-0.9-2-2v-14.1c0-1.1,0.9-2,2-2h14.1c1.1,0,2,0.9,2,2V233
		C184.8,234.1,183.9,235,182.8,235z"/>
	<path class="st0" d="M16.1,41.1H2c-1.1,0-2-0.9-2-2V25c0-1.1,0.9-2,2-2h14.1c1.1,0,2,0.9,2,2v14.1C18.1,40.2,17.2,41.1,16.1,41.1z"
		/>
	<path class="st0" d="M512.4,18.1h-14.1c-1.1,0-2-0.9-2-2V2c0-1.1,0.9-2,2-2h14.1c1.1,0,2,0.9,2,2v14.1
		C514.4,17.2,513.5,18.1,512.4,18.1z"/>
</g>
</svg>
