<?xml version="1.0" encoding="UTF-8"?>
<svg width="512px" height="448px" viewBox="0 0 512 448" version="1.1" xmlns="http://www.w3.org/2000/svg" xmlns:xlink="http://www.w3.org/1999/xlink">
    <!-- Generator: Sketch 52.6 (67491) - http://www.bohemiancoding.com/sketch -->
    <title>wechat</title>
    <desc>Created with Sketch.</desc>
    <g id="Page-1" stroke="none" stroke-width="1" fill="none" fill-rule="evenodd">
        <g id="wechat" fill="#FFFFFF" fill-rule="nonzero">
            <path d="M192,0 C85.952,0 0,71.648 0,160 C0,210.944 28.736,256.128 73.312,285.376 L48,336 L116.96,306.464 C131.744,311.712 147.104,316.032 163.52,318.048 C161.28,308.288 160,298.272 160,288 C160,199.776 246.112,128 352,128 C361.696,128 371.168,128.8 380.512,129.952 C363.616,55.968 285.696,0 192,0 Z M128,120 C114.752,120 104,109.248 104,96 C104,82.752 114.752,72 128,72 C141.248,72 152,82.752 152,96 C152,109.248 141.248,120 128,120 Z M256,120 C242.752,120 232,109.248 232,96 C232,82.752 242.752,72 256,72 C269.248,72 280,82.752 280,96 C280,109.248 269.248,120 256,120 Z" id="Shape"></path>
            <path d="M512,288 C512,217.312 440.352,160 352,160 C263.648,160 192,217.312 192,288 C192,358.688 263.648,416 352,416 C366.528,416 380.352,413.952 393.76,411.04 L480,448 L450.176,388.384 C487.552,364.96 512,328.928 512,288 Z M304,280 C290.752,280 280,269.248 280,256 C280,242.752 290.752,232 304,232 C317.248,232 328,242.752 328,256 C328,269.248 317.248,280 304,280 Z M400,280 C386.752,280 376,269.248 376,256 C376,242.752 386.752,232 400,232 C413.248,232 424,242.752 424,256 C424,269.248 413.248,280 400,280 Z" id="Shape"></path>
        </g>
    </g>
</svg>